 <svg version="1.0" xmlns="http://www.w3.org/2000/svg"  width="140.000000pt" height="251.000000pt" viewBox="0 0 140.000000 251.000000"  preserveAspectRatio="xMidYMid meet" fill="currentColor" stroke="none">  <g transform="translate(0.000000,251.000000) scale(0.100000,-0.100000)" > <path d="M830 2415 c-137 -17 -234 -53 -290 -108 -49 -49 -112 -152 -140 -227 -28 -77 -60 -279 -53 -337 8 -70 -5 -77 -115 -70 -58 3 -97 1 -117 -7 -29 -12 -30 -14 -31 -87 0 -41 -4 -142 -8 -225 -8 -146 -7 -153 13 -173 18 -18 33 -21 110 -21 59 0 92 -4 99 -12 5 -7 12 -107 16 -223 14 -463 32 -835 42 -845 14 -14 482 -34 525 -23 25 7 39 20 56 53 l24 45 -19 35 c-19 34 -19 45 -7 400 21 575 24 609 46 621 11 5 68 9 132 7 l112 -3 8 100 c4 55 6 142 4 192 -3 87 -5 94 -32 124 l-30 31 -95 -7 c-124 -8 -128 -5 -111 76 7 34 22 82 33 107 25 51 71 77 196 107 58 14 73 22 76 39 3 12 14 62 25 111 38 173 43 200 39 235 l-3 35 -120 32 c-136 35 -213 39 -385 18z m349 -110 c76 -19 85 -30 70 -91 -6 -27 -21 -80 -33 -119 l-21 -70 -50 -3 c-76 -3 -170 -21 -200 -36 -65 -34 -100 -133 -100 -279 1 -134 6 -139 147 -138 82 1 108 -2 118 -14 9 -11 10 -43 5 -124 l-7 -109 -30 -6 c-17 -3 -67 -6 -112 -6 l-81 0 -28 -49 -27 -49 1 -299 c0 -326 -18 -740 -35 -761 -8 -11 -45 -13 -167 -10 -87 1 -160 5 -163 8 -2 3 -14 59 -25 125 -17 98 -23 199 -33 545 -6 234 -15 429 -19 434 -8 9 -32 14 -160 32 l-45 6 -12 82 c-12 85 -7 171 12 195 8 10 33 12 119 7 120 -8 157 3 157 47 0 12 9 41 20 65 16 36 18 51 10 85 -24 103 7 293 57 355 34 42 142 118 188 131 16 5 62 19 100 31 128 40 227 44 344 15z"/> </g> </svg> 