<svg xmlns="http://www.w3.org/2000/svg" xmlns:xlink="http://www.w3.org/1999/xlink" version="1.1" x="0px" y="0px" viewBox="0 0 96 120" enable-background="new 0 0 96 96" xml:space="preserve" fill="currentColor" stroke="currentColor"><g><path d="M83.327,74.046c-2.261-1.566-4.685-2.837-7.073-4.192c-3.081-1.748-3.504-2.549-4.494-6.036   c-1.142-4.022-4.741-3.764-7.756-1.907c-0.554,0.341-2.395,2.485-3.156,1.308c-0.389-0.601-0.822-1.172-1.276-1.728   c3.183-1.316,6.11-6.354,7.387-8.876c0.16-0.316,0.073-0.659-0.225-0.855c-3.996-2.633-8.46-4.237-12.915-5.848   c4.717-6.25,5.978-14.306,10.617-20.58c4.472,2.276,11.522-2.17,14.863-4.798c0.318-0.252,0.194-0.802-0.127-0.982   c-5.358-3.012-14.851-3.288-17.767-9.326c-0.276-0.572-1.174-0.281-1.165,0.315c0.057,3.927-1.582,10.995,2.635,13.588   c0.046,0.052,0.094,0.102,0.141,0.15c0.082,1.172-9.404,19.915-10.367,21.136c-0.016,0.02-0.019,0.041-0.031,0.062   c-4.55-1.655-9.047-3.412-12.982-6.378c-0.203-0.152-0.6-0.102-0.758,0.098c-4.91,6.194-10.236,17.118-5.275,24.638   c-0.582,0.505-1.234,0.938-1.998,1.258c-2.628,1.098-5.266-2.264-8.038-0.868c-4.08,2.056-1.563,9.14-6.104,10.092   c-5.056,1.059-9.05,5.437-10.063,10.396c-0.026,0.13-0.007,0.241,0.03,0.344c-0.037,0.28,0.073,0.592,0.405,0.721   c1.319,0.514,2.518,0.203,3.873-0.118c3.102-0.735,5.592-1.51,8.88-1.508c7.957,0.006,16.044,1.149,24.011,1.505   c7.357,0.328,14.903,0.775,22.196-0.426c4.688-0.771,8.745-1.45,13.468-0.547c2.681,0.512,5.157,0.833,7.868,0.427   c0.274-0.041,0.454-0.35,0.459-0.603C88.683,80.105,86.997,76.59,83.327,74.046z M61.437,12.552   c2.447,2.918,6.713,4.125,10.185,5.306c1.482,0.504,2.961,1.005,4.425,1.563c2.632,1.003,1.378,1.006-0.237,2.011   c-2.434,1.513-7.585,4.376-10.779,2.818c-0.01-0.187-0.098-0.363-0.295-0.478C60.57,21.374,61.214,16.73,61.437,12.552z    M35.474,47.16c0.837-1.936,1.932-3.75,3.096-5.502c1.088-1.637,7.274,2.577,8.699,3.185c5.343,2.276,10.975,3.651,16.156,6.336   c2.484,1.287,2.216,1.422,0.785,3.518c-0.962,1.409-3.375,5.156-5.509,5.771c-0.223-0.253-0.447-0.505-0.673-0.755   c-1.969-2.186-4.465-3.725-7.185-4.772c-4.545-1.753-9.709,0.142-12.845,3.563c-1.265,1.381-2.239,3.041-3.482,4.419   C31.527,58.056,33.363,52.045,35.474,47.16z M74.077,82.846c-5.589,0.222-10.981,1.768-16.628,1.844   c-6.131,0.082-12.268-0.247-18.389-0.544c-6.168-0.299-12.31-0.992-18.474-1.246c-1.993-0.082-3.876,0.034-5.796,0.529   c-1.803,0.465-4.127,1.691-6.095,1.276c1.015-4.362,4.069-7.346,8.197-8.934c1.167-0.449,2.241-0.337,3.161-1.239   c0.887-0.869,1.337-2.692,1.621-3.838c0.243-0.982,0.33-2.021,0.531-3.015c1.165-5.75,5.355-1.267,7.561-1.207   c3.766,0.103,5.72-2.645,7.796-5.417c6.115-8.166,14.358-5.7,20.052,0.273c0.038,0.216,0.176,0.397,0.417,0.452   c0.917,1.012,1.764,2.11,2.515,3.271c0.178,0.273,0.562,0.418,0.855,0.225c1.482-0.979,2.873-2.067,4.387-2.999   c4.812-2.963,4.494,3.262,5.42,4.995c1.172,2.192,3.284,3.019,5.438,4.241c3.574,2.028,7.301,3.81,9.583,7.39   C91.266,86.805,78.073,82.687,74.077,82.846z"/></g></svg>