 <svg version="1.0" xmlns="http://www.w3.org/2000/svg"  width="900.000000pt" height="660.000000pt" viewBox="0 0 900.000000 660.000000"  preserveAspectRatio="xMidYMid meet" fill="currentColor" stroke="none">  <g transform="translate(0.000000,660.000000) scale(0.100000,-0.100000)"> <path d="M3470 6274 c-126 -17 -245 -40 -320 -61 -30 -8 -80 -22 -110 -30 -58 -17 -114 -36 -168 -59 -18 -8 -37 -14 -42 -14 -6 0 -40 -14 -77 -31 -38 -17 -93 -43 -123 -56 -134 -61 -393 -194 -480 -248 -19 -12 -42 -25 -50 -29 -49 -23 -379 -242 -475 -315 -213 -161 -488 -419 -631 -591 -68 -82 -176 -225 -201 -265 -149 -240 -200 -339 -265 -510 -72 -191 -108 -343 -134 -569 -41 -361 35 -805 209 -1211 23 -54 137 -281 162 -323 6 -9 26 -43 45 -76 206 -345 488 -664 785 -887 62 -47 230 -160 255 -172 8 -4 42 -23 75 -42 314 -182 716 -321 1125 -389 207 -34 359 -46 601 -46 329 0 590 31 894 107 131 32 416 124 473 152 9 4 33 15 52 23 77 34 248 120 305 153 33 19 69 39 80 45 55 29 162 103 265 180 234 178 472 428 618 650 148 225 236 445 298 750 25 122 26 547 1 670 -48 233 -49 238 -101 401 -66 208 -200 481 -330 674 -230 343 -572 682 -896 889 -118 76 -119 77 -230 134 -545 280 -1107 348 -1605 191 -104 -32 -139 -46 -228 -93 -257 -133 -443 -325 -568 -586 -48 -100 -59 -128 -88 -225 -104 -346 -93 -752 30 -1125 54 -163 109 -281 194 -420 222 -363 576 -623 930 -681 182 -30 261 -33 396 -14 196 26 306 56 489 133 345 146 617 437 706 757 21 74 44 230 44 295 0 65 -23 221 -44 295 -63 225 -264 502 -449 619 -262 165 -569 181 -857 43 -96 -46 -147 -82 -228 -161 -93 -90 -137 -156 -192 -291 -7 -16 -18 -72 -26 -124 -20 -146 2 -280 73 -429 39 -83 99 -110 164 -77 31 17 69 69 69 96 0 9 -12 43 -26 75 -40 88 -64 182 -64 245 0 135 86 298 204 387 171 129 372 178 571 138 126 -25 211 -74 318 -182 140 -141 228 -316 272 -536 19 -98 19 -171 -1 -261 -39 -181 -112 -306 -255 -443 -53 -50 -180 -144 -194 -144 -2 0 -26 -13 -52 -28 -26 -15 -68 -36 -93 -46 -25 -10 -58 -24 -75 -31 -78 -33 -226 -70 -359 -91 -230 -35 -483 0 -686 95 -273 127 -454 324 -595 646 -29 66 -59 172 -91 320 -24 112 -24 454 0 575 39 192 71 287 155 460 100 205 293 415 476 517 113 64 240 117 316 132 19 4 40 10 46 14 22 14 235 39 333 39 107 1 195 -10 330 -39 80 -17 236 -65 285 -88 90 -41 244 -119 270 -135 17 -11 39 -24 50 -30 130 -69 358 -251 530 -424 154 -154 213 -221 311 -351 55 -73 134 -185 159 -226 96 -158 129 -217 191 -345 41 -83 74 -156 74 -162 0 -6 6 -26 14 -44 50 -117 91 -265 120 -433 39 -222 9 -601 -60 -763 -8 -18 -14 -39 -14 -46 0 -17 -39 -108 -92 -211 -79 -156 -222 -348 -368 -495 -245 -244 -609 -480 -960 -620 -30 -12 -63 -26 -72 -31 -20 -10 -309 -104 -383 -124 -145 -40 -250 -61 -440 -92 -159 -25 -694 -25 -845 0 -192 32 -260 47 -485 107 -29 8 -61 19 -137 46 -102 37 -133 50 -223 89 -16 7 -75 36 -130 63 -107 52 -147 75 -279 158 -245 154 -491 373 -693 614 -253 303 -448 662 -540 990 -34 122 -44 177 -73 393 -12 93 -12 222 1 317 5 41 14 107 19 145 38 278 167 602 355 890 190 291 458 576 789 839 59 48 133 104 165 125 220 149 308 206 341 224 8 4 29 16 45 26 17 11 50 31 75 44 25 14 61 34 80 45 65 38 275 140 365 177 140 57 220 87 300 110 33 10 80 24 104 31 25 8 55 14 67 14 12 0 51 8 86 17 91 24 526 24 683 0 61 -10 155 -24 210 -33 55 -8 132 -22 170 -30 39 -8 79 -14 90 -14 11 0 52 -6 90 -14 39 -8 117 -22 175 -31 58 -9 143 -23 190 -30 47 -8 130 -22 185 -30 55 -9 136 -23 180 -30 44 -8 123 -21 175 -30 52 -9 124 -23 160 -31 36 -8 74 -14 85 -14 11 0 49 -6 85 -14 36 -8 101 -22 145 -31 154 -32 220 -47 271 -61 28 -8 59 -14 69 -14 10 0 43 -7 74 -16 31 -8 80 -22 109 -30 182 -48 274 -75 315 -92 l37 -15 0 -166 c0 -95 7 -207 15 -261 8 -52 15 -110 15 -128 0 -70 53 -132 112 -132 30 0 83 33 99 62 7 13 16 46 19 73 l5 50 92 -3 c97 -4 285 25 458 70 73 20 209 37 285 37 102 0 179 -20 262 -68 39 -23 80 -41 92 -41 40 0 94 47 106 91 21 77 30 153 30 253 0 136 -22 170 -125 192 -105 22 -332 125 -470 214 -16 11 -37 23 -45 27 -8 4 -46 26 -85 48 -65 39 -232 122 -300 151 -43 18 -131 42 -197 55 -32 6 -61 16 -65 22 -4 7 -6 46 -5 87 2 62 -1 79 -17 98 -30 35 -84 54 -118 41 -51 -19 -71 -47 -87 -123 -8 -39 -20 -93 -26 -121 -7 -27 -16 -99 -21 -159 -5 -60 -11 -111 -13 -113 -7 -8 -41 -5 -71 5 -16 6 -55 17 -85 25 -30 8 -80 22 -110 30 -98 27 -207 54 -375 91 -59 13 -134 29 -285 60 -41 8 -109 22 -150 30 -41 9 -84 16 -95 16 -11 0 -51 6 -90 14 -38 8 -115 22 -170 31 -55 9 -136 23 -180 30 -44 8 -125 21 -180 30 -55 9 -136 23 -180 30 -79 13 -186 31 -360 59 -457 74 -870 96 -1135 60z m3815 -479 c22 -8 46 -15 54 -15 23 0 250 -114 381 -192 122 -72 334 -180 415 -211 22 -8 47 -18 55 -21 8 -3 22 -10 30 -15 8 -5 24 -12 34 -16 14 -4 16 -9 9 -16 -8 -8 -20 -6 -42 6 -27 13 -60 15 -209 13 -165 -4 -211 -9 -352 -43 -188 -45 -315 -59 -419 -46 -97 12 -94 2 -87 292 3 136 8 254 12 263 8 20 63 21 119 1z"/> <path d="M8408 4855 c-66 -45 -196 -293 -228 -435 -4 -19 -12 -55 -18 -80 -34 -139 -38 -225 -18 -320 37 -172 152 -279 301 -279 72 0 129 22 189 72 76 63 116 174 116 322 0 116 -39 326 -76 413 -8 18 -14 39 -14 46 0 16 -58 148 -90 205 -23 40 -79 81 -112 81 -7 0 -30 -11 -50 -25z m67 -412 c4 -16 13 -55 22 -88 22 -86 22 -299 0 -342 -9 -17 -21 -35 -27 -38 -19 -12 -76 15 -93 44 -31 53 -19 203 28 352 8 26 15 53 15 61 0 17 20 38 37 38 7 0 15 -12 18 -27z"/> <path d="M8305 3055 c-45 -20 -61 -43 -79 -115 -10 -36 -24 -88 -32 -116 -7 -28 -14 -59 -14 -70 0 -10 -6 -48 -14 -84 -13 -60 -25 -137 -57 -375 -25 -185 -8 -330 48 -404 33 -44 47 -56 95 -81 134 -72 296 70 389 340 20 57 22 85 22 230 1 196 -12 261 -80 433 -38 95 -135 219 -190 242 -42 18 -48 18 -88 0z m125 -591 c8 -88 8 -140 0 -190 -15 -95 -67 -203 -91 -188 -12 7 -11 230 1 295 6 30 15 87 20 128 6 41 17 86 27 100 l16 26 8 -25 c4 -14 12 -79 19 -146z"/> </g> </svg> 