

 <svg version="1.0" xmlns="http://www.w3.org/2000/svg"  width="300.000000pt" height="398.000000pt" viewBox="0 0 300.000000 398.000000"  preserveAspectRatio="xMidYMid meet"  fill="currentColor" stroke="none">  <g transform="translate(0.000000,398.000000) scale(0.050000,-0.050000)"> <path d="M3138 7531 c-430 -305 -551 -709 -369 -1237 71 -208 130 -434 131 -502 0 -29 -25 -14 -108 64 -609 576 -1574 606 -2112 64 -261 -263 -344 -461 -205 -491 456 -99 664 -184 925 -381 415 -313 718 -318 1180 -20 132 86 325 192 349 192 26 0 10 -822 -19 -990 -36 -203 -56 -250 -105 -238 -306 71 -1950 136 -2036 79 -105 -68 -159 -233 -159 -481 0 -327 77 -479 278 -552 104 -38 195 -323 512 -1606 265 -1076 272 -1083 920 -1080 1442 6 1483 9 1690 106 368 173 560 485 769 1246 54 195 157 503 230 685 73 182 148 398 166 479 28 120 44 155 90 185 140 92 199 370 166 774 -17 201 -43 244 -139 226 -639 -119 -1050 -146 -1721 -113 -583 29 -525 10 -484 154 17 64 43 206 56 316 27 235 23 224 74 173 121 -121 339 -96 823 93 437 171 510 181 839 116 373 -74 593 -62 694 39 72 72 66 81 -219 359 -288 282 -387 395 -450 521 -168 334 -636 407 -1061 165 -132 -76 -344 -243 -548 -435 l-155 -145 0 97 c-1 104 -69 615 -90 670 -8 20 38 134 116 290 227 454 309 755 287 1064 -18 265 -74 285 -315 114z m52 -473 c-47 -259 -165 -610 -231 -685 -26 -30 -106 251 -104 365 3 149 108 356 257 507 143 145 139 154 78 -187z m-1085 -1005 c174 -59 365 -168 513 -294 144 -121 325 -359 274 -359 -5 0 -23 -5 -40 -12 -23 -9 -32 0 -32 30 0 212 -1283 711 -1436 558 -92 -92 -15 -168 187 -182 279 -21 588 -139 944 -361 199 -123 197 -106 20 -218 -468 -297 -648 -290 -1048 38 -232 190 -532 326 -720 327 -289 1 203 421 599 511 197 45 547 27 739 -38z m2440 -292 c61 -39 130 -112 199 -213 183 -266 252 -344 410 -463 201 -151 190 -152 -434 -53 -258 41 -427 11 -741 -131 -535 -243 -586 -244 -752 -17 -96 131 -89 145 183 386 548 484 904 638 1135 491z m-2702 -1882 c169 -12 550 -43 847 -70 1138 -104 1834 -110 2263 -21 75 16 169 32 207 35 l70 7 6 -105 c7 -121 -47 -460 -79 -499 -30 -36 -299 -34 -637 6 -569 67 -1469 60 -3211 -25 l-261 -13 -73 65 c-161 141 -239 449 -150 587 l36 54 338 0 c186 0 476 -10 644 -21z m2204 -820 c229 -12 535 -32 679 -46 l264 -24 -6 -59 c-3 -33 -47 -159 -97 -280 -188 -455 -212 -524 -307 -887 -185 -709 -354 -997 -674 -1149 -150 -71 -277 -78 -956 -54 -154 6 -410 6 -570 2 -522 -14 -579 46 -722 755 -94 464 -199 854 -350 1293 -61 176 -116 336 -122 355 -9 31 6 35 143 35 85 0 371 13 637 30 845 52 1458 61 2081 29z"/> <path d="M4060 5423 c-61 -20 -223 -95 -360 -168 -138 -72 -290 -143 -340 -157 -122 -34 -143 -54 -136 -126 12 -127 194 -92 620 121 281 140 388 172 480 146 82 -24 136 7 136 77 -1 137 -167 181 -400 107z"/> </g> </svg> 