

 <svg version="1.0" xmlns="http://www.w3.org/2000/svg"  width="300.000000pt" height="271.000000pt" viewBox="0 0 300.000000 271.000000"  preserveAspectRatio="xMidYMid meet" fill="currentColor" stroke="none">  <g transform="translate(0.000000,271.000000) scale(0.050000,-0.050000)"> <path d="M1560 5292 c-456 -131 -592 -426 -529 -1154 l14 -152 -188 -13 c-222 -16 -558 -70 -589 -95 -26 -21 -55 -248 -57 -438 l-1 -130 70 3 c39 1 142 16 230 34 88 17 255 32 372 32 l212 1 14 -162 c7 -90 44 -393 81 -675 37 -282 73 -586 80 -674 l13 -162 -226 -36 c-124 -20 -328 -39 -453 -42 -124 -3 -231 -10 -236 -15 -43 -43 -58 -477 -25 -703 33 -221 45 -231 202 -176 194 68 368 103 581 118 l195 13 1 -68 c1 -161 74 -565 106 -588 109 -80 1141 -27 1215 63 19 23 13 87 -29 303 -30 151 -54 285 -53 299 0 28 681 35 1213 12 l300 -13 32 -259 c37 -305 21 -283 232 -326 568 -114 863 18 863 388 l0 158 255 9 c390 13 417 42 411 440 -6 471 -77 524 -746 561 l-90 5 -6 149 c-3 84 13 267 36 420 23 149 48 399 54 556 l12 285 313 0 c394 0 361 -39 361 432 0 470 42 426 -425 442 l-370 12 -13 210 c-54 827 -246 1068 -679 850 -277 -140 -391 -368 -424 -851 l-13 -195 -203 0 c-196 -1 -699 -25 -1056 -52 l-174 -13 -13 118 c-103 930 -344 1229 -870 1079z m432 -186 c75 -53 174 -237 209 -386 27 -117 97 -625 88 -637 -8 -9 -550 -56 -842 -73 l-243 -13 -14 149 c-54 571 37 838 330 973 126 59 381 51 472 -13z m2695 -46 c61 -73 85 -180 130 -585 l35 -315 -409 0 -408 0 14 165 c38 449 126 629 365 746 135 67 210 64 273 -11z m443 -1062 c557 -27 520 -6 520 -294 -1 -309 4 -304 -292 -304 -132 0 -256 7 -274 16 -19 9 -340 8 -714 -2 -697 -18 -1121 -6 -2000 57 -569 41 -1814 61 -1919 32 -104 -29 -111 -17 -77 130 22 98 37 125 72 134 108 27 642 73 1054 93 248 11 698 44 1000 72 871 81 1819 105 2630 66z m-3227 -658 c217 -11 418 -20 448 -20 l55 0 -13 -135 c-6 -74 -21 -310 -33 -525 -11 -214 -26 -472 -32 -573 l-11 -183 -114 -14 c-104 -12 -601 -108 -728 -140 l-55 -14 0 127 c-1 70 -18 258 -39 417 -43 331 -117 913 -129 1025 l-8 75 133 -10 c73 -6 310 -19 526 -30z m1297 -81 c204 -12 458 -19 565 -16 l194 7 60 -260 c96 -418 108 -505 109 -784 1 -319 15 -304 -258 -282 -121 10 -484 16 -807 12 l-586 -6 13 260 c22 451 49 896 63 1008 l12 107 133 -12 c72 -7 299 -22 502 -34z m1754 -274 c-6 -162 -30 -416 -54 -565 -24 -150 -40 -335 -37 -415 3 -79 -1 -146 -9 -147 -44 -8 -594 28 -593 39 0 7 9 76 19 153 32 240 -6 529 -154 1164 -11 49 -4 50 622 62 l218 4 -12 -295z m-1324 -1206 c220 -11 535 -34 700 -51 165 -17 507 -38 760 -46 615 -20 607 -16 624 -332 13 -234 -7 -312 -85 -334 -115 -31 -446 -44 -477 -18 -22 18 -40 19 -70 3 -30 -16 -181 -13 -567 12 -1286 83 -3546 30 -3908 -91 l-102 -34 -13 109 c-7 60 -7 187 0 284 l13 175 173 13 c251 20 519 64 982 161 769 163 1141 191 1970 149z m-1221 -924 c5 -25 14 -90 21 -145 7 -55 26 -149 42 -208 24 -82 25 -111 7 -123 -82 -50 -894 -72 -941 -25 -22 22 -50 184 -68 381 l-12 144 376 6 c207 3 419 8 471 10 83 4 95 0 104 -40z m2413 -13 l212 -2 12 -109 c28 -278 -195 -378 -655 -293 -144 27 -127 1 -148 223 -21 233 -41 211 180 196 103 -7 282 -14 399 -15z"/> </g> </svg> 