 <!-- <svg version="1.0" xmlns="http://www.w3.org/2000/svg"  width="300.000000pt" height="137.000000pt" viewBox="0 0 300.000000 137.000000"  preserveAspectRatio="xMidYMid meet" fill="currentColor" stroke="none">  <g transform="translate(0.000000,137.000000) scale(0.050000,-0.050000)" > <path d="M5181 2535 c-66 -69 -120 -135 -121 -148 0 -13 -36 -52 -81 -87 -162 -129 -187 -280 -45 -280 33 0 155 109 278 247 144 164 144 -137 0 -308 -29 -34 -52 -78 -52 -97 0 -20 -45 -100 -100 -178 -55 -78 -100 -147 -100 -153 0 -51 -571 -602 -684 -662 -52 -27 -104 -67 -116 -89 -12 -22 -35 -40 -51 -40 -16 0 -97 -36 -181 -80 -84 -44 -171 -80 -192 -80 -21 0 -58 -10 -82 -23 -64 -34 -312 -99 -409 -107 -47 -4 -93 -13 -103 -19 -95 -58 -692 -80 -952 -35 -310 55 -717 165 -931 252 -125 51 -237 92 -250 92 -12 0 -40 19 -61 43 -21 24 -84 73 -141 109 -56 37 -205 166 -329 287 -215 210 -258 244 -258 204 0 -15 127 -170 246 -303 195 -216 610 -498 848 -577 355 -118 643 -203 686 -203 24 0 91 -14 150 -31 137 -40 658 -48 890 -14 94 14 206 29 250 34 44 5 157 35 250 67 600 207 663 234 796 348 36 31 77 56 92 56 15 0 39 15 55 33 32 40 302 246 369 283 26 14 48 44 48 65 0 21 18 50 41 64 47 29 188 225 208 290 7 25 26 45 42 45 16 0 56 61 91 135 34 74 78 153 98 175 19 22 41 72 48 110 6 39 18 104 25 145 18 111 128 80 174 -50 6 -20 35 -44 63 -55 46 -17 50 -28 39 -88 -11 -58 -6 -70 29 -81 124 -40 189 211 92 353 -27 41 -50 92 -50 113 0 59 -236 294 -320 319 -177 52 -170 54 -299 -81z"/> </g> </svg>  -->
  <svg version="1.0" xmlns="http://www.w3.org/2000/svg"  width="900.000000pt" height="939.000000pt" viewBox="0 0 900.000000 939.000000"  preserveAspectRatio="xMidYMid meet" fill="currentColor" stroke="none">  <g transform="translate(0.000000,939.000000) scale(0.100000,-0.100000)" > <path d="M3335 9243 c-22 -2 -71 -11 -110 -19 -38 -9 -122 -20 -185 -24 -126 -8 -323 -30 -555 -60 -82 -11 -184 -22 -226 -25 -42 -4 -94 -11 -115 -16 -21 -5 -97 -14 -169 -19 -71 -6 -166 -17 -210 -25 -44 -7 -120 -16 -170 -20 -49 -3 -119 -12 -155 -20 -36 -7 -114 -17 -175 -20 -60 -4 -138 -13 -173 -21 -35 -8 -93 -14 -130 -14 -37 0 -96 -5 -132 -10 -36 -6 -119 -17 -185 -25 -113 -14 -121 -16 -145 -45 -14 -17 -34 -30 -45 -30 -40 0 -48 -15 -49 -94 -1 -106 -32 -123 -73 -42 -26 51 -54 78 -70 65 -17 -15 -19 -538 -2 -572 7 -12 71 -112 144 -222 72 -110 160 -245 195 -300 35 -55 88 -137 117 -183 29 -45 53 -85 53 -88 0 -3 9 -19 20 -34 11 -16 63 -100 115 -187 51 -87 104 -174 116 -193 27 -43 137 -230 192 -325 21 -38 49 -87 61 -107 55 -97 115 -203 169 -303 156 -288 187 -347 259 -488 76 -149 99 -180 114 -155 5 7 7 137 5 288 -3 298 1 273 -66 395 -15 28 -77 145 -137 260 -61 116 -114 215 -118 220 -4 6 -24 42 -44 80 -41 78 -54 101 -186 335 -51 91 -100 176 -110 190 -10 14 -32 52 -49 85 -17 33 -52 92 -77 130 -24 39 -48 77 -52 85 -4 9 -61 102 -127 208 -66 106 -126 203 -134 216 -32 52 10 70 98 41 25 -8 111 -31 191 -50 146 -35 203 -51 360 -100 47 -14 101 -30 120 -35 19 -5 78 -25 130 -45 52 -20 140 -51 195 -70 95 -32 248 -94 455 -185 144 -63 546 -267 720 -365 365 -207 598 -356 965 -618 196 -141 261 -190 585 -447 787 -624 1809 -1634 2721 -2690 96 -110 266 -323 388 -484 97 -127 169 -233 303 -441 82 -128 211 -359 265 -475 29 -63 64 -137 78 -165 13 -27 43 -102 65 -165 23 -63 50 -137 60 -165 10 -27 22 -66 25 -85 4 -19 13 -54 21 -78 8 -23 14 -59 14 -80 0 -20 11 -81 24 -134 26 -104 27 -91 -14 -248 -13 -49 -14 -590 -2 -602 19 -19 33 31 48 179 21 196 30 759 15 928 -26 303 -31 353 -47 405 -9 30 -20 78 -24 105 -24 157 -141 484 -258 725 -138 282 -293 537 -508 835 -152 210 -436 563 -560 695 -38 41 -101 111 -140 155 -38 44 -150 168 -249 276 -99 107 -223 242 -275 300 -52 57 -290 300 -530 539 -755 756 -1339 1262 -2010 1744 -114 82 -463 316 -570 382 -122 76 -121 75 -215 130 -44 26 -116 68 -160 94 -73 43 -309 168 -480 253 -114 57 -222 106 -360 164 -163 67 -215 92 -215 103 0 10 36 20 80 20 19 0 71 7 115 16 44 8 132 19 195 24 63 5 156 16 205 24 50 8 132 18 184 21 51 3 128 12 170 20 42 7 119 16 171 20 52 4 139 15 193 26 54 10 115 19 136 19 20 0 42 5 49 12 9 9 12 88 12 293 0 341 9 320 -125 308z"/> </g> </svg> 