<svg xmlns="http://www.w3.org/2000/svg" xmlns:xlink="http://www.w3.org/1999/xlink" version="1.1" x="0px" y="0px" viewBox="0 0 96 120" enable-background="new 0 0 96 96" xml:space="preserve" fill="currentColor" stroke="currentColor"><g><path d="M50.983,41.225c1.807,1.058,4.579,0.037,6.336-0.571c4.023-1.392,6.662-3.417,11.221-2.324   c2.862,0.686,5.035,1.172,7.849,0.106c0.459-0.174,0.594-0.666,0.275-1.045c-2.601-3.098-5.798-4.84-7.734-8.565   c-1.143-2.197-2.883-2.965-5.243-3.202c-5.444-0.548-10.649,5.046-14.472,8.671c-0.185-2.861-0.541-5.664-0.935-8.216   c-0.104-0.676-0.262-1.325-0.446-1.962c2.634-4.842,5.627-10.626,4.524-16.282c-0.08-0.414-0.585-0.55-0.918-0.374   c-5.975,3.155-8.079,8.72-5.537,14.805c0.964,2.308,1.324,4.847,1.511,7.402c-6.937-9.207-22.375-10.535-28.177,0.768   c-0.168,0.328-0.046,0.846,0.374,0.918c4.398,0.761,7.36,1.754,10.964,4.643c1.541,1.234,3.606,2.199,5.61,2.291   c4.761,0.219,7.225-3.628,11.431-4.798c0.022,0.511,0.046,1.019,0.074,1.521c0.029,0.505,0.055,1.015,0.078,1.525   c-0.067,0.154-0.066,0.329,0.021,0.495c0.159,3.866,0.058,7.85-1.181,11.505c-7.653-0.669-15.319-1.535-22.969-1.238   c-0.107,0.004-0.198,0.032-0.277,0.074c-0.013,0.006-0.025,0.004-0.038,0.011c-2.57,1.285-2.513,8.053-0.648,9.907   c0.752,0.748,1.608,1.094,2.531,1.257c3.261,8.645,4.775,17.654,7.28,26.48c1.597,5.628,11.397,3.169,15.486,3.256   c7.064,0.15,12.116,1.062,16.139-5.655c2.131-3.56,3.097-7.743,4.134-11.709c1.1-4.2,3.664-7.923,4.05-12.257   c3.437-1.143,2.667-7.293,2.406-10.31c-0.036-0.412-0.371-0.7-0.791-0.603c-8.624,2.001-17.312,1.626-26.017,0.896   c0.946-2.863,1.363-6.06,1.439-9.324C49.795,40.088,50.291,40.818,50.983,41.225z M67.895,67.501   c-1.289,3.317-1.807,6.974-2.97,10.352c-1.561,4.533-4.181,8.841-9.306,9.472c-2.943,0.361-6.062-0.26-9.015-0.322   c-2.42-0.052-4.848,0.267-7.271,0.269c-5.482,0.006-6.068-3.783-6.846-8.175c-1.21-6.828-3.443-13.904-5.898-20.42   c0.422,0.014,0.852,0.013,1.289,0.012c4.499-0.016,9.053-0.463,13.548-0.672c9.74-0.452,19.366-0.257,29.05,0.801   c0.192,0.021,0.359,0.01,0.537,0.011C70.659,61.96,69.027,64.584,67.895,67.501z M54.493,50.359   c4.797,0.292,9.583,0.189,14.354-0.379c0.301-0.036,4.658-1.012,4.707-0.447c0.222,2.559-0.033,4.932-0.834,7.361   c-0.433,1.314-10.354-0.161-11.835-0.23c-5.287-0.248-10.611-0.197-15.899-0.041c-4.492,0.133-8.979,0.413-13.471,0.58   c-1.64,0.062-3.26,0.232-4.903,0.238c-3.258,0.011-5.896-7.11-2.778-8.898C34.099,48.17,44.268,49.736,54.493,50.359z    M51.059,9.074c0.286-0.204-0.803,6.725-1.113,7.615c-0.696,2-1.652,3.918-2.653,5.791c-0.385-1.051-0.814-2.089-1.208-3.168   C44.591,15.217,48.029,11.236,51.059,9.074z M37.413,37.093c-4.114,0.443-6.293-2.938-9.38-4.735   c-1.787-1.04-3.407-1.562-5.482-1.818c-4.125-0.51,2.014-4.666,3.443-5.48c2.361-1.345,5.203-1.611,7.855-1.52   c5.722,0.2,10.922,3.715,13.695,8.596c0.003,0.006,0.009,0.008,0.012,0.014c0.001,0.022,0.002,0.046,0.003,0.068   C43.776,33.176,41.379,36.666,37.413,37.093z M49.3,35.925c3.746-3.401,7.335-7.187,12.272-8.781   c4.307-1.39,6.138,2.662,8.102,5.425c1.341,1.885,3.572,3.149,5.26,4.697c0.902,0.828-6.473-0.241-7.313-0.442   c-1.898-0.454-3.658-0.333-5.515,0.193c-3.235,0.917-5.614,2.936-9.133,3.36c-1.548,0.187-2.672-2.013-3.644-3.386   C49.323,36.636,49.313,36.28,49.3,35.925z"/><path d="M30.508,25.833c-0.806,0.013-0.807,1.263,0,1.25c4.775-0.073,10.318,2.685,14.064,5.495   c0.646,0.484,1.268-0.603,0.631-1.08C41.312,28.579,35.472,25.758,30.508,25.833z"/><path d="M63.18,33.5c0.753,0.291,1.076-0.918,0.332-1.205c-3.912-1.509-8.396,3.414-12.185,3.84c-0.792,0.089-0.801,1.34,0,1.25   c1.892-0.213,3.599-1.079,5.288-1.908C58.398,34.601,61.12,32.706,63.18,33.5z"/></g></svg>