<svg xmlns="http://www.w3.org/2000/svg" version="1.1" viewBox="-5.0 -10.0 110.0 135.0" fill="currentColor">
 <path d="m65.625 17.188h31.25c0.86328 0 1.5625-0.69922 1.5625-1.5625s-0.69922-1.5625-1.5625-1.5625h-32.812c-0.86328 0-1.5625-0.69922-1.5625-1.5625s0.69922-1.5625 1.5625-1.5625c0.046875 0 0.089844 0.003906 0.13281 0.007812 0.70703 0.058594 1.3672-0.36719 1.6055-1.0391 0.4375-1.2539 1.625-2.0938 2.9492-2.0938 0.35938 0 0.71484 0.0625 1.0508 0.17969 0.5 0.17969 1.0586 0.089843 1.4805-0.23438 0.42188-0.32422 0.64844-0.84375 0.60156-1.3711-0.003906-0.042969-0.007812-0.089844-0.007812-0.13672 0-0.86328 0.69922-1.5625 1.5625-1.5625 0.67969 0 1.2773 0.43359 1.4844 1.082 0.14062 0.4375 0.46484 0.78906 0.89062 0.96484 0.42188 0.17578 0.90234 0.15625 1.3125-0.054687 0.55469-0.28516 1.1562-0.42969 1.7812-0.42969s1.2266 0.14453 1.7812 0.42969c0.40625 0.21094 0.88672 0.23047 1.3125 0.054687 0.42188-0.17578 0.75-0.52734 0.89062-0.96484 0.20703-0.64844 0.80469-1.082 1.4844-1.082 0.86328 0 1.5625 0.69922 1.5625 1.5625 0 0.046875-0.003906 0.09375-0.007812 0.13672-0.046876 0.53125 0.17969 1.0469 0.60156 1.3711 0.42188 0.32422 0.97656 0.41406 1.4805 0.23438 0.33594-0.11719 0.69141-0.17969 1.0508-0.17969 0.5 0 0.97656 0.11719 1.4219 0.34375 0.37891 0.19531 0.82031 0.22656 1.2227 0.085938 0.40234-0.14063 0.73047-0.4375 0.91016-0.82422 0.76172-1.6602 2.4336-2.7305 4.2578-2.7305 0.86328 0 1.5625-0.69922 1.5625-1.5625s-0.69922-1.5625-1.5625-1.5625c-2.5508 0-4.9219 1.2578-6.3711 3.293-0.55859-0.13281-1.1367-0.1875-1.707-0.16406-0.64453-1.8203-2.3828-3.1289-4.4219-3.1289-1.4766 0-2.8203 0.67969-3.6875 1.793-1.1602-0.30469-2.3984-0.30469-3.5586 0-0.87109-1.1133-2.2148-1.793-3.6914-1.793-2.0391 0-3.7773 1.3086-4.4219 3.1289-0.089844-0.003906-0.17578-0.003906-0.26562-0.003906-2.2812 0-4.3555 1.2461-5.4492 3.1875-2.2227 0.36328-3.9258 2.3008-3.9258 4.625 0 0.54688 0.097656 1.0742 0.26953 1.5625h-19.289c0.17188-0.48828 0.26953-1.0156 0.26953-1.5625 0-2.3242-1.7031-4.2617-3.9258-4.625-1.0938-1.9414-3.168-3.1875-5.4492-3.1875-0.089844 0-0.17578 0-0.26562 0.003906-0.64453-1.8203-2.3828-3.1289-4.4219-3.1289-1.4766 0-2.8203 0.67969-3.6875 1.793-1.1602-0.30469-2.3984-0.30469-3.5586 0-0.87109-1.1133-2.2148-1.793-3.6914-1.793-2.0391 0-3.7773 1.3086-4.4219 3.1289-0.57031-0.023437-1.1484 0.03125-1.707 0.16406-1.4492-2.0352-3.8203-3.293-6.3711-3.293-0.86328 0-1.5625 0.69922-1.5625 1.5625s0.69922 1.5625 1.5625 1.5625c1.8242 0 3.4961 1.0703 4.2578 2.7305 0.17969 0.38672 0.50781 0.68359 0.91016 0.82422 0.40234 0.14062 0.84375 0.10937 1.2227-0.085938 0.44531-0.22656 0.92188-0.34375 1.4219-0.34375 0.35938 0 0.71484 0.0625 1.0508 0.17969 0.5 0.17969 1.0586 0.089843 1.4805-0.23438 0.42188-0.32422 0.64844-0.83984 0.60156-1.3711-0.003906-0.042969-0.007812-0.089844-0.007812-0.13672 0-0.86328 0.69922-1.5625 1.5625-1.5625 0.67969 0 1.2773 0.43359 1.4844 1.082 0.14062 0.4375 0.46484 0.78906 0.89062 0.96484 0.42188 0.17578 0.90234 0.15625 1.3125-0.054687 0.55469-0.28516 1.1562-0.42969 1.7812-0.42969s1.2266 0.14453 1.7812 0.42969c0.40625 0.21094 0.88672 0.23047 1.3125 0.054687s0.75-0.52734 0.89062-0.96484c0.20703-0.64844 0.80469-1.082 1.4844-1.082 0.86328 0 1.5625 0.69922 1.5625 1.5625 0 0.046875-0.003906 0.09375-0.007812 0.13672-0.046876 0.53125 0.17969 1.0469 0.60156 1.3711 0.42188 0.32422 0.98047 0.41406 1.4805 0.23438 0.33594-0.11719 0.69141-0.17969 1.0508-0.17969 1.3242 0 2.5117 0.83984 2.9492 2.0938 0.23438 0.67188 0.89453 1.1016 1.6055 1.0391 0.042968-0.003906 0.085937-0.007812 0.13281-0.007812 0.86328 0 1.5625 0.69922 1.5625 1.5625s-0.69922 1.5625-1.5625 1.5625h-32.812c-0.86328 0-1.5625 0.69922-1.5625 1.5625s0.69922 1.5625 1.5625 1.5625h32.812c1.7227 0 3.125 1.4023 3.125 3.125v7.8125h-7.8125c-0.089844 0-0.17578 0-0.26562 0.003906-0.64453-1.8203-2.3828-3.1289-4.4219-3.1289-1.4766 0-2.8203 0.67969-3.6875 1.793-1.1602-0.30469-2.3984-0.30469-3.5586 0-0.87109-1.1133-2.2148-1.793-3.6914-1.793-2.0391 0-3.7773 1.3086-4.4219 3.1289-0.57031-0.023437-1.1484 0.03125-1.707 0.16406-1.4492-2.0352-3.8203-3.293-6.3711-3.293-0.86328 0-1.5625 0.69922-1.5625 1.5625s0.69922 1.5625 1.5625 1.5625c1.8242 0 3.4961 1.0703 4.2578 2.7305 0.17969 0.38672 0.50781 0.68359 0.91016 0.82422 0.40234 0.14062 0.84375 0.10937 1.2227-0.085938 0.44531-0.22656 0.92188-0.34375 1.4219-0.34375 0.35938 0 0.71484 0.0625 1.0508 0.17969 0.5 0.17969 1.0586 0.089843 1.4805-0.23438 0.42188-0.32422 0.64844-0.83984 0.60156-1.3711-0.003906-0.042969-0.007812-0.089844-0.007812-0.13672 0-0.86328 0.69922-1.5625 1.5625-1.5625 0.67969 0 1.2773 0.43359 1.4844 1.082 0.14062 0.4375 0.46484 0.78906 0.89062 0.96484 0.42188 0.17578 0.90234 0.15625 1.3125-0.054687 0.55469-0.28516 1.1562-0.42969 1.7812-0.42969s1.2266 0.14453 1.7812 0.42969c0.40625 0.21094 0.88672 0.23047 1.3125 0.054687s0.75-0.52734 0.89062-0.96484c0.20703-0.64844 0.80469-1.082 1.4844-1.082 0.86328 0 1.5625 0.69922 1.5625 1.5625 0 0.046875-0.003906 0.09375-0.007812 0.13672-0.046876 0.53125 0.17969 1.0469 0.60156 1.3711 0.42188 0.32422 0.98047 0.41406 1.4805 0.23438 0.33594-0.12109 0.69141-0.17969 1.0508-0.17969 1.3242 0 2.5117 0.83984 2.9492 2.0938 0.23438 0.67188 0.89453 1.0977 1.6055 1.0391 0.042968-0.003906 0.089843-0.007812 0.13281-0.007812 0.86328 0 1.5625 0.69922 1.5625 1.5625s-0.69922 1.5625-1.5625 1.5625h-32.812c-0.86328 0-1.5625 0.69922-1.5625 1.5625s0.69922 1.5625 1.5625 1.5625h32.812c1.7227 0 3.125 1.4023 3.125 3.125v7.8125h-35.938c-0.86328 0-1.5625 0.69922-1.5625 1.5625s0.69922 1.5625 1.5625 1.5625h11.508c-0.62109 0.54688-1.1367 1.2109-1.5039 1.9609-0.69141-0.26172-1.4336-0.39844-2.1914-0.39844-3.4453 0-6.25 2.8047-6.25 6.25 0 0.75781 0.13672 1.5 0.39844 2.1953-2.0898 1.0195-3.5234 3.1719-3.5234 5.6172 0 2.2852 1.25 4.3516 3.1758 5.4414-0.035156 0.26562-0.050781 0.53516-0.050781 0.80859 0 3.4453 2.8047 6.25 6.25 6.25 0.75781 0 1.5-0.13672 2.1953-0.39844 0.79688 1.6289 2.2812 2.8555 4.0547 3.3164v8.4531l-3.3789 1.1289h-2.8711c-0.86328 0-1.5625 0.69922-1.5625 1.5625s0.69922 1.5625 1.5625 1.5625h3.125c0.16797 0 0.33594-0.027344 0.49219-0.078125l4.1953-1.3984 4.1953 1.3984c0.16016 0.054687 0.32813 0.078125 0.49219 0.078125h3.125c0.86328 0 1.5625-0.69922 1.5625-1.5625s-0.69922-1.5625-1.5625-1.5625h-2.8711l-3.3789-1.125v-8.4531c1.7734-0.46484 3.2578-1.6914 4.0547-3.3164 0.69531 0.25781 1.4375 0.39453 2.1953 0.39453 3.4453 0 6.25-2.8047 6.25-6.25 0-0.27344-0.015625-0.54297-0.050781-0.80859 1.9258-1.0898 3.1758-3.1562 3.1758-5.4414 0-2.4453-1.4336-4.5977-3.5234-5.6172 0.26172-0.69531 0.39844-1.4375 0.39844-2.1953 0-3.4453-2.8047-6.25-6.25-6.25-0.75781 0-1.5 0.13672-2.1953 0.39844-0.36719-0.75-0.88281-1.4141-1.5039-1.9609h26.145c-0.62109 0.54688-1.1367 1.2109-1.5039 1.9609-0.69141-0.26172-1.4336-0.39844-2.1914-0.39844-3.4453 0-6.25 2.8047-6.25 6.25 0 0.75781 0.13672 1.5 0.39844 2.1953-2.0898 1.0195-3.5234 3.1719-3.5234 5.6172 0 2.2852 1.25 4.3516 3.1758 5.4414-0.035156 0.26562-0.050781 0.53516-0.050781 0.80859 0 3.4453 2.8047 6.25 6.25 6.25 0.75781 0 1.5-0.13672 2.1953-0.39844 0.79688 1.6289 2.2812 2.8555 4.0547 3.3164v6.0859l-1.3984 2.7969c-0.007812 0.015625-0.011718 0.03125-0.019531 0.046875l-1.9609 0.65234h-2.8711c-0.86328 0-1.5625 0.69922-1.5625 1.5625s0.69922 1.5625 1.5625 1.5625h3.125c0.16797 0 0.33594-0.027344 0.49219-0.078125l1.4336-0.47656c0.28906 0.33594 0.71875 0.55469 1.1992 0.55469h9.375c0.37109 0 0.72656-0.13281 1.0078-0.37109l2.3203-1.9648c-0.20703 0.36328-0.26562 0.80469-0.13672 1.2227 0.19922 0.66016 0.80859 1.1094 1.4961 1.1094h10.938c0.44922 0 0.875-0.19141 1.1719-0.52734s0.43359-0.78125 0.37891-1.2266l-0.80078-6.4141c2.4102 4.3906 5.3008 6.6094 8.625 6.6094 4.3086 0 7.8125-3.5039 7.8125-7.8125v-0.050781c-0.003906-9.2109-1.0586-25.066-7.6016-34.324h10.727c0.86328 0 1.5625-0.69922 1.5625-1.5625s-0.69922-1.5625-1.5625-1.5625h-13.465c-1.2266-1.0156-2.7539-1.6172-4.3984-1.75 0.76953-2.3242 0.60938-4.8086-0.45703-7.0156l-1.0508-2.1719h19.371c0.86328 0 1.5625-0.69922 1.5625-1.5625s-0.69922-1.5625-1.5625-1.5625h-21.434c-1.7422-1.7656-4.1523-2.8164-6.6953-2.8164-1.418 0-2.7852 0.3125-4.0703 0.93359-0.6875 0.33203-1.3203 0.73828-1.8945 1.2148-0.17969-0.25391-0.28125-0.56641-0.28125-0.89453 0-0.86328 0.69922-1.5625 1.5625-1.5625 0.046875 0 0.089844 0.003906 0.13281 0.007812 0.70703 0.058594 1.3672-0.36719 1.6055-1.0391 0.4375-1.2539 1.625-2.0938 2.9492-2.0938 0.35938 0 0.71484 0.0625 1.0508 0.17969 0.5 0.17969 1.0586 0.089843 1.4805-0.23438 0.42188-0.32422 0.64844-0.84375 0.60156-1.3711-0.003906-0.046875-0.007812-0.089844-0.007812-0.13672 0-0.86328 0.69922-1.5625 1.5625-1.5625 0.67969 0 1.2773 0.43359 1.4844 1.082 0.14062 0.4375 0.46484 0.78906 0.89062 0.96484 0.42188 0.17578 0.90234 0.15625 1.3125-0.054687 0.55469-0.28516 1.1562-0.42969 1.7812-0.42969s1.2266 0.14453 1.7812 0.42969c0.40625 0.21094 0.88672 0.23047 1.3125 0.054687 0.42188-0.17578 0.75-0.52734 0.89062-0.96484 0.20703-0.64844 0.80469-1.082 1.4844-1.082 0.86328 0 1.5625 0.69922 1.5625 1.5625 0 0.046875-0.003906 0.09375-0.007812 0.13672-0.046876 0.53125 0.17969 1.0469 0.60156 1.3711 0.42188 0.32422 0.97656 0.41406 1.4805 0.23438 0.33594-0.12109 0.69141-0.17969 1.0508-0.17969 0.5 0 0.97656 0.11719 1.4219 0.34375 0.37891 0.19531 0.82031 0.22656 1.2227 0.085938 0.40234-0.14063 0.73047-0.4375 0.91016-0.82422 0.76172-1.6602 2.4336-2.7305 4.2578-2.7305 0.86328 0 1.5625-0.69922 1.5625-1.5625s-0.69922-1.5625-1.5625-1.5625c-2.5508 0-4.9219 1.2578-6.3711 3.293-0.55859-0.13281-1.1367-0.1875-1.707-0.16406-0.64453-1.8203-2.3828-3.1289-4.4219-3.1289-1.4766 0-2.8203 0.67969-3.6875 1.793-1.1602-0.30469-2.3984-0.30469-3.5586 0-0.87109-1.1133-2.2148-1.793-3.6914-1.793-2.0391 0-3.7773 1.3086-4.4219 3.1289-0.089844-0.003906-0.17578-0.003906-0.26562-0.003906h-3.125zm-41.156 42.992c0.57422-0.51953 1.3164-0.80469 2.0938-0.80469 1.7227 0 3.125 1.4023 3.125 3.125 0 0.77344-0.28516 1.5195-0.80469 2.0938-0.39844 0.44141-0.51172 1.0742-0.28906 1.6289 0.22266 0.55469 0.73828 0.93359 1.332 0.97656 1.6172 0.12109 2.8867 1.4883 2.8867 3.1133 0 1.4062-0.94531 2.6445-2.3008 3.0156-0.42969 0.11719-0.78906 0.41016-0.98828 0.80859-0.19922 0.39844-0.21875 0.86328-0.054688 1.2734 0.14453 0.36719 0.21875 0.75391 0.21875 1.1523 0 1.7227-1.4023 3.125-3.125 3.125-0.77344 0-1.5195-0.28516-2.0938-0.80469-0.44141-0.39844-1.0742-0.51172-1.6289-0.28906-0.55469 0.22266-0.93359 0.73828-0.97656 1.332-0.12109 1.6172-1.4883 2.8867-3.1133 2.8867s-2.9922-1.2695-3.1133-2.8867c-0.042969-0.59375-0.42188-1.1133-0.97656-1.332-0.1875-0.074219-0.38672-0.11328-0.58203-0.11328-0.37891 0-0.75391 0.14062-1.0469 0.40234-0.57422 0.51953-1.3203 0.80469-2.0938 0.80469-1.7227 0-3.125-1.4023-3.125-3.125 0-0.39453 0.074219-0.78516 0.21875-1.1523 0.16406-0.41406 0.14453-0.87891-0.054688-1.2734-0.19922-0.39844-0.55859-0.69141-0.98828-0.80859-1.3555-0.37109-2.3008-1.6094-2.3008-3.0156 0-1.625 1.2695-2.9922 2.8867-3.1133 0.59375-0.042969 1.1133-0.42188 1.332-0.97656 0.22266-0.55469 0.10938-1.1836-0.28906-1.6289-0.51953-0.57422-0.80469-1.3203-0.80469-2.0938 0-1.7227 1.4023-3.125 3.125-3.125 0.77344 0 1.5195 0.28516 2.0938 0.80469 0.44141 0.39844 1.0742 0.51172 1.6289 0.28906 0.55469-0.22266 0.93359-0.73828 0.97656-1.332 0.12109-1.6172 1.4883-2.8867 3.1133-2.8867s2.9922 1.2695 3.1133 2.8867c0.042969 0.59375 0.42188 1.1133 0.97656 1.332 0.55469 0.22266 1.1875 0.10938 1.6289-0.28906zm17.719-38.305h20.312v1.5625h-20.312zm20.312-4.6875v1.5625h-20.512c-0.14453-0.55469-0.35938-1.0781-0.64062-1.5625zm9.418 32.418 2.8789 1.4062c-0.54297 0.61328-1.207 1.1211-1.9688 1.4883-0.85547 0.41406-1.7695 0.625-2.7109 0.625-2.3867 0-4.5977-1.3867-5.6328-3.5352l-0.86719-1.793c0.89844-0.19922 1.7891-0.59375 2.6719-1.1836 0.11328-0.078125 0.21875-0.15625 0.30859-0.23828l0.47656 1.3516c0.25391 0.71875 0.98828 1.1484 1.7383 1.0234 0.75-0.12891 1.3008-0.77734 1.3008-1.5391 0-1.0039 0.22266-2.2109 0.47266-2.6914 0.55078 0.23047 0.73047 0.51953 0.81641 0.72656 0.32812 0.76562-0.058594 1.9531-0.21484 2.3047-0.36328 0.76562-0.035156 1.6836 0.73047 2.0547zm-13.176 32.809c0.69531 0.26172 1.4375 0.39844 2.1953 0.39844 1.8438 0 3.5-0.80078 4.6445-2.0742 0.10938 0.41016 0.20312 0.76172 0.28125 1.0469l-7.2305 8.8398h-3.9453v-4.8906c1.7734-0.46484 3.2578-1.6914 4.0547-3.3203zm9.5625-3.6055c-0.93359-3.543-2.4023-9.3359-2.6875-11.801-0.13672-1.1758 0.015624-3.3086 0.78125-4.1641 0.21094-0.24609 0.44141-0.34375 0.78906-0.34375 1.8047 0 2.9062 0.62891 4.6875 2.4102v9.5312zm-26.117-33.496h17.277c0.070312 0.52734 0.18359 1.0508 0.34766 1.5625h-17.625zm17.383-3.125h-17.582c-0.14453-0.55469-0.35938-1.0781-0.64062-1.5625h18.684c-0.19922 0.50781-0.35156 1.0312-0.46094 1.5625zm-17.383 7.8125h19.023l0.45703 0.94922c0.10156 0.21094 0.21094 0.41406 0.32422 0.61328h-19.805zm22.762 4.6875c1.3906 0.91797 3.0234 1.4688 4.7305 1.5508-0.19531 0.76562-0.27344 1.4844-0.33984 2.125-0.050782 0.46875-0.09375 0.89453-0.17969 1.2539-0.67188-0.16016-1.3281-0.24219-1.9727-0.24219-0.27344 0-0.53906 0.023438-0.79688 0.070312-1.0859-1.9375-3.1523-3.1953-5.4531-3.1953-0.75781 0-1.5 0.13672-2.1953 0.39844-0.36719-0.75-0.88281-1.4141-1.5039-1.9609zm-14.938 25.238c-0.042969-0.59375-0.42188-1.1133-0.97656-1.332-0.55469-0.22266-1.1836-0.10938-1.6289 0.28906-0.57422 0.51953-1.3164 0.80469-2.0938 0.80469-1.7227 0-3.125-1.4023-3.125-3.125 0-0.39453 0.074219-0.78516 0.21875-1.1523 0.16406-0.41406 0.14453-0.87891-0.054688-1.2734-0.19922-0.39844-0.55859-0.69141-0.98828-0.80859-1.3555-0.37109-2.3008-1.6094-2.3008-3.0156 0-1.625 1.2695-2.9922 2.8867-3.1133 0.59375-0.042969 1.1133-0.42188 1.332-0.97656 0.22266-0.55469 0.10938-1.1836-0.28906-1.6289-0.51953-0.57422-0.80469-1.3164-0.80469-2.0938 0-1.7227 1.4023-3.125 3.125-3.125 0.77344 0 1.5195 0.28516 2.0938 0.80469 0.44141 0.39844 1.0742 0.51172 1.6289 0.28906 0.55469-0.22266 0.93359-0.73828 0.97656-1.332 0.12109-1.6172 1.4883-2.8867 3.1133-2.8867s2.9922 1.2695 3.1133 2.8867c0.042969 0.59375 0.42188 1.1133 0.97656 1.332 0.55469 0.22266 1.1836 0.10938 1.6289-0.28906 0.57422-0.51953 1.3164-0.80469 2.0938-0.80469 1.2188 0 2.3047 0.70703 2.8164 1.7734-1.6406 2.2734-1.293 5.8047-1.2422 6.2188 0.17969 1.5312 0.75 4.1445 1.3828 6.7734-0.19531 0.39453-0.21484 0.85547-0.050781 1.2695 0.14453 0.36719 0.21875 0.75391 0.21875 1.1523 0 1.7227-1.4023 3.125-3.125 3.125-0.77344 0-1.5195-0.28516-2.0938-0.80469-0.44141-0.39844-1.0742-0.51172-1.6289-0.28906-0.55469 0.22266-0.93359 0.73828-0.97656 1.332-0.12109 1.6172-1.4883 2.8867-3.1133 2.8867s-2.9922-1.2695-3.1133-2.8867zm10.352 15.387h-7.0547l0.78125-1.5625h5.2852c0.46875 0 0.91406-0.21094 1.2109-0.57422l8.1836-10.004c0.003907-0.003906 0.007813-0.007813 0.011719-0.011719l5.2734-6.4453 5.6328 1.1289v1.1211l-4.4453 3.7617c-0.003907 0.003907-0.007813 0.007813-0.011719 0.007813zm5.0312-0.16016 3.0391-2.5703 0.10938 0.47266zm5.3906 0.16016 0.39453-0.26172c0.54297-0.36328 0.80469-1.0234 0.65625-1.6562l-0.72266-3.0781 1.4805-1.2539h1.4219l0.78125 6.25zm15.152-1.5625c-3.582 0-6.1914-4.8711-7.832-9.3555l4.1523-3.5117c0.35156-0.29687 0.55469-0.73437 0.55469-1.1914v-1.6055c6.8359 8.5742 7.7031 10.633 7.8125 11.043-0.035156 2.5508-2.125 4.6211-4.6875 4.6211zm-3.125-20.645v-10.605c0-0.86328-0.69922-1.5625-1.5625-1.5625s-1.5625 0.69922-1.5625 1.5625v12.156l-4.6875-0.9375v-9.4102-0.003906-1.8047c0-0.86328-0.69922-1.5625-1.5625-1.5625-0.26562 0-0.51562 0.066406-0.73438 0.18359l-0.5625-0.5625c0.17188-0.62109 0.23828-1.2539 0.30469-1.8672 0.10938-1.0273 0.21094-2.0039 0.80078-2.9805 0.31641-0.11328 0.62891-0.24219 0.9375-0.39063 1.168-0.56641 2.1875-1.3477 3.0117-2.3047 1.7227-0.31641 3.4297 0.13672 4.5078 1.2188 6.3711 6.3711 8.2422 19.594 8.7461 28.695-1.6133-2.2617-4.0312-5.4062-7.6367-9.8242zm-16.777-34.676c0.85547-0.41406 1.7695-0.625 2.7109-0.625 2.3867 0 4.5977 1.3867 5.6328 3.5352l1.3594 2.8125c0.61719 1.2812 0.77734 2.7031 0.47266 4.0703l-1.7148-0.83594c0.19922-0.92969 0.28516-2.1719-0.21094-3.3516-0.34375-0.82031-1.1133-1.9258-2.8242-2.5312-0.92188-0.32812-1.8438-0.21484-2.5898 0.3125-0.16406 0.11719-0.31641 0.25-0.45312 0.39844-0.20312-0.35156-0.53906-0.61328-0.9375-0.72266-0.49219-0.13672-1.0195-0.023438-1.4141 0.30469-1.0312 0.85547-1.3516 1.6602-1.5469 2.1406-0.015625 0.042969-0.039062 0.09375-0.054687 0.13672-0.66406 0.42969-1.2969 0.66797-1.9141 0.73047-0.19922-1.668 0.27734-3.3867 1.3789-4.7227 0.011718-0.015625 0.023437-0.03125 0.039062-0.042969 0.56641-0.67969 1.2617-1.2188 2.0664-1.6094zm-6.6602-2.4922c0 0.54688 0.09375 1.0703 0.26562 1.5625h-19.285c0.17188-0.48828 0.26953-1.0156 0.26953-1.5625 0-2.3242-1.7031-4.2617-3.9258-4.625-0.011719-0.019531-0.023438-0.039062-0.039063-0.0625h26.68c-0.011719 0.019531-0.027344 0.039062-0.039063 0.0625-2.2227 0.36328-3.9258 2.3008-3.9258 4.625zm-17.188-7.8125v-1.5625h20.312v1.5625z"/>
</svg>