 <svg version="1.0" xmlns="http://www.w3.org/2000/svg"  width="900.000000pt" height="873.000000pt" viewBox="0 0 900.000000 873.000000"  preserveAspectRatio="xMidYMid meet" fill="currentColor" stroke="none">  <g transform="translate(0.000000,873.000000) scale(0.100000,-0.100000)"> <path d="M5575 8511 c-68 -10 -125 -29 -235 -79 -66 -30 -195 -120 -260 -182 -73 -68 -209 -177 -255 -201 -29 -16 -78 -23 -139 -20 -36 1 -110 74 -145 141 -69 132 -170 200 -401 266 -92 27 -301 27 -385 0 -74 -24 -189 -77 -239 -111 -20 -14 -39 -25 -42 -25 -22 0 -198 -153 -334 -290 -91 -92 -183 -178 -205 -192 -126 -78 -240 -77 -495 5 -183 59 -201 62 -325 62 l-120 0 -95 -48 c-231 -116 -347 -276 -381 -527 -5 -41 -12 -82 -15 -90 -3 -8 -9 -82 -14 -165 -10 -170 -25 -279 -48 -345 -45 -130 -163 -199 -437 -255 -44 -9 -114 -23 -155 -31 -183 -38 -327 -99 -395 -168 -112 -115 -172 -320 -146 -503 34 -240 156 -481 356 -703 72 -80 84 -99 79 -120 -3 -14 -11 -32 -19 -40 -7 -8 -34 -46 -60 -85 -27 -38 -71 -103 -99 -143 -28 -40 -56 -81 -61 -90 -6 -9 -28 -44 -50 -77 -22 -33 -46 -73 -53 -90 -38 -84 -48 -331 -17 -415 9 -25 19 -54 22 -65 11 -38 94 -135 150 -176 63 -47 139 -83 238 -112 61 -18 97 -21 275 -21 210 0 228 2 385 50 95 29 227 88 297 132 237 150 313 182 427 182 133 0 205 -46 360 -230 89 -105 182 -193 238 -223 37 -20 105 -53 153 -73 63 -27 296 -27 390 0 143 41 304 118 411 197 43 33 81 59 84 59 2 0 23 13 47 29 50 33 103 52 122 45 41 -16 119 -180 152 -319 36 -155 40 -309 26 -1025 -10 -538 -18 -687 -47 -846 -8 -45 -15 -91 -15 -102 0 -19 -14 -70 -52 -187 -20 -61 -108 -247 -174 -365 -185 -333 -256 -527 -210 -573 50 -50 832 -80 1501 -57 360 12 381 13 403 33 12 11 22 30 22 42 0 23 -76 154 -156 270 -135 195 -235 352 -271 427 -62 127 -69 148 -113 316 -24 91 -41 308 -46 572 -4 260 -17 431 -50 685 -8 64 -14 194 -14 312 0 203 7 265 47 418 9 33 21 83 29 110 53 205 68 243 116 299 31 35 38 38 84 38 28 0 75 -7 105 -15 30 -8 136 -21 237 -28 278 -19 467 2 780 86 118 32 168 47 197 57 17 5 44 14 60 18 17 5 64 20 105 34 160 56 240 72 287 60 21 -6 24 -10 114 -199 85 -178 160 -277 269 -359 68 -51 86 -61 152 -86 125 -47 257 -12 367 99 31 32 61 69 67 82 49 101 48 100 47 249 -1 100 -6 160 -17 195 -24 77 -21 137 9 165 30 28 116 60 165 60 49 1 188 33 229 54 99 52 190 207 218 373 15 85 -15 228 -66 314 -11 19 -29 52 -41 73 -26 47 -92 135 -175 232 -158 185 -170 203 -219 315 -27 62 9 197 78 294 11 16 26 37 31 47 6 9 31 47 56 85 82 121 113 197 117 288 9 193 -94 329 -348 456 -41 21 -95 45 -120 53 -67 24 -158 54 -220 73 -144 43 -168 57 -128 72 61 23 208 235 254 365 59 172 -83 446 -290 560 -193 107 -501 115 -756 21 -44 -16 -184 -72 -228 -91 -48 -21 -118 -18 -152 6 -16 11 -46 44 -67 72 -40 55 -44 61 -81 129 -100 182 -274 377 -390 437 -53 27 -76 33 -150 36 -48 3 -109 1 -137 -3z m186 -188 c156 -72 292 -219 452 -488 26 -44 52 -87 57 -95 5 -8 19 -33 30 -55 50 -93 82 -103 170 -55 80 43 308 155 355 173 252 99 511 72 710 -75 24 -18 55 -40 68 -50 13 -9 41 -42 62 -73 38 -54 39 -59 40 -143 0 -82 -2 -91 -38 -156 -46 -82 -93 -141 -210 -261 -48 -49 -90 -97 -93 -107 -3 -10 1 -29 8 -44 13 -26 35 -36 188 -80 30 -9 70 -23 88 -30 18 -8 39 -14 47 -14 8 0 29 -6 47 -14 18 -8 69 -29 113 -47 44 -18 102 -46 128 -61 26 -15 50 -28 52 -28 10 0 110 -72 143 -102 88 -83 109 -131 97 -218 -10 -70 -81 -185 -186 -300 -49 -54 -109 -135 -130 -177 -41 -81 -18 -206 65 -348 45 -78 161 -234 196 -265 3 -3 25 -30 50 -60 25 -30 53 -64 63 -75 38 -41 118 -189 132 -243 19 -73 19 -107 -3 -168 -28 -81 -111 -175 -182 -207 -8 -4 -22 -11 -30 -16 -25 -16 -103 -48 -142 -60 -21 -6 -55 -16 -75 -23 -21 -6 -72 -14 -113 -18 -64 -7 -77 -12 -98 -35 -17 -21 -22 -34 -17 -54 4 -14 10 -46 15 -71 8 -49 23 -114 48 -203 8 -32 16 -93 16 -135 1 -64 -3 -82 -21 -108 -42 -59 -153 -90 -260 -74 -228 36 -269 48 -307 92 -34 39 -94 154 -151 287 -75 177 -79 181 -165 157 -60 -17 -166 -48 -245 -72 -27 -8 -66 -19 -85 -24 -19 -5 -66 -18 -105 -29 -38 -12 -88 -25 -110 -30 -62 -13 -135 -31 -191 -47 -28 -8 -62 -14 -75 -14 -13 0 -57 -6 -99 -14 -119 -23 -265 -36 -400 -36 -176 1 -417 32 -513 66 -49 18 -92 18 -110 -1 -16 -15 -31 -58 -62 -175 -17 -62 -27 -99 -60 -217 -117 -416 -140 -590 -115 -893 35 -424 40 -503 40 -575 -1 -152 41 -550 76 -735 38 -200 123 -436 179 -500 14 -16 114 -159 179 -255 61 -90 78 -128 74 -166 l-3 -34 -220 -8 c-273 -10 -1112 -1 -1179 13 -27 6 -66 18 -85 28 -34 16 -36 20 -39 75 -3 56 1 66 96 260 114 230 151 309 182 387 12 30 27 69 35 85 25 59 65 191 89 295 59 256 91 1128 58 1570 -26 355 -67 523 -166 680 -33 53 -98 114 -139 131 -58 24 -156 -32 -317 -181 -75 -69 -204 -137 -320 -169 -129 -35 -248 -53 -298 -46 -183 26 -296 107 -467 335 -97 129 -136 172 -198 217 -146 107 -287 86 -532 -79 -49 -34 -92 -64 -95 -68 -3 -3 -45 -35 -95 -71 -143 -103 -223 -138 -398 -173 -90 -19 -301 -21 -377 -5 -45 10 -57 19 -119 89 -230 261 -287 490 -173 700 34 62 127 172 274 326 46 48 68 80 68 95 -1 17 -37 61 -117 144 -167 173 -242 276 -325 447 -15 32 -28 65 -28 73 0 9 -6 28 -14 43 -12 24 -29 140 -29 197 0 62 25 159 55 214 18 34 39 73 46 86 19 36 121 118 186 149 32 15 86 32 120 37 149 22 205 28 266 29 70 0 176 25 251 58 43 19 64 35 135 102 40 39 81 124 104 218 19 79 50 347 50 437 1 57 30 210 53 271 58 157 200 283 381 339 94 28 218 8 336 -56 38 -20 149 -73 195 -92 41 -17 71 -21 160 -20 105 0 113 1 170 33 94 51 163 109 307 257 273 280 296 300 403 351 184 87 346 98 510 35 139 -53 262 -166 330 -302 55 -108 130 -161 230 -161 92 0 168 51 350 235 165 166 261 237 388 285 82 31 221 23 308 -17z"/> <path d="M3594 7579 c-20 -22 -85 -59 -104 -59 -23 0 -106 -63 -136 -103 -35 -48 -64 -132 -64 -187 0 -93 64 -218 140 -272 69 -51 124 -68 215 -68 170 0 327 91 403 235 22 43 26 63 27 136 0 78 -3 89 -29 129 -68 103 -169 165 -321 196 -93 19 -108 18 -131 -7z m219 -149 c56 -27 68 -37 105 -89 26 -36 32 -53 32 -96 0 -43 -6 -60 -32 -96 -37 -52 -49 -62 -103 -88 -69 -32 -164 -53 -211 -46 -46 7 -115 48 -140 83 -19 27 -44 108 -44 144 0 45 30 107 64 131 44 31 91 46 166 54 36 3 72 9 80 14 23 13 36 11 83 -11z"/> <path d="M5386 7528 c-35 -50 -6 -91 107 -148 103 -53 187 -202 187 -332 0 -125 -88 -275 -195 -335 -33 -18 -74 -33 -90 -33 -17 0 -44 -4 -61 -9 -40 -11 -144 8 -199 36 -56 30 -98 77 -136 153 -29 58 -32 73 -32 156 0 85 3 95 29 135 54 80 139 120 274 128 l85 6 3 38 c5 64 -15 77 -117 77 -137 0 -253 -57 -321 -161 -56 -83 -70 -131 -70 -240 0 -225 124 -386 348 -450 82 -23 136 -24 221 -3 120 30 216 92 284 183 53 71 63 89 86 154 62 172 16 375 -116 513 -61 64 -84 80 -172 126 -66 34 -95 35 -115 6z"/> <path d="M7062 6867 c-26 -27 -28 -55 -7 -83 26 -34 18 -44 -33 -44 -26 0 -74 -7 -105 -15 -32 -8 -65 -15 -73 -15 -8 0 -49 -16 -90 -37 -128 -62 -216 -158 -265 -288 -17 -47 -20 -73 -17 -158 3 -89 7 -110 32 -160 56 -111 132 -165 244 -174 223 -17 441 120 527 332 25 60 30 87 33 187 5 150 -21 250 -96 365 -72 112 -109 134 -150 90z m110 -317 c22 -79 23 -118 3 -195 -22 -86 -44 -133 -87 -189 -77 -98 -172 -146 -293 -146 -67 0 -77 3 -117 33 -64 48 -90 106 -85 187 11 189 141 324 342 359 70 12 149 19 194 17 21 -1 27 -10 43 -66z"/> <path d="M5070 6425 c-7 -9 -14 -31 -15 -49 -3 -45 -11 -56 -43 -56 -97 0 -223 -101 -282 -225 -30 -65 -33 -77 -33 -175 0 -91 3 -112 25 -160 71 -154 192 -228 374 -230 139 -1 238 39 343 136 113 105 165 234 159 392 -3 83 -8 105 -33 156 -51 100 -126 163 -250 208 -65 24 -226 26 -245 3z m212 -134 c51 -12 114 -67 146 -126 23 -44 26 -61 27 -145 0 -99 -11 -134 -59 -205 -70 -100 -182 -155 -315 -155 -59 0 -78 5 -133 33 -56 30 -67 41 -95 96 -28 54 -33 73 -33 135 0 63 5 82 32 135 52 102 124 141 259 141 69 0 80 2 93 22 9 12 16 35 16 50 0 30 6 32 62 19z"/> <path d="M3647 6356 c-22 -22 -46 -36 -61 -36 -29 0 -102 -30 -214 -89 -43 -22 -186 -172 -210 -219 -32 -61 -31 -159 2 -210 46 -73 134 -135 252 -178 84 -30 247 -34 316 -8 131 50 223 123 273 216 56 107 62 246 14 341 -52 101 -185 199 -290 213 -43 6 -48 4 -82 -30z m193 -163 c59 -49 80 -95 80 -172 0 -86 -23 -142 -82 -196 -55 -51 -77 -63 -157 -86 -82 -24 -127 -24 -217 0 -178 48 -246 140 -175 237 105 144 288 238 473 243 37 1 53 -5 78 -26z"/> <path d="M1992 5529 c-11 -4 -27 -20 -35 -36 -24 -44 -6 -67 67 -88 172 -48 238 -127 222 -265 -9 -72 -37 -128 -99 -196 -90 -99 -192 -133 -301 -102 -181 52 -217 228 -76 369 46 47 65 58 109 68 77 16 91 26 91 65 0 26 -7 38 -27 51 -81 53 -253 -39 -327 -175 -30 -54 -66 -170 -66 -209 0 -58 35 -134 85 -186 67 -69 147 -105 271 -121 114 -14 273 64 360 179 169 225 143 470 -63 588 -63 36 -181 69 -211 58z"/> <path d="M7130 5185 c-13 -35 -32 -40 -88 -24 -83 23 -194 10 -278 -34 -32 -17 -102 -87 -126 -127 -58 -96 -65 -269 -14 -374 54 -112 181 -216 321 -265 236 -83 525 91 584 352 30 132 -10 250 -124 362 -119 117 -252 170 -275 110z m-28 -175 c26 -11 50 -25 53 -30 3 -6 24 -10 46 -10 33 0 41 4 49 25 13 35 30 31 77 -17 63 -66 77 -100 76 -193 0 -64 -5 -89 -24 -125 -28 -54 -92 -120 -140 -144 -43 -22 -131 -46 -170 -46 -65 0 -157 31 -221 74 -63 42 -138 178 -138 250 0 16 7 56 16 88 19 67 74 131 126 147 52 17 196 6 250 -19z"/> <path d="M5593 5175 c-13 -9 -23 -28 -25 -48 -3 -31 -5 -32 -58 -38 -117 -12 -196 -59 -259 -152 -63 -92 -87 -185 -77 -305 11 -139 74 -229 208 -298 41 -21 61 -24 146 -24 99 0 156 13 242 56 51 26 145 123 169 176 38 83 38 228 0 328 -38 99 -146 227 -245 290 -54 34 -70 36 -101 15z m56 -140 c46 -23 127 -120 160 -190 26 -55 31 -77 31 -140 0 -87 -18 -132 -72 -180 -89 -81 -236 -117 -323 -81 -55 23 -102 64 -126 109 -31 59 -30 182 1 251 44 97 144 166 241 166 30 0 49 23 49 59 0 25 3 25 39 6z"/> <path d="M3551 5054 c-19 -14 -22 -24 -19 -61 l3 -44 -50 -21 c-92 -37 -117 -53 -181 -112 -108 -98 -164 -218 -164 -352 0 -175 95 -274 264 -274 121 0 225 49 330 154 70 70 112 142 132 224 46 194 -27 377 -183 459 -77 41 -104 46 -132 27z m117 -175 c13 -11 34 -39 49 -61 22 -36 25 -53 26 -127 0 -67 -5 -97 -22 -136 -31 -70 -95 -151 -144 -182 -46 -29 -145 -63 -184 -63 -70 0 -133 68 -133 143 0 37 29 137 53 184 36 69 127 139 220 171 68 23 87 38 87 68 0 29 19 31 48 3z"/> </g> </svg> 