

 <svg version="1.0" xmlns="http://www.w3.org/2000/svg"  width="900.000000pt" height="1095.000000pt" viewBox="0 0 900.000000 1095.000000"  preserveAspectRatio="xMidYMid meet"  fill="currentColor" stroke="none">  <g transform="translate(0.000000,1095.000000) scale(0.100000,-0.100000)"> <path d="M6745 10644 c-43 -11 -197 -85 -295 -142 -204 -120 -350 -239 -579 -471 -239 -242 -368 -410 -578 -753 -95 -156 -293 -545 -293 -577 0 -5 -12 -35 -26 -67 -27 -61 -110 -314 -138 -419 -73 -282 -107 -606 -87 -846 16 -194 47 -350 87 -447 8 -18 14 -40 14 -48 0 -9 6 -28 14 -42 78 -147 87 -188 61 -262 -21 -59 -20 -251 1 -313 9 -26 14 -53 11 -61 -3 -7 -36 -29 -74 -48 -38 -19 -96 -50 -128 -68 -33 -18 -85 -46 -115 -63 -116 -63 -362 -215 -520 -321 -138 -92 -419 -289 -455 -319 -5 -4 -55 -42 -110 -83 -122 -92 -204 -153 -224 -170 -17 -13 -130 -102 -272 -214 -149 -116 -393 -310 -439 -348 -25 -21 -74 -60 -110 -87 -36 -27 -83 -64 -105 -82 -22 -19 -44 -37 -50 -41 -40 -30 -169 -131 -259 -202 -60 -47 -120 -94 -135 -105 -15 -11 -60 -47 -100 -80 -41 -33 -90 -73 -111 -90 -21 -16 -70 -57 -110 -90 -40 -33 -90 -73 -110 -90 -21 -16 -107 -88 -191 -160 -85 -71 -194 -163 -244 -204 -49 -42 -94 -81 -100 -87 -5 -7 -32 -29 -60 -49 -27 -21 -52 -41 -55 -44 -3 -4 -42 -35 -86 -69 -45 -34 -123 -103 -173 -153 -136 -138 -191 -231 -191 -328 0 -71 30 -111 103 -135 55 -18 60 -18 102 -1 54 20 90 65 98 120 4 22 14 46 24 53 10 7 50 36 88 64 39 28 149 130 245 227 168 169 249 243 395 361 37 30 87 71 110 90 23 19 73 60 110 90 37 30 87 71 110 90 23 19 73 60 110 90 38 30 82 67 99 81 33 28 320 256 502 400 60 47 191 148 292 225 100 76 197 150 215 164 65 50 342 266 420 328 105 84 540 410 647 486 231 163 622 414 700 449 8 4 31 17 50 28 73 45 282 149 298 149 10 0 33 -11 52 -24 57 -38 206 -96 249 -96 49 0 54 -17 48 -153 -13 -299 -91 -796 -192 -1232 -30 -130 -47 -202 -61 -257 -8 -32 -20 -84 -28 -115 -8 -32 -22 -87 -32 -123 -9 -36 -22 -87 -30 -115 -67 -259 -75 -287 -86 -325 -6 -19 -15 -51 -18 -70 -4 -19 -18 -71 -30 -115 -12 -44 -26 -96 -30 -115 -7 -34 -46 -190 -75 -300 -8 -30 -22 -91 -30 -135 -9 -44 -23 -105 -30 -135 -8 -30 -21 -93 -30 -140 -9 -47 -23 -114 -30 -150 -16 -76 -41 -205 -62 -310 -8 -41 -20 -104 -28 -140 -7 -36 -21 -103 -30 -150 -9 -47 -23 -114 -31 -150 -7 -36 -21 -99 -29 -140 -62 -293 -162 -686 -211 -823 -25 -69 -11 -124 42 -166 52 -41 142 -36 186 10 26 26 65 146 133 399 10 36 23 85 30 110 7 25 20 79 29 120 9 41 23 100 31 130 7 30 21 89 30 130 9 41 22 102 30 135 7 33 21 98 30 145 9 47 23 112 30 145 8 33 21 98 30 145 9 47 23 114 30 150 8 36 21 103 30 150 9 47 23 117 31 155 9 39 22 102 30 140 8 39 21 104 30 145 34 162 117 518 151 645 8 33 21 83 29 110 7 28 20 79 30 115 38 146 43 168 59 230 9 36 22 88 30 115 21 76 66 255 75 300 7 38 15 72 46 195 7 30 21 91 29 135 9 44 23 107 30 140 13 57 29 142 60 320 36 208 71 504 81 685 6 132 14 160 42 160 59 0 260 93 341 159 59 47 64 49 173 66 245 38 427 101 653 225 339 187 707 528 917 850 94 145 193 332 248 470 12 30 26 66 32 80 6 14 21 57 33 95 13 39 28 81 33 95 9 23 24 77 57 210 35 138 67 318 91 510 24 192 24 757 0 955 -23 183 -21 175 -53 213 -23 27 -38 35 -74 39 -94 11 -116 -6 -255 -202 -112 -156 -189 -266 -199 -283 -5 -9 -22 -33 -36 -52 -32 -42 -126 -181 -354 -520 -94 -140 -191 -283 -216 -318 -24 -35 -51 -74 -59 -87 -20 -32 -104 -152 -161 -228 -25 -34 -66 -90 -90 -125 -77 -110 -89 -126 -147 -201 -237 -305 -408 -506 -572 -674 l-106 -107 -47 17 c-30 11 -47 23 -47 34 0 15 10 40 66 166 19 42 23 52 83 203 23 58 46 114 50 125 5 11 16 40 24 65 8 25 29 83 45 130 69 199 161 513 226 775 8 33 21 87 30 120 8 33 22 92 31 130 9 39 22 95 29 125 8 30 21 91 31 135 9 44 23 103 31 131 8 28 14 59 14 69 0 10 6 41 14 69 8 28 22 87 31 131 9 44 23 105 30 135 7 30 21 91 31 135 9 44 23 100 30 124 8 25 14 53 14 64 0 11 6 43 14 71 8 28 22 79 30 114 9 34 23 89 31 122 30 121 48 186 61 229 26 83 14 139 -38 188 -23 22 -86 36 -123 27z m-258 -536 c-9 -35 -23 -106 -32 -158 -34 -210 -45 -280 -60 -390 -17 -117 -36 -226 -60 -335 -31 -141 -47 -214 -61 -272 -8 -35 -21 -93 -30 -130 -8 -38 -22 -95 -30 -128 -9 -33 -22 -87 -31 -120 -8 -33 -21 -82 -28 -110 -8 -27 -21 -79 -31 -115 -9 -36 -22 -83 -29 -105 -7 -22 -20 -67 -30 -100 -33 -112 -77 -250 -90 -280 -7 -17 -16 -45 -19 -62 -4 -18 -12 -35 -17 -38 -5 -4 -9 -15 -9 -25 0 -11 -7 -34 -15 -52 -8 -18 -32 -78 -53 -133 -57 -146 -110 -268 -162 -370 l-45 -90 -105 -16 c-143 -21 -255 -63 -357 -132 -24 -16 -49 -27 -56 -24 -15 6 -70 175 -93 287 -13 64 -17 134 -17 285 0 201 13 326 49 470 68 268 82 311 184 554 94 225 212 445 400 746 63 101 254 356 371 495 177 210 436 447 462 421 6 -6 4 -33 -6 -73z m1633 -1049 c0 -296 -40 -637 -105 -891 -8 -32 -22 -86 -31 -120 -9 -35 -22 -78 -30 -96 -8 -18 -14 -39 -14 -47 0 -8 -6 -29 -14 -47 -8 -18 -21 -51 -29 -73 -152 -404 -339 -680 -642 -950 -104 -92 -296 -233 -376 -276 -229 -122 -455 -207 -480 -182 -6 6 -5 38 1 82 5 40 8 82 6 94 -18 94 -34 148 -53 182 -12 22 -31 56 -42 75 l-19 36 60 64 c34 36 97 106 141 155 45 50 86 95 92 101 5 6 28 33 50 59 22 27 54 65 70 84 105 125 485 622 485 636 0 2 20 31 44 62 23 32 74 103 111 158 38 55 89 129 113 165 25 36 102 148 170 250 190 281 332 489 370 545 20 28 45 64 56 80 35 51 48 65 57 59 5 -3 9 -95 9 -205z m-2239 -2279 c105 -36 147 -66 196 -137 38 -55 38 -56 38 -152 0 -107 -17 -152 -64 -170 -36 -14 -53 -30 -75 -71 -22 -40 -64 -79 -86 -80 -9 0 -20 -4 -25 -9 -6 -5 -44 -19 -85 -32 -101 -31 -289 -33 -365 -4 -147 56 -235 170 -235 306 1 70 84 221 150 272 52 39 165 87 230 98 75 13 261 1 321 -21z"/> </g> </svg> 