<svg xmlns="http://www.w3.org/2000/svg" xmlns:xlink="http://www.w3.org/1999/xlink" version="1.1" x="0px" y="0px" viewBox="0 0 96 120" enable-background="new 0 0 96 96" xml:space="preserve" fill="currentColor" stroke="currentColor"><g><path d="M70.938,78.816c1.381-1.902,1.255-4.062,1.132-6.337c-0.226-4.2-0.992-7.791-0.278-12.011   c1.261-7.462,4.009-15.22,2.224-22.817c-0.076-0.325-0.452-0.533-0.769-0.437c-0.911,0.279-1.821,0.536-2.729,0.775   c-0.01-0.047-0.01-0.093-0.031-0.141c-2.027-4.617-5.07-9.202-8.641-3.786c-0.195-0.175-0.393-0.324-0.59-0.458   c0.578-2.152,1.277-4.519,1.531-6.866C72.95,28.324,80.037,17.162,79.933,8c-0.006-0.51-0.518-0.73-0.94-0.54   c-4.016,1.812-8.408,1.607-12.467,3.127c-3.573,1.338-5.028,4.914-5.849,8.37c-0.97-0.789-2.241-1.267-3.35-1.698   c-3.74-1.455-7.722-1.665-11.336-3.558c-0.351-0.184-0.813-0.031-0.918,0.374c-2.226,8.651,11.788,8.737,16.62,11.483   c-0.155,2.636-1.022,5.468-1.576,7.475c-1.352-0.398-2.725,0.099-4.148,1.422c-0.654,0.608-1.635,0.396-2.468,0.93   c-1.224,0.784-1.968,2.511-2.604,3.844c-0.987-0.17-1.979-0.374-2.975-0.626c-0.399-0.101-0.782,0.191-0.791,0.603   c-0.098,4.634,1.374,9.056,0.716,13.704c-0.001,0.003,0.001,0.006,0.001,0.009c-0.01,0.051-0.027,0.098-0.023,0.157   c0.378,6.657,3.646,14.171-4.391,17.341c-6.746,2.66-14.164,0.257-21.141,1.472c-5.309,0.925-6.213,5.39-6.229,10.113   c-0.021,6.09,3.922,6.802,9.223,6.553c8.347-0.393,16.74-1.09,24.959-2.631c4.607-0.864,9.168-2.105,13.665-3.419   C66.211,81.832,69.457,80.856,70.938,78.816z M69.236,11.105c3.227-0.707,6.357-0.999,9.428-2.177   c-0.365,8.196-6.663,18.132-15.791,16.563c0.014-0.424,0.014-0.846-0.013-1.265c0.139-0.034,0.265-0.13,0.345-0.31   c1.008-2.257,2.499-4.199,4.408-5.767c0.624-0.513-0.266-1.392-0.883-0.885c-1.724,1.414-3.116,3.164-4.145,5.132   c-0.188-0.779-0.471-1.54-0.883-2.269c-0.002-0.004-0.006-0.007-0.008-0.012C62.678,15.524,64.394,12.166,69.236,11.105z    M46.143,15.141c4.092,1.888,8.678,2.178,12.74,4.148c1.968,0.955,2.699,2.783,2.814,4.879   C57.051,22.096,45.39,21.405,46.143,15.141z M55.415,36.277c0.237,0.109,0.571,0.132,0.757-0.098   c1.076-1.783,2.861-2.015,5.357-0.692c0.274,0.298,0.785,0.21,0.982-0.127c3.124-5.368,5.577,0.117,6.813,2.933   c-5.691,1.389-11.35,1.93-17.139,1.132C52.893,37.988,54.162,35.696,55.415,36.277z M41.155,86.082   c-4.038,0.5-8.1,0.534-12.146,0.897c-3.621,0.326-10.279,1.867-11.483-2.907c-1.146-4.543,0.28-9.724,5.099-10.979   c1.456-0.379,2.994-0.512,4.557-0.525c-3.004,1.077-4.426,4.081-5.969,6.889c-0.389,0.707,0.69,1.337,1.078,0.631   c1.497-2.723,2.898-6.197,6.395-6.625c0.462-0.057,0.648-0.506,0.57-0.852c2.032,0.089,4.066,0.286,5.98,0.333   c4.79,0.118,10.66-0.882,13.727-4.915c2.875-3.781,0.347-10.808,0.111-14.954c0-0.005-0.003-0.009-0.004-0.014   c0.488-3.7-0.154-7.066-0.622-10.748c-0.265-2.089,0.932-2.172,2.37-1.897c0.184,0.175,0.449,0.245,0.672,0.143   c0.558,0.131,1.122,0.275,1.631,0.35c2.474,0.359,4.977,0.302,7.463,0.18c1.55-0.077,12.406-2.34,12.504-1.921   c1.148,4.883-0.383,10.466-1.358,15.251c-0.66,3.239-1.351,6.463-1.715,9.752c-0.383,3.452,0.864,7.232,0.878,10.727   c0.021,5.571-8.061,6.639-12.208,7.741C52.9,84.175,47.098,85.347,41.155,86.082z"/><path d="M56.455,21.369c1.129,0.738,2.34,1.341,3.468,2.081c0.677,0.443,1.302-0.64,0.631-1.08   c-1.128-0.739-2.339-1.342-3.468-2.081C56.409,19.847,55.783,20.93,56.455,21.369z"/><path d="M54.313,58.081c-0.645-0.485-1.266,0.601-0.631,1.08c1.531,1.153,3.017,2.369,4.381,3.718   c0.573,0.566,1.457-0.317,0.883-0.885C57.506,60.57,55.929,59.299,54.313,58.081z"/></g></svg>