<svg xmlns="http://www.w3.org/2000/svg" xmlns:xlink="http://www.w3.org/1999/xlink" version="1.1" x="0px" y="0px" viewBox="0 0 96 120" enable-background="new 0 0 96 96" xml:space="preserve" fill="currentColor" stroke="currentColor"><g><g><g><path d="M40.864,47.199c-2.739-5.181,2.61-9.514,7.559-8.473c3.732,0.786,6.229,5.469,6.194,8.895     c-0.071,7.075-9.097,10.461-14.874,9.365c-12.481-2.365-13.168-21.388-3.015-26.793c12.662-6.742,26.979,8.138,29.777,19.344     c3.802,15.222-11.999,24.81-24.855,25.986c-12.433,1.139-24.281-5.116-30.073-16.149c-7.113-13.552,0.908-25.621,12.421-33.136     c4.11-2.684,9.453-5.472,14.437-5.847c3.817-0.287,7.888,0.664,11.627,1.271c7.34,1.19,15.058,2.326,22.143,4.655     c0.768,0.253,1.095-0.955,0.332-1.205c-7.095-2.332-14.799-3.428-22.142-4.656c-7.233-1.209-13.056-1.992-19.972,1.017     C21.786,25.23,12.424,31.786,8.915,40.941c-3.441,8.98-0.047,18.44,5.937,25.527C27.164,81.056,53.909,80.32,64.869,64.57     c11.081-15.925-7.446-39.744-25.297-36.64c-19.652,3.418-10.883,37.485,8.774,29.328c7.669-3.182,9.771-11.822,3.845-17.628     c-5.819-5.699-16.481,0.492-12.407,8.199C40.161,48.543,41.24,47.911,40.864,47.199L40.864,47.199z"/></g></g><g><g><path d="M72.556,19.912c-0.87,4.154-1.08,8.271-0.451,12.477c0.119,0.795,1.323,0.456,1.205-0.332     c-0.595-3.98-0.373-7.879,0.451-11.813C73.926,19.458,72.721,19.123,72.556,19.912L72.556,19.912z"/></g></g><g><g><path d="M72.789,23.155c2.572-0.505,5.586,1.729,7.741,2.885c0.992,0.531,2,1.072,3.051,1.478     c0.511,0.197,1.011,0.366,1.54,0.504c0.159,0.041-0.177,2.137-0.198,2.236c0.306-0.125,0.612-0.249,0.918-0.374     c-1.617-1.2-3.459-1.204-5.394-0.957c-2.346,0.3-5.466,1.673-7.648,0.282c-0.682-0.434-1.309,0.648-0.631,1.08     c4.004,2.55,9.128-2.231,13.042,0.675c0.318,0.236,0.837-0.008,0.918-0.374c0.226-1.02,0.244-2.048,0.248-3.09     c0.001-0.258-0.189-0.556-0.459-0.603c-4.491-0.785-8.701-5.881-13.46-4.947C71.666,22.105,72.002,23.31,72.789,23.155     L72.789,23.155z"/></g></g><g><g><path d="M85.983,33.58c-1.346,1.737-2.104,4.104-2.315,6.267c-0.178,1.819,0.885,4.032,3.054,3.602     c3.632-0.721,1.459-7.771,0.244-9.741c-0.423-0.685-1.504-0.058-1.08,0.631c1.089,1.765,2.215,5.605,1.159,7.53     c-0.4,0.731-1.495,0.291-1.853-0.221c-0.507-0.727-0.288-1.926-0.143-2.721c0.276-1.503,0.87-3.24,1.818-4.462     C87.355,33.836,86.478,32.944,85.983,33.58L85.983,33.58z"/></g></g><g><g><path d="M84.699,51.621c-0.597,1.882-0.904,3.893-1.156,5.845c-0.18,1.393-0.66,4.045,0.76,4.993     c1.777,1.188,3.304-2.276,3.499-3.405c0.414-2.395-0.111-6.032-2.058-7.709c-0.607-0.522-1.496,0.357-0.885,0.885     c1.626,1.399,1.885,4.252,1.763,6.239c-0.071,1.156-1.803,4.381-1.982,1.746c-0.181-2.663,0.461-5.723,1.265-8.262     C86.148,51.183,84.941,50.855,84.699,51.621L84.699,51.621z"/></g></g></g></svg>