<svg xmlns="http://www.w3.org/2000/svg" xmlns:xlink="http://www.w3.org/1999/xlink" version="1.1" x="0px" y="0px" viewBox="0 0 96 120" enable-background="new 0 0 96 96" xml:space="preserve" fill="currentColor" stroke="currentColor"><g><g><g><path d="M8.896,33.038c6.468-1.418,13.114-1.482,19.702-1.795c7.428-0.353,14.79-1.436,22.224-1.793     c7.745-0.372,15.526-0.376,23.278-0.293c3.671,0.039,7.342,0.359,11.005,0.576c2.234,0.132,1.458,9.034,0.391,9.11     c-6.096,0.433-12.302-0.397-18.442-0.078c-7.524,0.391-14.845,0.208-22.354-0.337c-7.498-0.545-14.997-1.008-22.514-1.156     c-3.673-0.072-7.35-0.018-11.019,0.165c0.268-0.013-2.516,0.525-2.519,0.261c-0.019-1.518,0.626-3.339,0.916-4.865     c0.149-0.788-1.055-1.124-1.205-0.332c-0.409,2.155-0.973,4.193-0.946,6.399c0.005,0.384,0.399,0.74,0.791,0.603     c5.879-2.056,13.447-1.041,19.606-0.827c6.88,0.239,13.75,0.772,20.615,1.273c6.874,0.502,13.619,0.326,20.495-0.031     c6.034-0.314,12.06,0.496,18.07,0.069c0.315-0.022,0.656-0.268,0.625-0.625c-0.299-3.39,0.095-6.762,0-10.158     c-0.01-0.354-0.277-0.607-0.625-0.625c-14.021-0.715-27.987-0.974-42.013-0.046c-6.633,0.439-13.195,1.325-19.844,1.619     c-5.561,0.245-11.117,0.486-16.569,1.682C7.776,32.005,8.11,33.21,8.896,33.038L8.896,33.038z"/></g></g><g><g><path d="M10.345,66.074c7.565,0.159,14.763-1.87,22.122-3.348c8.954-1.797,18.351-1.584,27.423-1.076     c6.157,0.345,12.236,1.312,18.403,1.419c2.004,0.035,8.017-0.655,8.686,2.012c0.585,2.337,0.569,5.182,0.123,7.538     c-0.504,2.663-18.916,0.878-21.438,0.804c-8.63-0.252-17.271-0.765-25.905-0.47c-7.143,0.244-14.411,0.466-21.533,1.05     c-2.286,0.188-4.78,0.526-6.877,1.488c-1.118,0.513-0.56-9.276-0.402-10.107c0.149-0.787-1.055-1.124-1.205-0.332     c-0.729,3.845-0.734,7.842,0.231,11.645c0.107,0.421,0.563,0.537,0.918,0.374c7.027-3.223,16.066-2.084,23.635-2.588     c9.125-0.607,18.223-0.24,27.352,0.068c7.977,0.271,16.697,1.298,24.621,0.324c2.771-0.34,2.134-5.35,2.039-7.118     c-0.197-3.669-0.668-5.094-4.432-5.627c-5.522-0.781-11.28-0.566-16.85-1.138C58.073,60.049,48.819,59.8,39.611,60.5     c-9.886,0.751-19.28,4.533-29.266,4.323C9.539,64.807,9.541,66.057,10.345,66.074L10.345,66.074z"/></g></g><g><g><path d="M20.897,30.935c0.068-3.54-0.496-7.053-0.225-10.593c0.411-5.364,5.728-9.071,10.975-7.699     c5.848,1.529,5.401,12.668,6.318,17.247c0.158,0.79,1.363,0.455,1.205-0.332c-1.078-5.387-0.649-17.892-8.544-18.389     c-4.292-0.271-8.725,1.727-10.448,5.787c-1.828,4.305-0.444,9.477-0.53,13.98C19.632,31.742,20.882,31.74,20.897,30.935     L20.897,30.935z"/></g></g><g><g><path d="M20.397,37.861c0.391,8.757,2.55,17.345,2.713,26.115c0.015,0.805,1.265,0.807,1.25,0     c-0.163-8.771-2.322-17.359-2.713-26.115C21.612,37.058,20.361,37.055,20.397,37.861L20.397,37.861z"/></g></g><g><g><path d="M23.495,74.414c0.284,3.241,0.761,6.454,1.254,9.669c0.045,0.293,0.348,0.429,0.603,0.459     c5.453,0.647,10.937,0.256,16.326-0.715c0.356-0.064,0.493-0.458,0.437-0.769c-0.568-3.123-1.4-6.188-1.517-9.376     c-0.029-0.804-1.28-0.807-1.25,0c0.083,2.265,0.496,4.454,0.958,6.67c0.102,0.489,0.933,2.289-0.018,2.46     c-1.843,0.332-3.708,0.514-5.571,0.666c-2.75,0.225-5.512,0.18-8.259-0.056c-1.486-0.127-1.594-7.667-1.711-9.009     C24.675,73.617,23.424,73.61,23.495,74.414L23.495,74.414z"/></g></g><g><g><path d="M39.395,61.235c0.425-7.489,0.549-14.993,1.414-22.451c0.093-0.8-1.158-0.791-1.25,0     c-0.865,7.458-0.989,14.961-1.414,22.451C38.099,62.041,39.349,62.037,39.395,61.235L39.395,61.235z"/></g></g><g><g><path d="M61.852,28.619c0.887-6.229-0.09-12.853,7.188-15.327c4.036-1.372,4.691,3.558,4.925,6.305     c0.253,2.972,0.784,5.928,0.856,8.915c0.02,0.805,1.27,0.807,1.25,0c-0.097-3.994-0.514-8.277-1.299-12.197     c-0.496-2.477-1.957-4.438-4.601-4.482c-3.214-0.053-6.408,2.631-7.803,5.324c-1.72,3.321-1.212,7.542-1.723,11.131     C60.535,29.075,61.739,29.415,61.852,28.619L61.852,28.619z"/></g></g><g><g><path d="M61.686,39.816c1.627,6.767,3.977,14.475,2.106,21.397c-0.211,0.779,0.995,1.109,1.205,0.332     c1.927-7.133-0.432-15.1-2.106-22.062C62.703,38.7,61.498,39.033,61.686,39.816L61.686,39.816z"/></g></g><g><g><path d="M63.568,73.99c0.072,2.723,0.575,5.378,0.866,8.08c0.029,0.276,0.169,0.529,0.459,0.603     c3.642,0.925,8.036,1.588,11.626,0.201c3.418-1.319,2.319-5.859,2.266-8.624c-0.016-0.805-1.266-0.807-1.25,0     c0.031,1.601,0.223,3.195,0.17,4.797c-0.102,3.113-3.492,3.301-5.833,3.303c-2.058,0.002-4.132-0.307-6.137-0.753     c-0.772-0.172-0.895-6.75-0.917-7.606C64.796,73.185,63.546,73.183,63.568,73.99L63.568,73.99z"/></g></g><g><g><path d="M76.438,39.13c0.044,4.763-0.106,9.196-0.944,13.909c-0.58,3.258-0.869,6.338,0.072,9.545     c0.227,0.771,1.433,0.443,1.205-0.332c-1.221-4.158-0.061-8.012,0.489-12.164c0.486-3.674,0.462-7.26,0.428-10.958     C77.68,38.325,76.43,38.324,76.438,39.13L76.438,39.13z"/></g></g></g></svg>