<svg xmlns="http://www.w3.org/2000/svg" xmlns:xlink="http://www.w3.org/1999/xlink" version="1.1" x="0px" y="0px" viewBox="0 0 96 120" enable-background="new 0 0 96 96" xml:space="preserve" fill="currentColor" stroke="currentColor"><g><path d="M16.688,72.381c0.092,0.013,0.184,0.025,0.275,0.038c0.788,0.109,1.128-1.095,0.332-1.205   c1.356,0.188,4.115-3.287,5.162-4.146c3.899-3.2,7.754-6.417,11.782-9.46c6.402-4.835,12.391-10.13,19.7-13.575   c0.857,0.723,2.023,1.153,3.266,1.253c0.018,0.001,0.034,0.001,0.052,0.002c-0.229,7.696-2.5,14.988-4.395,22.394   c-1.71,6.682-2.521,13.559-4.58,20.152c-0.241,0.771,0.966,1.099,1.205,0.332c2.229-7.139,3.162-14.611,5.015-21.852   c1.785-6.977,3.797-13.813,4.007-21.055c1.469-0.164,2.847-0.804,3.809-1.837c5.214-0.155,10.483-4.26,13.277-8.41   c3.889-5.778,4.771-13.704,3.816-20.461c-0.085-0.604-0.866-0.52-1.143-0.149c-5.552,7.441-10.062,15.736-16.696,22.315   c-0.045,0.045-0.066,0.094-0.094,0.142c-0.539-0.286-1.137-0.49-1.746-0.618c4.38-8.834,5.457-18.653,8.076-28.075   c0.119-0.428-0.311-0.94-0.769-0.769C57.254,11.074,47.072,29.156,53,39.068c-0.198,0.422-0.357,0.871-0.421,1.374   c-0.13,1.021,0.078,1.892,0.512,2.606c-8.306,3.956-15.287,10.232-22.524,15.8c-3.494,2.688-6.876,5.521-10.234,8.374   c-1.226,1.041-3.754,2.667-4.081,4.39C16.194,71.911,16.331,72.332,16.688,72.381z M78.364,16.396   c0.538,5.736-0.371,11.998-3.188,17.005c-2.248,3.992-7.2,8.068-11.97,8.693c0.196-0.433,0.341-0.9,0.408-1.408   c0.179-1.341-0.309-2.372-1.124-3.119C68.782,31.314,73.2,23.549,78.364,16.396z M62.38,40.447c0,0.682-0.214,1.256-0.561,1.734   c-0.037,0-0.074,0.004-0.11,0.003c-0.45-0.014-0.639,0.368-0.586,0.714c-0.985,0.765-2.381,1.129-3.553,1.149   c-2.072,0.034-3.919-1.163-3.771-3.376c0.024-0.368,0.128-0.696,0.261-1.005c0.229-0.115,0.39-0.341,0.343-0.604   c0.807-1.104,2.288-1.7,3.642-1.735C60.09,37.282,62.38,38.056,62.38,40.447z M61.636,12.704c1.273-1.405,2.762-2.582,4.399-3.528   c-0.729,0.421-1.493,7.17-1.744,8.339c-1.38,6.414-2.87,12.695-5.875,18.567c-0.124-0.004-0.249-0.008-0.371-0.005   c-1.623,0.042-3.224,0.674-4.277,1.813C49.622,29.917,56.398,18.483,61.636,12.704z"/></g></svg>