 <svg version="1.0" xmlns="http://www.w3.org/2000/svg"  width="672.000000pt" height="648.000000pt" viewBox="0 0 672.000000 648.000000"  preserveAspectRatio="xMidYMid meet"  fill="currentColor" stroke="none">  <g transform="translate(0.000000,648.000000) scale(0.100000,-0.100000)"> <path d="M3245 6039 c-229 -8 -381 -21 -509 -43 -49 -9 -148 -19 -220 -22 -72 -4 -165 -13 -206 -20 -41 -8 -145 -21 -230 -29 -85 -9 -186 -24 -225 -34 -86 -24 -112 -28 -245 -41 -58 -5 -140 -21 -183 -35 -43 -14 -88 -25 -100 -25 -32 0 -209 -91 -253 -129 -55 -49 -126 -137 -205 -257 -8 -12 -34 -47 -59 -79 -82 -106 -99 -130 -121 -170 -12 -22 -29 -48 -37 -58 -19 -21 -50 -72 -88 -142 -15 -27 -35 -61 -45 -74 -11 -13 -19 -31 -19 -41 0 -10 -13 -57 -29 -106 -16 -49 -35 -118 -41 -153 -6 -35 -20 -88 -31 -116 -11 -29 -28 -125 -39 -214 -11 -89 -21 -165 -24 -170 -18 -29 -27 -186 -27 -496 -1 -387 4 -469 32 -625 10 -58 23 -159 29 -225 6 -66 20 -151 30 -190 10 -38 28 -155 39 -260 12 -104 25 -206 31 -225 6 -19 17 -73 26 -120 9 -47 23 -98 32 -115 8 -16 23 -61 33 -100 9 -38 26 -92 37 -120 11 -27 30 -79 42 -115 42 -126 65 -187 81 -211 9 -13 24 -45 34 -71 10 -26 24 -53 31 -59 8 -6 23 -30 34 -53 11 -22 28 -52 38 -66 18 -24 72 -107 105 -161 8 -14 47 -45 86 -69 40 -23 80 -53 89 -65 30 -38 165 -150 212 -177 140 -78 205 -105 285 -117 39 -6 98 -22 132 -36 35 -14 69 -25 78 -25 8 0 56 -13 107 -29 70 -22 128 -32 234 -40 78 -6 186 -18 240 -27 157 -24 445 -33 1084 -33 617 -1 1030 11 1090 29 19 6 97 20 172 31 75 11 156 26 180 35 24 8 77 20 118 25 72 10 143 35 300 104 41 18 86 36 100 40 40 11 90 44 172 115 42 36 98 81 124 100 135 101 334 284 334 309 0 6 13 25 28 43 39 45 172 306 172 337 0 7 13 43 29 79 16 37 32 85 35 107 4 22 16 67 26 100 10 33 23 96 30 140 6 44 20 113 31 154 14 55 19 109 19 201 0 69 7 209 16 310 28 323 23 598 -16 980 -35 337 -51 437 -80 503 -10 23 -23 82 -30 131 -7 49 -21 108 -31 131 -10 23 -26 84 -34 136 -27 158 -60 257 -140 414 -42 83 -82 157 -89 165 -7 8 -18 30 -24 47 -6 18 -22 48 -35 65 -14 18 -28 42 -31 54 -8 26 -165 185 -236 239 -55 41 -62 48 -176 153 -38 34 -96 80 -129 101 -33 21 -73 46 -89 57 -110 72 -291 161 -361 178 -33 7 -73 19 -89 25 -17 7 -63 16 -103 21 -48 6 -89 19 -119 36 -29 17 -74 31 -132 39 -48 8 -119 21 -158 29 -163 35 -601 45 -1139 25z m1080 -438 c61 -6 137 -20 170 -31 72 -23 189 -47 271 -56 32 -3 86 -18 119 -33 33 -16 87 -40 120 -55 33 -15 74 -34 90 -43 17 -8 54 -24 83 -34 29 -10 66 -29 83 -41 16 -13 42 -33 57 -45 16 -12 40 -39 54 -60 13 -21 42 -65 64 -98 21 -33 50 -74 64 -91 56 -69 72 -91 103 -138 18 -27 39 -63 48 -80 9 -17 26 -40 38 -50 29 -27 76 -180 96 -315 9 -63 25 -142 35 -175 10 -34 23 -115 30 -181 6 -66 18 -154 26 -195 8 -41 21 -194 29 -340 8 -146 19 -292 24 -325 21 -127 22 -188 11 -534 -18 -596 -29 -792 -46 -861 -8 -36 -22 -101 -30 -144 -9 -44 -28 -105 -44 -135 -16 -31 -32 -69 -36 -86 -4 -16 -17 -48 -29 -70 -13 -22 -28 -58 -35 -80 -7 -22 -23 -53 -35 -70 -12 -16 -25 -39 -29 -50 -7 -23 -79 -86 -205 -178 -50 -36 -112 -79 -155 -105 -15 -9 -45 -28 -65 -41 -84 -55 -256 -114 -446 -151 -22 -4 -125 -13 -230 -19 -104 -7 -248 -19 -320 -27 -104 -13 -214 -15 -545 -12 -228 1 -532 -1 -675 -5 -238 -8 -272 -7 -405 12 -80 12 -235 26 -345 32 -124 7 -215 17 -240 26 -22 8 -67 23 -100 34 -33 11 -71 27 -84 36 -14 9 -47 25 -75 37 -82 34 -268 137 -304 168 -18 15 -37 28 -42 28 -5 0 -17 15 -26 33 -9 17 -23 35 -30 40 -7 4 -18 24 -24 45 -7 20 -25 60 -40 87 -15 28 -32 71 -39 97 -6 26 -22 68 -36 94 -14 26 -25 55 -25 64 0 9 -12 39 -26 66 -31 58 -70 165 -91 249 -9 33 -26 97 -39 142 -13 45 -29 130 -35 190 -6 59 -19 148 -30 197 -11 48 -28 170 -39 270 -11 99 -28 215 -38 256 -15 67 -17 136 -17 620 0 527 1 548 22 625 12 44 29 124 38 178 9 53 23 116 31 139 8 23 19 73 25 112 9 65 38 169 91 331 11 33 30 98 43 145 43 153 121 296 179 327 70 37 209 72 327 83 68 6 155 18 194 26 38 8 131 21 205 29 74 8 188 23 252 34 64 11 228 28 365 36 264 17 347 26 483 51 162 30 936 39 1185 15z"/> <path d="M4880 4949 c-19 -6 -47 -22 -63 -35 -16 -13 -35 -24 -42 -24 -7 0 -28 -19 -47 -42 -30 -38 -33 -50 -36 -118 -6 -118 3 -138 77 -178 57 -31 73 -35 165 -39 l101 -5 62 40 c34 23 74 59 89 81 24 36 26 48 22 115 -3 65 -7 79 -33 111 -17 21 -49 51 -72 68 -36 26 -53 30 -115 33 -40 2 -89 -1 -108 -7z"/> <path d="M3050 4620 c-30 -4 -78 -17 -105 -28 -28 -11 -77 -23 -110 -27 -61 -8 -157 -53 -223 -104 -48 -38 -248 -236 -317 -314 -33 -37 -84 -93 -114 -125 -29 -31 -60 -73 -68 -92 -9 -19 -24 -48 -35 -63 -11 -16 -26 -47 -33 -71 -7 -23 -25 -59 -39 -80 -14 -21 -26 -43 -26 -49 0 -6 -11 -34 -25 -63 -49 -103 -76 -260 -82 -466 -5 -165 -3 -199 16 -285 11 -54 27 -129 35 -168 19 -94 66 -217 107 -286 19 -30 43 -70 54 -88 11 -18 30 -47 42 -65 12 -17 31 -48 43 -68 11 -20 30 -48 42 -61 13 -14 33 -40 46 -58 113 -169 157 -222 227 -274 65 -49 203 -114 263 -125 32 -5 80 -18 107 -29 72 -27 198 -32 463 -21 176 8 240 14 263 26 17 8 69 22 116 30 46 8 106 23 131 33 26 10 78 24 116 30 38 7 90 22 115 35 25 13 56 27 68 30 24 8 100 55 166 103 79 58 166 154 201 220 8 16 22 36 32 44 9 7 39 60 66 116 27 56 53 105 58 108 5 3 16 27 26 53 10 26 28 63 40 82 16 23 28 70 39 140 9 58 24 132 33 165 25 93 22 320 -5 405 -12 36 -28 95 -37 133 -12 55 -98 252 -149 342 -6 11 -19 38 -29 60 -10 22 -25 51 -33 65 -8 14 -27 50 -43 80 -54 104 -84 154 -107 184 -14 17 -39 50 -57 74 -93 121 -234 245 -298 262 -25 7 -63 23 -85 35 -22 13 -62 29 -88 35 -26 5 -65 21 -85 34 -20 14 -64 29 -96 35 -33 6 -80 21 -105 33 -43 21 -60 23 -256 25 -115 1 -235 -2 -265 -7z m507 -370 c63 -8 126 -32 219 -83 147 -81 383 -317 469 -469 113 -200 160 -349 175 -556 19 -259 -8 -424 -95 -577 -13 -22 -26 -51 -30 -65 -4 -14 -16 -37 -27 -52 -10 -15 -24 -42 -30 -60 -22 -64 -139 -227 -198 -277 -75 -63 -197 -118 -287 -130 -105 -15 -393 -16 -473 -2 -99 16 -284 84 -465 171 -33 16 -70 31 -83 35 -32 9 -158 116 -207 175 -73 89 -139 191 -160 251 -7 20 -22 54 -32 75 -31 63 -51 194 -63 412 -11 203 -11 203 16 315 15 62 35 128 45 148 10 20 23 58 30 85 13 51 78 177 131 252 50 72 126 139 174 156 43 14 64 28 137 87 18 14 64 43 102 62 64 33 82 38 185 45 158 12 381 13 467 2z"/> </g> </svg> 