 <!-- <svg version="1.0" xmlns="http://www.w3.org/2000/svg"  width="300.000000pt" height="324.000000pt" viewBox="0 0 300.000000 324.000000"  preserveAspectRatio="xMidYMid meet" fill="currentColor" stroke="none">  <g transform="translate(0.000000,324.000000) scale(0.050000,-0.050000)" > <path d="M2852 6308 c-7 -17 -12 -39 -12 -49 0 -9 205 -163 455 -342 1315 -938 1766 -1434 1925 -2117 125 -536 144 -580 247 -580 230 0 217 548 -22 1030 -405 812 -1231 1520 -2349 2012 -198 87 -226 92 -244 46z"/> <path d="M4155 6288 c-30 -30 -14 -107 30 -137 25 -17 129 -86 232 -154 418 -274 671 -578 929 -1119 177 -371 225 -418 364 -355 213 98 -100 805 -535 1208 -317 294 -942 636 -1020 557z"/> <path d="M1365 6007 c-32 -32 -119 -77 -206 -106 -1430 -482 -1290 -3051 246 -4513 1051 -1000 2847 -1538 3741 -1121 516 240 810 715 789 1273 -10 263 -41 373 -119 419 -30 17 -121 108 -202 201 -597 684 -1051 899 -1470 697 -314 -151 -441 -604 -335 -1197 70 -389 10 -450 -368 -370 -1051 221 -2036 1529 -1779 2362 85 276 186 316 671 265 658 -68 702 -30 481 418 -108 219 -304 477 -636 839 -369 400 -443 489 -572 681 -138 207 -167 225 -241 152z m240 -590 c50 -71 220 -273 376 -448 343 -384 628 -767 594 -800 -3 -4 -74 0 -156 8 l-151 14 -141 150 c-316 334 -428 480 -628 819 -81 138 -185 310 -232 384 l-86 134 94 80 93 80 72 -146 c40 -81 114 -204 165 -275z m-377 -197 c139 -243 365 -577 551 -816 190 -243 182 -216 69 -231 -393 -54 -592 -558 -460 -1165 207 -963 1317 -1966 2212 -2002 460 -19 593 190 490 764 -60 331 -27 628 86 762 219 260 609 75 1248 -592 l235 -244 -11 -93 c-6 -51 -15 -103 -18 -116 -9 -28 -547 248 -756 387 -196 130 -368 281 -474 413 -127 160 -260 147 -172 -16 177 -329 805 -794 1248 -924 139 -41 140 -44 92 -208 -254 -865 -1480 -963 -2937 -235 -1051 525 -1713 1303 -2048 2406 -272 895 -161 1616 324 2116 l157 161 33 -98 c19 -55 77 -175 131 -269z"/> <path d="M2894 5539 c-72 -39 -84 -79 -22 -79 16 0 67 -19 114 -43 607 -309 1487 -1309 1683 -1912 77 -237 357 -214 324 27 -47 339 -336 772 -882 1320 -619 621 -971 821 -1217 687z"/> </g> </svg>  -->

  <svg version="1.0" xmlns="http://www.w3.org/2000/svg"  width="741.000000pt" height="813.000000pt" viewBox="0 0 741.000000 813.000000"  preserveAspectRatio="xMidYMid meet"  fill="currentColor" stroke="none">  <g transform="translate(0.000000,813.000000) scale(0.100000,-0.100000)"> <path d="M1944 7715 c-12 -9 -44 -15 -94 -15 -116 -1 -311 -45 -437 -99 -344 -148 -616 -409 -840 -809 -83 -149 -193 -404 -223 -517 -4 -16 -12 -41 -17 -55 -44 -107 -103 -369 -103 -451 0 -25 -5 -83 -11 -129 -23 -173 21 -618 86 -855 7 -27 21 -79 30 -115 10 -36 23 -81 30 -100 29 -81 37 -107 45 -135 4 -16 12 -41 18 -55 5 -14 18 -45 27 -70 10 -25 23 -58 31 -75 7 -16 22 -55 34 -85 43 -108 227 -486 282 -580 11 -19 32 -57 47 -83 36 -66 36 -66 126 -215 44 -73 85 -141 90 -150 6 -9 42 -64 80 -122 39 -58 72 -109 74 -114 4 -10 117 -178 196 -291 27 -38 67 -97 90 -130 23 -33 68 -96 99 -140 31 -44 87 -122 124 -174 70 -99 456 -614 517 -691 41 -52 105 -128 120 -144 6 -6 42 -47 80 -91 208 -243 545 -550 760 -695 28 -18 68 -46 90 -61 22 -15 58 -37 80 -49 22 -12 56 -31 75 -42 75 -44 249 -127 321 -153 233 -84 371 -117 644 -157 121 -18 599 -18 720 0 211 31 306 52 440 94 73 24 212 90 274 131 71 47 213 196 241 252 14 28 40 67 59 87 l34 37 -6 123 c-8 186 -52 376 -134 588 -28 73 -114 249 -143 295 -11 17 -23 37 -27 45 -7 15 -90 133 -128 180 -46 59 -215 219 -276 262 -67 46 -246 138 -271 138 -7 0 -31 7 -53 14 -83 29 -239 37 -395 21 -80 -8 -168 -19 -195 -24 -47 -9 -116 -20 -346 -56 -137 -21 -344 -20 -439 4 -170 41 -296 128 -416 286 -24 31 -151 237 -299 483 -6 9 -46 70 -90 136 -44 65 -87 129 -95 141 -8 12 -64 96 -125 186 -60 90 -112 168 -115 174 -3 5 -22 36 -43 68 -20 31 -49 79 -63 105 -14 26 -34 61 -44 77 -61 99 -145 270 -195 395 -9 25 -22 56 -27 70 -84 214 -142 526 -119 637 35 169 130 270 485 518 187 130 289 228 337 323 l34 67 -1 155 c0 160 -13 249 -66 440 -11 41 -24 91 -29 110 -5 19 -18 60 -29 90 -12 30 -25 66 -30 80 -18 55 -113 266 -140 310 -5 8 -37 62 -71 120 -34 58 -81 130 -104 160 -69 90 -193 207 -268 252 -125 75 -266 109 -313 73z m-7 -114 c11 -12 50 -27 93 -37 89 -20 127 -39 205 -102 54 -43 192 -207 216 -257 5 -11 25 -47 44 -80 75 -128 213 -436 260 -579 30 -90 55 -213 55 -268 0 -60 -33 -185 -64 -247 -57 -115 -135 -199 -406 -441 -120 -108 -206 -197 -246 -258 -141 -211 -163 -491 -63 -822 27 -89 41 -126 75 -207 8 -18 20 -48 28 -65 21 -52 113 -237 151 -303 18 -33 43 -77 54 -97 11 -21 33 -57 48 -80 15 -24 30 -47 33 -53 13 -25 128 -196 167 -247 24 -31 43 -59 43 -62 0 -3 27 -43 60 -88 108 -150 123 -171 165 -232 35 -52 86 -133 167 -264 9 -15 69 -130 133 -257 130 -256 127 -251 174 -320 38 -56 185 -205 203 -205 6 0 19 -6 27 -14 9 -7 51 -28 95 -45 77 -32 81 -32 205 -28 128 4 143 7 311 59 120 36 158 51 280 107 228 103 313 131 406 131 153 0 317 -80 554 -269 218 -174 340 -322 444 -536 27 -55 52 -108 57 -117 19 -38 70 -190 94 -278 10 -36 24 -87 32 -114 14 -44 14 -52 -1 -83 -9 -18 -16 -46 -16 -61 -1 -27 -24 -99 -50 -157 -23 -48 -97 -141 -143 -178 -160 -128 -348 -195 -642 -228 -229 -26 -634 -7 -900 42 -60 11 -135 24 -165 28 -31 5 -76 14 -100 21 -25 6 -72 18 -105 27 -66 16 -155 43 -225 68 -54 20 -258 121 -280 139 -8 7 -22 16 -30 20 -47 20 -214 143 -335 244 -55 47 -163 148 -240 226 -171 172 -295 315 -470 541 -22 28 -52 67 -67 86 -55 71 -242 325 -286 388 -25 36 -65 94 -89 129 -23 34 -63 90 -86 125 -24 34 -72 103 -107 152 -90 127 -163 233 -175 253 -5 9 -22 33 -38 53 -15 20 -27 40 -27 44 0 4 -12 24 -27 44 -16 20 -33 45 -40 56 -14 24 -103 171 -120 200 -7 11 -17 29 -23 40 -6 11 -19 34 -29 50 -31 48 -204 385 -245 478 -14 31 -37 81 -50 110 -13 28 -40 93 -61 142 -35 85 -45 110 -82 210 -9 22 -19 49 -24 60 -25 61 -48 126 -63 175 -9 30 -30 98 -46 150 -140 445 -205 835 -205 1225 0 332 34 534 140 835 25 68 101 216 153 295 199 303 500 528 888 666 49 17 105 35 124 40 19 4 58 15 85 23 67 20 81 19 102 -3z"/> <path d="M4385 7435 c-49 -7 -101 -17 -115 -23 -14 -5 -50 -20 -80 -32 -120 -48 -260 -163 -260 -214 0 -30 43 -76 72 -76 21 0 344 -157 413 -201 17 -10 39 -23 50 -29 11 -6 29 -16 40 -23 11 -7 43 -25 70 -41 258 -150 557 -379 769 -589 276 -275 449 -508 596 -807 151 -305 227 -560 275 -920 30 -232 28 -727 -4 -910 -5 -30 -17 -107 -26 -170 -9 -63 -22 -142 -30 -175 -7 -33 -21 -96 -30 -140 -10 -44 -24 -104 -32 -133 -16 -62 -12 -84 24 -112 52 -41 77 -30 188 83 178 180 297 358 410 612 51 116 55 126 55 140 0 8 6 29 14 47 26 59 67 231 91 373 80 492 4 1136 -195 1655 -12 30 -25 66 -30 80 -23 71 -133 304 -202 430 -103 190 -312 419 -569 627 -67 55 -295 213 -306 213 -4 0 -14 6 -22 14 -39 33 -229 129 -416 210 -117 50 -299 98 -444 116 -105 13 -191 11 -306 -5z m331 -174 c271 -58 481 -150 832 -365 73 -44 141 -86 150 -91 181 -107 341 -251 472 -425 229 -303 377 -639 491 -1115 11 -44 24 -100 30 -125 6 -25 15 -76 19 -115 5 -38 14 -110 20 -160 8 -58 10 -173 7 -325 -6 -285 -21 -408 -84 -670 -14 -58 -28 -121 -32 -140 -4 -19 -12 -44 -18 -55 -6 -11 -25 -49 -41 -85 -53 -117 -113 -243 -163 -345 -27 -56 -49 -106 -49 -112 0 -7 -10 -17 -21 -24 -21 -11 -21 -10 -15 27 4 22 13 66 20 99 19 82 42 216 61 360 9 66 21 149 26 185 6 36 13 187 16 335 6 277 -6 448 -42 615 -49 229 -46 217 -101 385 -177 541 -573 1076 -1078 1456 -98 74 -323 229 -332 229 -3 0 -135 75 -174 99 -35 22 -320 161 -370 181 -138 54 -190 79 -190 89 0 21 106 67 230 100 63 17 240 12 336 -8z"/> <path d="M4050 6005 c-8 -2 -49 -9 -90 -16 -72 -13 -120 -40 -120 -68 0 -10 72 -64 116 -87 213 -113 254 -143 400 -288 155 -156 296 -338 441 -571 24 -38 102 -200 118 -245 40 -112 77 -247 99 -355 45 -232 55 -329 64 -627 7 -211 10 -239 26 -257 46 -51 204 5 305 107 70 71 100 123 141 242 39 114 50 202 50 402 0 248 -21 407 -92 713 -54 233 -104 356 -207 515 -118 181 -346 366 -541 438 -142 52 -211 69 -350 88 -91 12 -315 17 -360 9z m268 -131 c96 -9 298 -61 327 -83 6 -5 21 -11 35 -14 14 -4 71 -34 128 -67 172 -102 329 -275 428 -469 48 -95 86 -181 95 -216 4 -16 19 -68 32 -115 95 -330 109 -651 40 -925 -15 -61 -24 -86 -63 -165 -65 -134 -72 -130 -75 40 -4 199 -44 443 -105 634 -26 82 -51 156 -70 206 -12 30 -25 67 -30 81 -4 14 -12 34 -17 45 -6 10 -17 35 -26 54 -29 67 -89 185 -108 215 -10 17 -24 39 -29 50 -45 83 -134 215 -214 315 -83 104 -315 333 -370 365 -47 28 -87 75 -51 62 9 -4 42 -10 73 -13z"/> </g> </svg> 