 <svg version="1.0" xmlns="http://www.w3.org/2000/svg"  width="300.000000pt" height="225.000000pt" viewBox="0 0 300.000000 225.000000"  preserveAspectRatio="xMidYMid meet" fill="currentcOLOR" stroke="none">  <g transform="translate(0.000000,225.000000) scale(0.050000,-0.050000)"> <path d="M1850 4425 c-119 -7 -686 -62 -800 -78 -122 -16 -251 -80 -340 -166 -44 -43 -116 -110 -160 -149 -77 -69 -78 -71 -29 -71 71 -1 65 -118 -18 -331 -34 -88 -68 -189 -75 -225 -7 -36 -21 -65 -30 -65 -10 0 -18 -18 -18 -41 0 -22 -14 -74 -32 -115 -124 -286 -154 -594 -156 -1608 l-2 -854 78 -80 c166 -170 492 -317 873 -392 93 -18 201 -41 239 -51 39 -10 115 -22 170 -27 55 -6 123 -16 150 -23 50 -12 1228 -33 1700 -30 1463 10 1740 37 1740 168 0 10 70 101 155 204 321 385 396 523 506 929 l67 250 1 780 c1 948 3 936 -183 1240 -30 49 -71 133 -117 240 -69 159 -190 288 -415 444 l-80 56 -1562 0 c-859 1 -1607 -2 -1662 -5z m2907 -86 c323 -4 344 -10 511 -166 51 -47 92 -81 92 -75 0 15 120 -177 121 -194 1 -23 86 -188 145 -280 102 -159 138 -244 147 -349 16 -196 19 -1325 3 -1455 -33 -277 -49 -370 -76 -430 -10 -22 -36 -101 -58 -175 -39 -128 -162 -364 -230 -440 -18 -19 -32 -41 -32 -47 0 -14 -187 -239 -238 -288 -18 -16 -45 -56 -61 -87 -56 -107 -100 -115 -658 -128 -1643 -39 -2884 -7 -3057 79 -24 12 -56 17 -70 11 -15 -6 -95 7 -177 27 -82 21 -180 43 -217 50 -38 6 -90 25 -115 42 -26 17 -47 25 -47 18 0 -51 -358 181 -424 274 -46 64 -70 1202 -34 1552 8 73 20 205 27 295 7 90 21 191 31 225 9 35 18 69 20 77 8 55 31 139 86 305 34 105 64 202 67 217 2 16 23 71 46 124 22 53 41 114 41 137 0 22 9 45 19 52 11 6 26 58 34 115 12 95 24 114 140 222 69 65 123 124 118 131 -30 49 148 101 389 113 72 3 189 12 260 19 72 6 178 16 238 20 59 5 110 11 113 14 5 6 2257 2 2846 -5z"/> <path d="M2340 2958 c0 -12 29 -52 63 -89 75 -78 68 -22 87 -771 11 -446 8 -604 -10 -637 -54 -102 9 -96 220 20 61 33 128 56 150 51 28 -7 55 10 90 57 28 37 77 80 110 96 97 46 196 103 226 130 15 14 49 25 75 25 28 0 49 12 49 28 0 27 98 104 123 97 8 -2 44 26 80 62 37 36 85 76 106 88 57 31 13 115 -84 160 -69 32 -362 223 -419 273 -45 40 -77 62 -147 100 -38 22 -73 44 -79 51 -5 7 -32 27 -60 46 -27 18 -89 61 -137 95 -48 34 -111 61 -140 61 -29 -1 -77 -2 -107 -3 -29 -1 -80 17 -113 40 -67 47 -83 51 -83 20z m804 -502 c36 -36 35 -37 -14 -56 -27 -10 -50 -28 -50 -40 0 -11 -7 -20 -17 -20 -9 0 -16 40 -16 88 0 96 23 102 97 28z m192 -208 c-4 -67 -36 -134 -36 -78 0 6 0 51 0 101 0 60 7 87 21 78 12 -7 19 -53 15 -101z m268 -76 c19 -29 -21 -72 -55 -59 -16 6 -29 33 -29 59 0 48 52 48 84 0z m-463 -335 c-51 -58 -103 -38 -90 36 20 111 29 117 67 43 19 -36 29 -72 23 -79z m-381 -191 c0 -14 -18 -34 -41 -46 -36 -20 -39 -17 -31 29 18 96 71 109 72 17z"/> </g> </svg> 