<?xml version="1.0" encoding="UTF-8"?>
<svg id="Layer_2" data-name="Layer 2" xmlns="http://www.w3.org/2000/svg" viewBox="0 0 405.55 528.73">
  <defs>
    <style>
      .cls-1 {
        fill: #dcc624;
      }

      .cls-2 {
        fill: #ffffff;
      }

      .cls-3 {
        fill: #bad86b;
      }

      .cls-4 {
        fill: #224E41;
      }
    </style>
  </defs>
  <g id="Layer_1-2" data-name="Layer 1">
    <g>
      <path class="cls-4" d="M316.24,301.1c9.87,9.22,19.88,18.37,28.6,28.71,1.01,1.2,2,2.43,2.99,3.66,1.29,1.6-1.07-1.43.2.24.5.66,1,1.32,1.49,1.99,2.09,2.83,4.1,5.73,6.03,8.67,4.9,7.45,9.36,15.18,13.67,22.99,6.81-5.25,13.61-10.5,20.42-15.75-13.94-10.79-27.8-21.83-42.77-31.19-14.94-9.34-31.04-16.53-47.63-22.41-10.46-3.71-20.93,9.92-14.68,19.1,12.8,18.81,36.79,27.03,55.61,38.34,3.81,2.29,7.58,4.67,11.22,7.22.72.51,5.14,3.86,2.8,2,1.6,1.27,3.18,2.56,4.72,3.89,7.72,6.64,14.94,13.88,22.32,20.89,5.25-6.81,10.5-13.61,15.75-20.42-41.93-18.35-84.13-35.39-128.56-46.75-16.24-4.15-22.93,20.24-6.91,25.07,33.24,10.02,62,28.94,90.74,47.87l10.02-23.76c-32.41-5.08-64.6-11.72-96.83-17.84-14.62-2.78-22.31,15.19-10.02,23.76,9.75,6.81,22.03,10.66,32.95,15.12,3.11,1.27,6.21,2.53,9.31,3.81.7.29,4.6,1.94,2.46,1.02,1.4.6,2.79,1.2,4.19,1.82,4.48,1.98,9.09,3.98,13.13,6.8l10.02-23.76c-20.96-7.64-39.61-23.1-62.04-28.57-12.39-3.02-22.1,12.38-12.65,21.73s19.97,15.8,30.72,22.65c9.41,6,18.18,12,24.02,20.8l11.23-19.56c-20.74-2.34-41.61-3.24-62.36-5.59-5.57-.63-11.15,4.49-12.54,9.54-1.61,5.85,1.21,11.36,5.97,14.68,24.38,17,60.46,20.66,74.68,48.43,4.89-6.37,9.79-12.73,14.68-19.1-31.35-10.66-62.39-21.68-95.51-25.24-10.81-1.16-17.72,15.34-9.19,22.19,15.71,12.63,33.31,21.68,51.17,30.83,16.9,8.65,33.35,17.52,46.3,30.76,4.22-7.24,8.43-14.49,12.65-21.73-31.01-10.95-63.04-18-95.7-21.73-9.27-1.06-16.96,12.07-11.23,19.56,12.02,15.7,32.12,18.44,50.51,21.47,18.41,3.03,37.31,5.14,54.85,11.84l3.46-25.54c-29.06,3.02-58.25,5.09-87.46,5.61-10.12.18-20.26.21-30.37-.27-3.37-.16-6.74-.36-10.09-.72-4.39-.47,1.91.53-.88-.11-1.04-.24-2.08-.39-3.11-.68-16.13-4.57-23.01,20.51-6.91,25.07,6.24,1.77,13.11,2.04,19.56,2.37,10.11.53,20.25.52,30.37.36,29.69-.48,59.36-2.57,88.89-5.64,14.71-1.53,17.5-20.17,3.46-25.54-15.99-6.11-33.15-8.37-49.96-11.05-8.1-1.29-16.2-2.62-24.18-4.51-3.71-.88-7.52-1.73-11.07-3.13.89.44.63.32-.8-.37-.83-.41-1.64-.87-2.43-1.36-.57-.37-1.82-1.5-1.39-.93l-11.23,19.56c30.26,3.46,60.08,10.67,88.79,20.8,12.69,4.48,21.26-12.92,12.65-21.73-13.94-14.26-31.22-24.34-48.8-33.41-16.46-8.5-34.77-17.01-48.67-28.19-3.06,7.4-6.13,14.79-9.19,22.19,30.54,3.28,59.72,14.49,88.6,24.31,11.42,3.88,19.51-9.66,14.68-19.1-7.85-15.33-21.81-26.91-36.96-34.66-15.61-7.98-32.54-12.99-47.04-23.1l-6.56,24.23c20.74,2.34,41.61,3.24,62.36,5.59,9.73,1.1,16.32-11.89,11.23-19.56-7.71-11.62-18.09-20.17-29.67-27.75-10.53-6.9-20.6-12.51-29.14-20.96-4.22,7.24-8.43,14.49-12.65,21.73,22.13,5.39,40.61,20.76,62.04,28.57,6.01,2.19,13.1-1.97,15.34-7.53,2.53-6.3.13-12.43-5.32-16.23-9.75-6.81-22.03-10.66-32.95-15.12-3.11-1.27-6.21-2.53-9.31-3.81-.7-.29-4.6-1.94-2.46-1.02-1.4-.6-2.79-1.2-4.19-1.82-4.48-1.98-9.09-3.98-13.13-6.8l-10.02,23.76c32.23,6.12,64.42,12.75,96.83,17.84,6.4,1,12.74-1.08,15.34-7.53,2.49-6.18.22-12.58-5.32-16.23-30.68-20.21-61.47-39.79-96.95-50.49-2.3,8.36-4.61,16.71-6.91,25.07,42.23,10.8,82.48,26.69,122.35,44.13,5.94,2.6,12.6,2.23,16.77-3.35,3.76-5.03,3.77-12.53-1.02-17.07-13.64-12.94-26.86-25.99-42.92-35.98-8.89-5.54-18.12-10.43-27.33-15.4-4.78-2.58-9.52-5.25-14.02-8.29-2.76-1.87-2.42-1.56-4.61-3.52-.97-.87-1.84-1.83-2.78-2.72-1.9-1.79.57,1.06-.94-1.16-4.89,6.37-9.79,12.73-14.68,19.1,14.53,5.15,28.01,11.4,41.42,19.79,13.09,8.19,25.31,17.68,37.51,27.13,5.13,3.97,11.57,5.39,17.07,1.02,5.1-4.07,6.55-10.96,3.35-16.77-8.11-14.72-16.93-28.95-27.69-41.91-8.89-10.71-19.19-20.13-29.35-29.61-5.13-4.79-13.3-5.08-18.38,0s-5.15,13.58,0,18.38h0Z"/>
      <path class="cls-4" d="M376.36,365.79c-8.16,3.87-17.62,3.65-26.61,4.34-5.42.41-10.87.98-16.21,2.02-4.93.96-9.77,2.79-14.8,3.06-6.43.34-11.98,4.68-12.77,11.27-.69,5.81,2.85,13.23,9.31,14.26,12.88,2.05,25.81,3.07,38.84,2.24,6.43-.41,12.88-.88,18.79-3.63,2.36-1.1,4.4-2.47,6.5-3.99.83-.6,1.64-1.23,2.49-1.79.19-.13,3.06-1.62,2.29-1.36,6.65-2.24,11.02-8.95,9.08-15.99-1.78-6.49-9.31-11.33-15.99-9.08-4.94,1.67-8.66,4.22-12.86,7.13-2.08,1.44-2.7,1.81-4.43,2.19,1.18-.26-.9.14-1.08.16-1.58.21-3.19.27-4.78.37-10.62.67-21.41.36-31.93-1.32l-3.46,25.54c6.58-.35,12.76-2,19.14-3.44,5.09-1.15,10.02-1.51,15.31-1.87,12.65-.87,24.71-2.15,36.29-7.64,6.34-3.01,7.99-12.1,4.66-17.79-3.8-6.49-11.42-7.68-17.79-4.66h0Z"/>
      <path class="cls-4" d="M308.33,426.2c8.61,9.99,12.88,23.72,16.01,37.53,1.62,7.14,2.87,14.35,4.09,21.57,1.12,6.62,3.14,12.83,4.6,19.35,6.37-4.89,12.73-9.79,19.1-14.68-1.91-1.02,1.85,2.21,1.04.89-.39-.64-1.76-1.54-2.21-1.92-5.38-4.51-13.11-5.27-18.38,0-4.63,4.63-5.41,13.85,0,18.38,2.08,1.74,4.02,3.81,6.43,5.1,10.23,5.44,21.6-3.5,19.1-14.68-1.57-7-3.64-13.69-4.85-20.8-1.32-7.75-2.7-15.49-4.55-23.14-4.07-16.8-10.62-32.8-21.99-45.99-4.59-5.32-13.68-4.71-18.38,0-5.28,5.28-4.6,13.05,0,18.38h0Z"/>
      <path class="cls-1" d="M356.97,81.84c6.36,5.33,11.58,10.87,14.66,18.67,1.74,4.39,3.53,9.21,4.44,13.86.64,3.26-.7,5.45-2.55,8.77-9.69,17.32-19.6,34.92-32.02,50.45-9.29,11.63,1.95,26.71,15.75,20.42,6.29-2.86,11.59-8.15,14.68-14.31,6.49-12.92-9.45-26.38-20.42-15.75-8.09,7.84-14.95,18.06-11.83,29.87,2.95,11.16,12.27,17.65,22.33,21.9-1.99-4.89-3.98-9.79-5.97-14.68-4.01,10.61.51,21.22,5.17,30.74,1.8,3.67,3.32,7.32,4.49,11.26.66,2.22,1.23,4.47,1.69,6.74.1.47.5,2.59.48,2.35-.04-.5.92-2.55-.16.15l3.34-5.74c.11-.14,3.42-1.65,3.57-1.28-.04-.1-2.46-.09-2.72-.1-2.56-.17-5.12-.46-7.67-.69-5.39-.48-10.79-.93-16.18-1.47-8.97-.9-17.45-3.19-25.35-7.58-2.19,8.08-4.37,16.15-6.56,24.23,13.02-1.1,24.45-7.55,31.01-19.1,7.2-12.66-9.98-26.55-20.42-15.75-1.97,2.03-4.1,3.74-6.59,4.64l10.02,23.76c5.68-2.4,10.13-6.86,13.89-11.63,4.32-5.48,8.75-11.18,11.75-17.52,6.35-13.44,5.96-28.99-2.19-41.65-3.8-5.9-11.54-8.32-17.79-4.66s-7.7,11.43-4.66,17.79c3.54,7.43,7.42,15.28,8.38,23.57.49,4.31-.38,10.92-3.07,14.18-5.81,7.03-4.61,19.41,5.74,21.73,10.59,2.37,21.84.87,30.78-5.57,5.69-4.1,8.45-11.31,4.66-17.79-3.28-5.62-12.06-8.79-17.79-4.66-3.98,2.87-7.05,3.78-10.74,2.95l5.74,21.73c7.72-9.34,11.56-20.85,10.58-33.03-1.05-12.98-6.28-24.62-11.82-36.23-7.48,4.37-14.97,8.75-22.45,13.12,3.95,6.13,4.41,11.74.61,18.48-2.02,3.58-4.89,7.63-7.13,10.49s-3.98,4.72-7.6,6.25c-5.87,2.49-7.63,10.97-5.32,16.23s9.15,9.77,15.34,7.53c6.92-2.5,12.91-6,18.06-11.33l-20.42-15.75c.06-.11-2.36,3.37-1.27,2.08-.65.71-1.33,1.39-2.06,2.02.54-.41.45-.37-.26.12-.6.4-1.22.77-1.87,1.1.7-.2.63-.16-.21.11-.58.22-4.42.93-2.89.8-5.77.49-10.93,3.7-12.54,9.54-1.5,5.45.96,11.9,5.97,14.68,11.54,6.4,23.57,9.5,36.61,10.93,6,.66,12.03,1.13,18.05,1.67s11.89,1.5,17.67-.51c15.37-5.36,12.41-22.43,8.62-34.66-1.86-6.01-4.48-11.74-7.23-17.38-.87-1.79-1.69-3.47-2.28-5.37-.83-2.71-.71-2.46.09-4.59,1.8-4.76-1.09-12.61-5.97-14.68-3.3-1.4-9.46-4.02-10.25-5.76.14.32-.07.87-.15,1.14.44-1.67.15-.63.73-1.54.7-1.09,2.85-3.25,4.43-4.78l-20.42-15.75c-1.03,2.05-.9,2.08-2.06,3.14.61-.55-2.5,1.48-3.29,1.84l15.75,20.42c7.95-9.94,15.17-20.35,21.81-31.2,6.21-10.15,13.08-20.56,17.73-31.53,5.23-12.34,1.59-24.53-3.02-36.46-4.51-11.67-11.45-21.3-21.04-29.33-5.38-4.51-13.11-5.27-18.38,0-4.63,4.63-5.41,13.85,0,18.38h0Z"/>
      <path class="cls-1" d="M356.36,188.37c-2.24-9.18-5.13-18.47-6.72-27.79v6.91l.15-.73c-1.99,2.59-3.98,5.18-5.97,7.77l.87-.57-6.56,1.77c7.34-.3,14.63,3.73,21.87,2.58,10.89-1.73,13.45-12.01,12.7-21.49-1.2-14.96-8.58-27.65-13.45-41.55-5.33,5.33-10.66,10.66-15.99,15.99,7.43,1.15,14.69,3.09,21.45,6.4s17.78,1.17,19.1-7.77c1.13-7.71.76-14.85-1.3-22.4-1.64-6.01-4.04-11.8-5.36-17.9-2.5-11.49-2.29-23.68-9.26-34.46-6.81,5.25-13.61,10.5-20.42,15.75,6.63,6.17,11.79,12.97,16,20.99,3.26,6.21,11.92,8.09,17.79,4.66,6.3-3.68,7.94-11.55,4.66-17.79-5.13-9.78-11.98-18.72-20.06-26.25-4.71-4.39-11.93-5.11-17.07-1.02-4.84,3.86-6.93,11.23-3.35,16.77,4.98,7.69,4.58,17.59,6.32,26.68,1,5.2,2.78,10.16,4.39,15.19,1.25,3.91,3.19,8.81,2.59,12.84,6.37-2.59,12.73-5.18,19.1-7.77-8.82-4.32-17.94-7.52-27.66-9.02-8.89-1.37-19.61,5.65-15.99,15.99,2.53,7.23,5.87,14.13,8.64,21.28,1.3,3.37,2.49,6.81,3.3,10.34-.13-.58.73,4.39.58,3.02.09,1.09.14,2.19.14,3.29-.23,2.76.11,2.24,1.03-1.55l4.66-4.66-.81.43,6.56-1.77c1.93-.06,1.39.26-.37-.13-1.56-.35-3.13-.66-4.71-.94-3.35-.59-6.73-1.06-10.1-1.43-7.55-.83-16.13,1.38-18.37,9.8-1.5,5.66.76,11.6,2.1,17.09,1.49,6.11,2.98,12.22,4.47,18.34,1.66,6.82,9.37,10.9,15.99,9.08,6.95-1.91,10.75-9.15,9.08-15.99h0Z"/>
      <path class="cls-3" d="M43.92,234.8c-8.31,8-16.4,21.76-29.48,20.97v15c4.48.16,9.04-.42,12.5-3.55s3.5-6.94,4.23-11.36c.57-3.46,2.48-6.67,5.3-8.75,1.87-1.38,7.53-3.74,9.34-2.5l-3.45-4.48c2.88,6.95-12.53,12.18-16.76,14.6-8.38,4.79-.83,17.75,7.57,12.95,7.83-4.47,16.36-7.64,21.38-15.65,4.32-6.89,5.29-19.44-4.61-21.86-8.67-2.12-18.56,1.09-24.98,7.07-3.27,3.05-5.68,6.97-7.23,11.14-.72,1.95-1.14,3.9-1.41,5.95-.02.17-.54,3.9.4,1.95.89-.48.9-.64.02-.47-.77.06-1.54.05-2.31-.03-9.69-.35-9.58,14.42,0,15,18.15,1.1,28.49-14.2,40.09-25.37,6.97-6.71-3.65-17.31-10.61-10.61h0Z"/>
      <path class="cls-3" d="M105.22,223.56l.05-.1-1.93,3.31c1.89-2.22,6.16-.97,8.71-.85,3.64.18,7.41-.43,10.37-2.66,3.23-2.43,4.9-6.48,2.69-10.26-1.92-3.28-6.93-5.02-10.26-2.69-4.75,3.32-9.43,6.85-15.47,6.5-9.64-.57-9.61,14.43,0,15,8.73.52,16.14-3.71,23.04-8.54-2.52-4.32-5.05-8.63-7.57-12.95-1.67,1.25-3.59.48-5.59.33-2.8-.2-5.63.03-8.35.75-5.65,1.49-11.19,5.74-10.7,12.17.31,4.04,3.23,7.5,7.5,7.5,3.82,0,7.81-3.44,7.5-7.5h0Z"/>
      <path class="cls-3" d="M63.34,205.57c-5.66-5.62-12.09-2.53-18.62-5.21s-10.93-9.34-14.77-15.12c-3.93,3.03-7.85,6.06-11.78,9.09,5.77,4.61,11.75,5.42,18.97,5.37,3.41-.03,6.2.07,9.22,1.74,1.11.62,2.16,1.38,3.15,2.18.64.52,2.69,3.06,2.97,2.04-2.54,9.33,11.93,13.31,14.46,3.99s-5.47-16.8-13.02-21.15c-4.1-2.36-8.48-3.54-13.19-3.78-3.29-.17-9.14,1.27-11.97-.98s-6.67-3.04-9.85-.59c-2.8,2.16-4.01,6.54-1.93,9.68,4.58,6.89,9.39,13.57,16.29,18.31,3.02,2.08,6.59,3.74,10.18,4.52,1.89.41,3.86.65,5.79.72.93,0,1.85-.02,2.78-.03,1.63.16,1.86.11.69-.16,6.86,6.81,17.47-3.8,10.61-10.61h0Z"/>
      <path class="cls-3" d="M75.65,205.53c-3.59,16.19-4.38,32.77-2.11,49.21,1.16,8.38,3.04,16.65,5.76,24.67s5.03,16.57,7.71,24.82c4.51,13.89,10.81,28.49,20.46,39.59,5.04,5.79,11.7,9.7,17.12,15.09,2.64,2.63,5.03,5.49,7.38,8.38,2.73,3.35,6.08,5.86,8.94,9.06.66-2.51,1.32-5.01,1.99-7.52-2.28.93-4.58,1.88-6.98,2.47-1.38.34-5.49.09-4.45,1.42l-3.18,7.68c.72-.04,1.45,0,2.17-.06,3.39-.3,5.62-3.59,3.89-6.77-.8-1.47-2.6-2.57-3.72-3.85-2.22-2.53-4.22-5.28-6.14-8.04-3.48-5-6.61-10.22-9.6-15.52s-5.4-10.27-8.36-15.25c-3.05-5.15-6.61-9.96-9.39-15.27-11.64-22.28-18.21-46.97-15.03-72.11.73-5.73-8.28-5.68-9,0-3.31,26.07,3.73,51,15.08,74.33,2.76,5.67,6.36,10.79,9.67,16.14s6.13,11.17,9.25,16.71,6.12,10.53,9.6,15.52c1.7,2.45,3.49,4.85,5.35,7.18,1.06,1.33,2.15,2.78,3.34,4,.49.5,2.37,2.92,1.17.71l3.89-6.77c-.72.06-1.45.01-2.17.06-4.19.25-5.56,4.62-3.18,7.68,3.93,5.08,16.01.14,20.19-1.57,3.17-1.29,4.42-4.8,1.99-7.52-2.67-2.98-5.83-5.3-8.4-8.39-2.2-2.64-4.35-5.33-6.72-7.82-4.96-5.21-11.16-8.93-16.2-14.03-9.9-10-16-24.71-20.26-37.92-2.48-7.69-4.42-15.47-7.12-23.11s-4.58-15.04-5.82-22.79c-2.56-15.93-1.91-32.28,1.58-48.01,1.25-5.64-7.42-8.05-8.68-2.39h0Z"/>
      <path class="cls-3" d="M117.59,357.93c4.9,6.82,10.42,13.07,16.72,18.63,4.33,3.82,10.72-2.52,6.36-6.36-5.71-5.04-10.87-10.62-15.31-16.8-3.35-4.66-11.16-.17-7.77,4.54h0Z"/>
      <path class="cls-2" d="M239.23,107c-7.37,13.27-12.36,27.73-15.89,42.45l4.57-.6c-4.18-7.89-9.29-15.25-16.81-20.29-3.66-2.45-7.85-4.26-12.32-4.19-4.22.06-8.86,1.5-12.53,3.54-7.2,3.99-11.03,11.59-12.33,19.46-.8,4.85-.85,9.76.63,14.49,1.37,4.39,3.69,8.74,6.84,12.11s6.99,6.01,10.81,8.39c2.07,1.29,4.22,2.43,6.41,3.5,1.04.51,2.09,1.01,3.14,1.51,1.21.58,2.61,1.07,3.7,1.85l-.9-.9-.1-.83.64-1.1c-.78.96-2,1.71-3,2.42-1.08.76-2.17,1.5-3.3,2.18-1.98,1.2-3.99,2.17-5.65,3.85-1.97,1.99-3.46,4.58-4.07,7.32s-.41,5.61-.02,8.39c1.5,10.53,7.09,20.6,13.56,28.89,2.53,3.24,5.21,6.37,8.04,9.35s6.15,6.34,9.89,8.47c3.19,1.82,6.68,1.67,10.24,1.42,4.74-.33,9.45-1.09,14.1-2.03,11.51-2.32,23.09-5.71,33.66-10.89,1.21-.59,1.54-2.32.9-3.42-.72-1.24-2.2-1.49-3.42-.9-7.78,3.82-16.17,6.45-24.56,8.58-7.57,1.92-15.29,3.57-23.08,3.78-.72.02-1.45.02-2.17,0-.3,0-.59-.03-.88-.04-.04,0-.74-.06-.25,0,.43.05-.07-.01-.17-.04-.3-.08-.59-.17-.89-.28.52.19-.21-.1-.35-.18-.68-.34-1.32-.75-1.95-1.18-2.75-1.9-5.53-4.7-7.98-7.31s-4.71-5.25-6.91-8c-.19-.23-.37-.47-.56-.7-.11-.14-.21-.27-.32-.41-.22-.29.23.31-.05-.07-.59-.79-1.17-1.59-1.73-2.4-1.21-1.76-2.35-3.57-3.41-5.42-2.35-4.11-4.36-8.44-5.68-12.99-1.16-4-2.32-9-.67-13.02.71-1.73,1.92-3.28,3.41-4.41s3.12-1.79,4.62-2.75c1.97-1.27,3.97-2.64,5.72-4.21,1.08-.97,1.59-2.34,1.13-3.76-.48-1.49-1.85-2.07-3.15-2.7-4.3-2.09-8.65-4.07-12.65-6.7-3.49-2.29-7.11-4.82-9.71-8.14-2.83-3.62-4.94-8.48-5.35-13.07s.4-9.35,2-13.67c1.27-3.43,3.45-6.75,6.68-9.06,1.86-1.33,3.95-2.15,6.11-2.85,1.98-.64,4-1.11,6.09-1.08,4.45.07,8.59,2.69,11.91,5.45,3.56,2.96,6.47,6.56,8.93,10.47,1.24,1.98,2.38,4.02,3.48,6.09,1,1.88,4.08,1.46,4.57-.6,3.43-14.32,8.22-28.35,15.38-41.25,1.56-2.82-2.75-5.34-4.32-2.52h0Z"/>
      <path class="cls-2" d="M319.85,182.91c.61-5.73.43-11.5-.35-17.2-1.14-8.31-3.88-16.07-7.29-23.69-5.51-12.34-12.67-23.69-21.87-33.62-5.9-6.37-12.42-12.14-19.13-17.64-1.04-.86-2.52-1.02-3.54,0-.88.88-1.05,2.67,0,3.54,10.86,8.91,21.28,18.58,29.24,30.24,3.67,5.38,6.83,11.1,9.6,17,3.38,7.19,6.25,14.57,7.67,22.42,1.12,6.24,1.34,12.66.66,18.96-.14,1.34,1.25,2.5,2.5,2.5,1.47,0,2.36-1.15,2.5-2.5h0Z"/>
      <path class="cls-2" d="M310.94,196.87c2.2-1.15,4.36-2.06,6.79-2.6,2.65-.59,5.29-1.06,7.95-.34s4.38,1.99,5.68,4.34c1.15,2.09,1.32,4.82,1.2,7.15-.26,5.26-2.74,10.83-5.95,14.96s-8.09,7.57-12.82,9.92c-2.3,1.14-5.36,2.51-8,2.04-1.19-.21-2.37-.96-3.08-1.95s-.72-1.71-.31-2.71c.5-1.25-.55-2.75-1.75-3.08-1.43-.39-2.57.49-3.08,1.75-1.33,3.32.42,6.9,3.08,8.96,2.92,2.26,6.42,2.42,9.89,1.53s6.6-2.5,9.51-4.4,5.62-3.84,8.02-6.24c4.69-4.68,8.14-11.37,9.16-17.92s-.31-14.74-6.86-17.91c-1.91-.92-3.92-1.52-6.03-1.77s-4.16.14-6.22.49c-3.46.6-6.62,1.82-9.72,3.44-2.85,1.49-.33,5.81,2.52,4.32h0Z"/>
      <path class="cls-2" d="M312.09,208.01c1.43-.18,2.72-.85,4.14-1.13.1-.02.2-.03.3-.05.43-.08-.16.04-.2.03.16.06.54-.05.71-.05.21,0,.42,0,.63.01.11,0,.44.08.06,0-.44-.09.13.03.21.05.21.05.4.13.61.19.31.09-.52-.31-.08-.02.09.06.19.11.28.17.07.04.13.11.21.14.02,0-.54-.46-.31-.24.1.1.21.19.31.29.08.08.15.18.23.26.2.2-.4-.58-.12-.15.15.23.29.47.42.71.27.51-.2-.56-.05-.12.04.12.09.24.12.37.04.14.08.29.11.43.06.27.03.81.01-.06,0,.28.04.56.04.84,0,.14-.02.29-.02.43-.01.37.05-.34.05-.34-.03.11-.04.22-.06.33-.06.32-.15.64-.26.95-.03.08-.06.15-.09.23-.1.28.26-.52.11-.26-.1.18-.18.38-.29.56s-.23.38-.35.56c-.05.07-.11.15-.16.22-.16.25.37-.44.09-.12-.33.38-.67.74-1.04,1.08-.08.07-.16.14-.24.21-.06.05-.13.1-.19.16-.14.11-.09.07.18-.13-.12.2-.52.37-.72.5-.54.35-1.1.65-1.68.94-1.18.58-1.59,2.34-.9,3.42.78,1.21,2.16,1.51,3.42.9,3.83-1.88,7.36-5.49,7.14-10.05-.08-1.73-.63-3.37-1.69-4.74-1.41-1.83-3.63-2.73-5.92-2.69-1.27.02-2.55.28-3.75.65-.4.13-.8.27-1.2.41-.35.12-1.24.29-.07.14-1.29.16-2.57,1.03-2.5,2.5.05,1.22,1.11,2.67,2.5,2.5h0Z"/>
      <path class="cls-2" d="M295.78,60.56c8.02-.79,16.02-1.89,23.92-3.48,7.02-1.41,14.04-3.18,20.69-5.86,3.17-1.28,6.29-2.72,9.14-4.62,2.67-1.77.17-6.1-2.52-4.32-4.95,3.28-10.63,5.31-16.3,6.97-7.16,2.1-14.52,3.55-21.89,4.68-4.33.66-8.69,1.19-13.05,1.62-1.34.13-2.5,1.05-2.5,2.5,0,1.25,1.15,2.63,2.5,2.5h0Z"/>
      <path class="cls-2" d="M357.57,49.33c11.72,8.25,22.77,17.81,30.48,30.02,5.48,8.68,9.63,18.6,11.77,28.66.13.59.24,1.19.34,1.79.05.3.09.61.14.92.08.52-.05-.54-.02-.12.01.16.04.32.06.49.14,1.22.2,2.44.2,3.67s-.12,2.53-.26,3.8c.09-.8-.02.08-.07.39-.06.36-.12.72-.19,1.07-.14.7-.29,1.39-.46,2.08-.38,1.52-.84,3.01-1.36,4.49-.29.82-.59,1.63-.91,2.44-.16.4-.32.8-.48,1.19-.05.11-.28.68-.16.4.11-.26-.2.46-.25.59-1.8,4.17-3.87,8.23-6.02,12.23-6.78,12.66-14.31,24.93-21.76,37.2-1.26,2.07-2.51,4.13-3.77,6.2-1.68,2.76,2.64,5.27,4.32,2.52,8.14-13.35,16.35-26.68,23.89-40.38,4.18-7.6,8.41-15.46,10.85-23.82,1.62-5.53,2.03-11.14,1.06-16.81-.47-2.74-1.22-5.42-2.05-8.07-2.13-6.83-4.84-13.51-8.34-19.75-7.19-12.82-17.73-23.07-29.4-31.83-1.67-1.26-3.37-2.48-5.08-3.68-1.1-.78-2.78-.2-3.42.9-.73,1.25-.21,2.64.9,3.42h0Z"/>
      <path class="cls-2" d="M198.56,123.48c-3.88-3.88-7-8-9.57-12.83-3.15-5.9-3.6-12.81-3.24-19.38.18-3.22-4.82-3.21-5,0-.41,7.37.31,15.07,3.81,21.69,2.78,5.26,6.26,9.84,10.47,14.05,2.28,2.28,5.81-1.26,3.54-3.54h0Z"/>
      <path class="cls-2" d="M381.11,105.7c-.63-3.9-2.18-7.64-3.73-11.25-1.31-3.04-2.75-6.02-4.29-8.95-2.66-5.06-6.03-9.77-9.49-14.3s-7.16-8.97-11.01-13.23c-2.16-2.4-5.69,1.15-3.54,3.54,5.75,6.37,11.2,13.05,15.93,20.22,2.84,4.29,5.19,8.83,7.3,13.52,1.69,3.76,3.33,7.71,4,11.8.22,1.33,1.87,2.08,3.08,1.75,1.42-.39,1.96-1.74,1.75-3.08h0Z"/>
      <path class="cls-2" d="M370.95,103.65c-.71-5.1-3.68-9.83-6.48-14.03-1.28-1.92-2.62-3.78-3.91-5.69-.5-.74-1-1.48-1.44-2.25-.15-.27-.27-.56-.43-.83.36.61.11.34.06.13-.05-.24-.14-.75-.02.18-.17-1.34-1.03-2.5-2.5-2.5-1.22,0-2.67,1.15-2.5,2.5.21,1.7,1.08,3.12,2,4.53,1.26,1.92,2.62,3.78,3.91,5.69,2.83,4.18,5.79,8.59,6.48,13.59.19,1.34,1.9,2.07,3.08,1.75,1.44-.4,1.93-1.73,1.75-3.08h0Z"/>
      <path class="cls-2" d="M357.49,95.75c1.46-.8,2.77-1.89,4.08-2.91.77-.6,1.53-1.2,2.3-1.8.66-.51,1.38-1.07,2.3-1.75,1.68-1.23,3.4-2.41,5.25-3.36.21-.11.41-.21.62-.31.07-.04.77-.34.52-.24s.44-.16.51-.19c.2-.07.4-.13.6-.19.38-.11.77-.19,1.17-.27-.63.12-.08,0,.09,0,.24,0,.48-.01.72,0,1.35.06,2.5-1.19,2.5-2.5,0-1.4-1.15-2.44-2.5-2.5-4.24-.18-8.31,2.56-11.6,4.93-1.84,1.33-3.62,2.75-5.41,4.15-.21.16-.41.32-.62.48-.49.38.11-.08-.25.2-.31.24-.63.48-.95.71-.6.44-1.21.86-1.87,1.22-2.82,1.55-.3,5.87,2.52,4.32h0Z"/>
      <path class="cls-2" d="M183.46,82.88c-.45-.99-1.2-1.88-1.84-2.75-.38-.53-.77-1.06-1.14-1.6-.15-.21-.29-.43-.42-.65-.05-.08-.1-.17-.15-.26-.04-.08-.2-.43-.07-.12.14.34-.06-.19-.09-.28-.03-.08-.05-.17-.07-.26-.09-.28.1-.16,0,.15.01-.05,0-.2,0-.25-.04-.25-.03.23-.04.26,0,0-.24.47-.1.23.1-.18-.23.24-.26.28-.27.35.25-.14-.12.09-.26.16-.09.04.02.02.08-.01.17-.03.25-.05.27-.07-.23.03-.24.03.16.04.42-.04.58-.05.27-.02.54-.05.81-.07,1.8-.17,3.62-.33,5.38-.77,1.85-.47,3.67-1.33,4.98-2.76.88-.97,1.03-2.59,0-3.54-.96-.88-2.59-1.03-3.54,0-.12.13-.24.26-.37.38-.06.05-.11.1-.17.15-.31.29.1-.11.15-.11-.08,0-.38.26-.44.29-.18.11-.36.21-.54.3-.07.03-.14.07-.21.1-.2.1-.29.01.16-.07-.15.03-.31.12-.46.17-.4.13-.81.24-1.22.34s-.81.17-1.22.23c-.09.01-.18.03-.27.04-.46.07.04-.01.11-.01-.25,0-.51.06-.76.09-.93.1-1.86.18-2.79.27-1.33.13-2.55.38-3.54,1.35-1.09,1.06-1.28,2.64-.97,4.06s1.12,2.62,1.96,3.79,1.79,2.23,2.37,3.49c.55,1.19,2.36,1.58,3.42.9,1.23-.79,1.48-2.14.9-3.42h0Z"/>
      <path class="cls-2" d="M193.83,64.97c1.14-3.5-.34-7.16-1.96-10.25-.79-1.51-1.75-2.93-2.52-4.45-.01-.02-.35-.81-.31-.81.31.06-.49,1.11-.3,1,.4-.23.77-.76,1.13-1.07,2.02-1.71,4.36-3.15,5.33-5.73s1.19-5.33,2.53-7.75c.77-1.4,1.91-2.58,2.95-3.79,1.13-1.32,2.29-2.61,3.49-3.87,2.11-2.22,3.88-3.67,6.43-5.24,2.14-1.32,4.33-2.64,6.64-3.64,3.39-1.47,6.84-2.8,10.28-4.15,7.48-2.94,14.82-6.08,21.55-10.54l-3.67-1.49c.74,2.17,1.35,4.38,1.81,6.62.41,2,.5,4.18,1.76,5.87,1.52,2.04,3.74,2.01,6.04,1.83,2.53-.19,5.06-.39,7.6-.58l-2.41-3.16c-1.24,5.99-1.54,12.01-.45,18.05s3.45,11.54,6.04,16.95c.58,1.22,2.32,1.54,3.42.9,1.25-.73,1.48-2.2.9-3.42-2.36-4.92-4.45-10-5.46-15.38s-.69-10.58.38-15.77c.3-1.47-.69-3.3-2.41-3.16-2.12.16-4.25.33-6.37.49-.95.07-1.89.17-2.84.21-.72.03-.36.09-.55-.13-.37-.43-.39-1.7-.48-2.23-.15-.9-.33-1.8-.53-2.7-.43-1.94-.98-3.84-1.62-5.72-.49-1.44-2.25-2.44-3.67-1.49-5.98,3.96-12.42,6.9-19.07,9.53-6.14,2.42-12.36,4.63-18.06,8-2.58,1.52-5.05,3.15-7.2,5.24-2.52,2.44-4.82,5.11-7.05,7.81s-3.27,5.87-4.14,9.25c-.15.57-.3,1.15-.48,1.71-.06.19-.28.61-.06.22-.07.13-.45.66-.17.32-.83.99-1.94,1.78-2.93,2.58s-2.22,1.69-2.88,2.88c-1.09,1.97.13,4.18,1.13,5.9,1.56,2.69,4.46,6.56,3.39,9.84-1,3.07,3.83,4.38,4.82,1.33h0Z"/>
      <path class="cls-2" d="M262.64,33.2c8.72-1.25,17.3-3.33,25.62-6.2l-3.08-1.75c2.29,15.33,5.78,30.47,10.42,45.26,4.18,13.32,9.29,26.37,15.29,38.98,5.08,10.69,10.82,21.09,17.33,30.98,5.14,7.82,10.76,15.41,17.11,22.31,4.17,4.52,8.8,9.12,14.22,12.13.45.25.9.48,1.37.7,1.22.57,2.69.35,3.42-.9.63-1.08.33-2.85-.9-3.42-.98-.45-1.92-.99-2.82-1.57-.52-.33-1.03-.68-1.54-1.04-.26-.18-.51-.37-.77-.56-.09-.07-.54-.41-.23-.17s-.15-.12-.23-.18c-2.55-2.04-4.94-4.28-7.21-6.63-6.22-6.43-11.21-12.99-16.2-20.31-6.45-9.48-12.16-19.47-17.25-29.74-5.95-12-11.02-24.41-15.24-37.12-4.79-14.41-8.49-29.18-11.03-44.14-.33-1.96-.64-3.93-.94-5.89-.19-1.28-1.91-2.15-3.08-1.75-8.33,2.87-16.9,4.95-25.62,6.2-1.34.19-2.07,1.89-1.75,3.08.39,1.44,1.73,1.94,3.08,1.75h0Z"/>
      <path class="cls-2" d="M349.06,177.23c9.46,11.12,21.45,19.78,35.6,23.76l-1.1-4.18c-2.82,3.23-6.46,6.02-7.71,10.31-1.48,5.1.63,10.61,3.92,14.51s5.58,8.65,7.49,13.55c1.73,4.43,2.66,8.95,2.53,13.72-.14,5.38-1.44,10.18-4.53,14.62-.77,1.11-.2,2.78.9,3.42,1.24.73,2.65.21,3.42-.9,5.7-8.2,6.42-18.94,3.82-28.4-.63-2.29-1.57-4.5-2.48-6.69-1.05-2.53-2.17-5.04-3.57-7.41-2.47-4.16-6.74-7.39-6.95-12.58-.19-4.66,3.86-7.37,6.7-10.63,1.22-1.4.8-3.64-1.1-4.18-13.37-3.76-24.48-11.99-33.4-22.48-.88-1.03-2.64-.9-3.54,0-1.02,1.02-.88,2.5,0,3.54h0Z"/>
      <path class="cls-2" d="M376.45,266.36c-4.01.63-8.83.82-13.21.76-5.38-.08-10.77-.51-16.08-1.35-5.6-.89-11.15-2.17-16.51-4.04-4.65-1.62-9.04-3.79-13.49-6.17-4.98-2.66-9.94-5.5-14.46-8.9-1.08-.81-2.79-.17-3.42.9-.75,1.28-.19,2.61.9,3.42,4.11,3.09,8.6,5.7,13.1,8.16,4.59,2.51,9.3,4.89,14.2,6.74,10.75,4.07,22.47,5.85,33.92,6.2,5.48.17,10.97-.04,16.39-.9,1.33-.21,2.08-1.88,1.75-3.08-.39-1.42-1.74-1.96-3.08-1.75h0Z"/>
      <path class="cls-2" d="M217.69,253.01c-2.47,4.87-4.06,10.18-5.26,15.49-1.63,7.21-2.53,14.62-2.77,22.01-.12,3.7-.17,7.47.22,11.16.3,2.81.84,5.6,1.41,8.37.49,2.4,1.04,4.79,1.43,7.21.03.19-.02-.39.01.11.01.16.03.33.04.49,0,.13-.01.28,0,.41.08.45.09-.43.03-.23.23-.78.51-.88.99-1.28-.13.11-.4.28-.52.4-.13.13-.33.38-.42.54-.45.77-.45,1.79,0,2.56.77,1.32,2.27,1.37,3.61,1.29,1.69-.11,3.37-.35,5.03-.6,5.58-.83,11.11-2.07,16.55-3.54,7.55-2.04,14.95-4.59,22.14-7.67,5.78-2.47,11.08-5.84,16.03-9.71,10.68-8.34,19.74-19.29,25.51-31.57.75-1.59,1.43-3.2,2.08-4.83.5-1.26-.54-2.75-1.75-3.08-1.42-.39-2.58.49-3.08,1.75-5.59,14.13-15.94,26.76-28.23,35.63-6.3,4.55-13.15,7.73-20.43,10.37-7.57,2.75-15.35,4.96-23.24,6.59-1.63.34-3.27.65-4.91.92-.67.11-1.34.22-2.01.32-.3.05-.61.09-.91.13-.39.06.41-.05.03,0-.17.02-.33.04-.5.06-.83.1-1.67.2-2.51.24-.27.01-.54,0-.81.02-.17.01-.43-.12.06.03.37.11.83.13,1.24.62l.64,1.1h0v1.32l-.62,1.06c-.54.42-.61.48-.21.16.05-.07.24-.18.33-.27.35-.36.57-.78.71-1.26.16-.58.16-1.2.1-1.79-.15-1.65-.49-3.29-.83-4.92-.8-3.91-1.83-7.95-2.12-11.79-.84-10.91.26-22.22,2.88-32.83,1.07-4.33,2.4-8.68,4.32-12.45,1.45-2.86-2.86-5.4-4.32-2.52h0Z"/>
      <path class="cls-2" d="M210.46,244.5c-1.62.3-3.18.96-4.7,1.58-2.39.98-4.75,2.05-7.09,3.16-4.54,2.17-9.05,4.46-13.41,6.96-2.03,1.16-3.93,2.49-5.87,3.79-3.48,2.32-6.99,4.59-10.55,6.78-6.91,4.24-14.01,8.18-21.4,11.51-7.81,3.52-15.99,6.25-24.42,7.87-1.33.25-2.08,1.85-1.75,3.08.38,1.39,1.74,2,3.08,1.75,15.47-2.97,29.95-9.75,43.43-17.72,3.57-2.11,7.08-4.31,10.55-6.58,2.66-1.73,5.24-3.62,7.95-5.27,4.01-2.44,8.23-4.58,12.44-6.65,2.57-1.27,5.16-2.5,7.8-3.62.4-.17-.28.12.11-.05.15-.06.31-.13.46-.19.26-.11.52-.21.77-.31.5-.2,1.01-.39,1.52-.57.79-.28,1.58-.54,2.4-.7,1.33-.25,2.08-1.85,1.75-3.08-.38-1.39-1.74-1.99-3.08-1.75h0Z"/>
      <path class="cls-2" d="M120.84,288.57c-1.01,11.09,2.02,22.53,7.76,32.02,4.77,7.88,10.82,15.24,18.58,20.32,4.19,2.74,8.78,4.77,13.43,6.6,1.26.5,2.74-.54,3.08-1.75.39-1.42-.48-2.58-1.75-3.08-7.38-2.91-14.21-6.63-19.72-12.35-6.62-6.86-12.03-15.39-14.68-24.58-1.61-5.59-2.22-11.39-1.69-17.19.12-1.35-1.24-2.5-2.5-2.5-1.45,0-2.38,1.15-2.5,2.5h0Z"/>
      <path class="cls-2" d="M175.32,284.3c5,15.11,7.89,30.95,4.75,46.77-.88,4.4-2.14,8.72-3.66,12.94-.46,1.27.52,2.74,1.75,3.08,1.39.38,2.62-.47,3.08-1.75,2.73-7.58,4.53-15.47,5.05-23.52s-.34-16.14-2.03-24.01c-1.07-5.02-2.5-9.96-4.11-14.83-1.01-3.04-5.84-1.74-4.82,1.33h0Z"/>
      <path class="cls-2" d="M107.64,353.98c-7.08,2.24-14.02,4.88-20.82,7.86-6.54,2.86-13.13,5.86-19.13,9.75-4.68,3.03-10.15,6.87-12.59,12.08-.98,2.1-1.4,4.39-.58,6.61.87,2.38,2.68,4.16,4.73,5.57,4.39,3,10.1,4.45,15.34,4.9,1.35.12,2.5-1.23,2.5-2.5,0-1.45-1.15-2.38-2.5-2.5-1.08-.09-1.06-.09-2.23-.31-1.04-.19-2.07-.42-3.09-.7-2.12-.57-4.1-1.26-5.99-2.3-1.68-.92-3.08-1.97-3.88-3.43-.23-.42-.1-.18-.05-.07-.09-.23-.15-.46-.22-.69-.19-.64-.01.49-.04-.18,0-.14,0-.29,0-.43,0-.34.27-1.34.53-1.81,2.38-4.35,6.85-7.52,10.99-10.17,5.53-3.53,11.54-6.31,17.53-8.97,6.8-3.02,13.77-5.65,20.86-7.9,3.06-.97,1.75-5.8-1.33-4.82h0Z"/>
      <path class="cls-2" d="M72.99,400.63c17.83,1.48,35.79,1.17,53.46-1.76,16.59-2.76,32.61-7.88,47.62-15.49,6.88-3.49,13.59-7.43,19.69-12.17,5.15-4,10.99-9.33,11.9-16.16.52-3.86-1.02-8.34-4.77-10-2.25-.99-4.68-1.48-7.1-1.85-3.86-.58-7.75-.86-11.65-.97-15.61-.44-31.23,1.56-46.42,5.06-2.35.54-4.69,1.12-7.02,1.73-3.11.81-1.79,5.64,1.33,4.82,14.85-3.87,30.03-6.41,45.4-6.65,6.7-.1,13.65-.06,20.15,1.4.99.22,1.96.51,2.92.84.08.03.16.06.24.09.32.12-.45-.21-.16-.07.15.08.3.14.45.22.11.06.22.13.34.19.41.23.14.23-.05-.07.13.19.65.8.26.23.23.33.45.66.64,1.02.09.17.18.35.26.53-.2-.45-.05-.13.03.14.06.2.12.41.17.61.04.17.13.91.07.27.04.44.06.89.04,1.33,0,.16-.09.8-.01.33-.05.31-.11.62-.19.93-.33,1.32-.76,2.2-1.52,3.44-1.79,2.92-4.34,5.34-6.95,7.51-5.35,4.46-11.45,8.07-17.57,11.34-14.1,7.53-29.18,12.71-44.87,15.73-16.44,3.17-33.28,3.85-49.97,2.87-2.23-.13-4.46-.29-6.69-.48-1.35-.11-2.5,1.23-2.5,2.5,0,1.45,1.15,2.39,2.5,2.5h0Z"/>
      <path class="cls-2" d="M129.61,378.47c-9.19-10.9-17.73-22.35-25.42-34.36s-14.58-24.53-19.94-37.71-8.72-25.86-10.24-39.46c-1.58-14.16-1.28-28.57,1-42.64,2.54-15.69,7.39-31,14.51-45.22l-4.57-1.93c-3.62,11.9-4.86,24.55-5.33,36.94-.54,14.29.15,28.65,1.9,42.84,1.61,13.06,3.99,26.17,8.26,38.65,4.64,13.55,11.88,26.21,20.28,37.76,9.69,13.32,20.9,25.46,31.93,37.66,1.56,1.73,3.12,3.45,4.68,5.18,2.16,2.4,5.68-1.15,3.54-3.54-11.07-12.29-22.5-24.37-32.59-37.5-4.51-5.88-8.73-11.99-12.47-18.4-1.9-3.25-3.67-6.58-5.32-9.97-1.5-3.1-2.77-5.9-3.92-8.91-4.49-11.72-7.04-24.2-8.81-36.6-1.98-13.83-2.83-27.87-2.62-41.84.19-12.49,1.13-25.03,4.22-37.14.33-1.28.68-2.55,1.07-3.82.81-2.67-3.29-4.49-4.57-1.93-13.11,26.2-18.97,55.92-16.69,85.14,1.1,14.13,4.09,27.96,9.05,41.24,5.11,13.67,11.82,26.72,19.45,39.14,8.62,14.04,18.44,27.34,29.06,39.93.87,1.03,2.64.9,3.54,0,1.02-1.02.87-2.5,0-3.54h0Z"/>
      <path class="cls-2" d="M67.42,215.67c1.14-9.11.16-20.2-7.3-26.57-8.47-7.23-19.81-4.99-30-6.18-4.6-.54-9.84-2-12.72-5.92-.98-1.33-2.64-1.67-3.93-.51-1.9,1.72-1.94,4.28-1.52,6.62s1.05,4.55,1.78,6.76c1.48,4.46,3.48,8.78,6.08,12.7,5.24,7.86,12.79,14,21.87,16.82,5.21,1.62,10.67,1.97,16.04,1.06,1.33-.23,2.08-1.87,1.75-3.08-.39-1.41-1.74-1.97-3.08-1.75-7.9,1.34-16.06-1.11-22.58-5.58s-11.27-11.23-14.16-18.47c-.84-2.12-1.55-4.29-2.13-6.5-.28-1.08-.59-2.18-.75-3.28-.09-.61-.24-1.33.24-1.76l-3.93-.51c6.11,8.32,16.85,8.62,26.25,8.81,4.89.1,10.19.24,14.62,2.57,3.8,2,6.32,5.44,7.59,9.49,1.55,4.92,1.51,10.2.88,15.28-.17,1.34,1.27,2.5,2.5,2.5,1.49,0,2.33-1.15,2.5-2.5h0Z"/>
      <path class="cls-2" d="M27.41,195.47c10.91-.65,21.45,5.83,25.77,15.87.53,1.24,2.36,1.52,3.42.9,1.28-.75,1.43-2.18.9-3.42-4.96-11.52-17.62-19.09-30.09-18.35-3.2.19-3.22,5.19,0,5h0Z"/>
      <path class="cls-2" d="M59.85,234.62c-8.52-5.67-20.1-9.92-29.76-4.44-8.67,4.91-11.52,15.01-16.81,22.77-2.77,4.07-6.43,7.66-11.46,8.48-1.34.22-2.07,1.89-1.75,3.08.64,2.34,2.64,3.61,4.82,4.32,2.38.78,4.93,1.24,7.41,1.6,5.25.77,10.51.88,15.77.12,9.07-1.3,17.76-5.45,24.01-12.23,3.41-3.7,6-8.04,7.49-12.85.96-3.08-3.87-4.4-4.82-1.33-2.18,7.03-7.27,12.83-13.52,16.61-7.27,4.4-15.87,5.82-24.26,5.21-2.46-.18-4.89-.55-7.29-1.08-1.15-.25-2.33-.5-3.46-.88-.54-.18-1.23-.45-1.33-.83l-1.75,3.08c9.69-1.56,14.87-10.98,19.07-18.83,2.08-3.88,4.26-7.84,7.54-10.85s7.68-4.26,12.17-3.86c5.55.48,10.82,3.2,15.39,6.23,2.69,1.79,5.19-2.54,2.52-4.32h0Z"/>
      <path class="cls-2" d="M23.39,260.97c4.37-10.02,14.94-16.45,25.85-15.75,1.35.09,2.5-1.21,2.5-2.5,0-1.43-1.15-2.41-2.5-2.5-12.47-.8-25.15,6.73-30.17,18.22-.54,1.24-.36,2.68.9,3.42,1.06.62,2.88.35,3.42-.9h0Z"/>
      <path class="cls-2" d="M91.58,227.43c.47-5.12,2.19-11.48,7.29-13.83,3.13-1.44,6.83-.94,10.1-.35s6.71,1.41,10.14,1.44c3.89.04,7.63-.94,10.6-3.53l-3.93-.51c.34.52-1.19,2.9-1.49,3.44-.8,1.49-1.71,2.92-2.7,4.29-1.91,2.62-4.31,4.99-7.02,6.79-5.87,3.9-13.25,5.17-19.89,2.56-1.26-.49-2.74.54-3.08,1.75-.39,1.42.48,2.58,1.75,3.08,8.14,3.2,17.74,1.33,24.71-3.73,3.36-2.44,6.19-5.44,8.53-8.88,1.1-1.61,2.07-3.31,2.91-5.08,1.01-2.12,2.05-4.56.6-6.75-.93-1.4-2.67-1.6-3.93-.51-2.28,2-5.5,2.2-8.4,2.02-3.63-.23-7.16-1.26-10.76-1.72-3.84-.48-7.84-.25-11.29,1.67-2.8,1.56-4.98,4.15-6.37,7.01-1.66,3.4-2.44,7.07-2.78,10.82-.12,1.35,1.24,2.5,2.5,2.5,1.45,0,2.38-1.15,2.5-2.5h0Z"/>
      <path class="cls-2" d="M111.47,216.49c-6.04-1.66-12.58.77-16.21,5.81-.77,1.06-.22,2.83.9,3.42,1.29.68,2.6.24,3.42-.9.28-.38-.18.2.01-.03.08-.1.16-.2.25-.29.19-.22.38-.43.59-.63s.42-.4.63-.59c.12-.1.25-.2.37-.31-.15.12-.28.2-.05.04.48-.33.96-.64,1.48-.91.29-.15.58-.29.87-.42-.53.24.23-.07.4-.13.55-.19,1.11-.34,1.68-.45.13-.02.25-.05.38-.07.55-.09.02-.06,0,0,.01-.05.82-.06.87-.07.58-.02,1.16,0,1.74.05.07,0,.49.08.15.01-.38-.07.16.03.24.05.32.06.63.14.94.22,1.26.35,2.78-.43,3.08-1.75s-.4-2.71-1.75-3.08h0Z"/>
      <path class="cls-2" d="M202.24,207.78c9.92,1.43,19.91,2.45,29.94,2.62,8.95.15,18.04-.35,26.8-2.27,6.69-1.47,18.51-5.63,15.08-14.8-.89-2.39-2.5-4.45-4.36-6.17-2.36-2.19-5.9,1.34-3.54,3.54.57.53,1.12,1.09,1.62,1.69.23.27.52.71.1.1.14.21.3.41.45.61.28.42.55.85.78,1.3.06.11.1.23.16.33.25.43-.16-.51-.06-.16.07.25.18.49.26.75.07.24.1.48.17.72.13.46,0-.53-.03-.2-.01.13.02.29.03.42,0,.23-.08.53-.03.74-.12-.59.11-.51.01-.18-.05.16-.08.32-.13.48-.03.11-.09.21-.11.32-.07.31.3-.5.04-.11-.17.24-.35.54-.48.8s.39-.41-.02.03c-.1.1-.19.21-.29.32-.28.3-.6.57-.91.83-.35.3.36-.24-.03.02-.2.13-.39.27-.6.4-.42.27-.85.51-1.29.74s-.86.43-1.3.62-.16.07-.06.03c-.15.06-.31.12-.46.18-.32.12-.65.24-.98.36-1.37.48-2.76.87-4.17,1.21-7.85,1.89-16.04,2.39-24.1,2.39-10.42-.01-20.84-.98-31.15-2.46-1.33-.19-2.69.33-3.08,1.75-.32,1.17.4,2.88,1.75,3.08h0Z"/>
      <path class="cls-2" d="M279.78,119.65c-.57.5.4-.25-.3.24-.25.17-.5.33-.76.48-.53.31-1.09.59-1.65.84-1.27.55-2.67,1.01-4.05,1.21-.4.06-.83.09-1.24.07-.2,0-.63-.09-.95-.22-1.16-.46-2.17-1.32-3.03-2.2-1.77-1.82-2.73-3.88-2.96-6.4-.25-2.76.21-6.24,1.86-8.55.35-.49.84-.94,1.34-1.27.18-.12.38-.2.56-.32-.16.11.53-.06,0-.03.63-.03,1.37.06,1.95.32.06.02.23.13.28.16.08.05.46.42.35.26.13.17.22.39.31.58-.26-.55.01.03.04.15.04.17.09.33.13.51.08.38.02-.58,0,.11-.04.92-.33,1.84-.91,2.92-1.26,2.34-2.88,3.65-5.42,4.28-1.13.28-2.28.43-3.43.61s-2.22.42-3.44.25c-1.07-.15-2.48-.32-3.44-.81-.89-.45-1.27-1.19-1.74-2.05-1.28-2.39-2.56-4.91-2.86-7.65-.32-2.91,1-5.74,2.26-8.3.98-2.01,2.23-3.91,3.59-5.58,1.87-2.3,3.84-4.55,6.05-6.53,2-1.79,4.41-4.11,7.28-3.79.89.1,1.32.63,1.54,1.14.18.42.32.86.46,1.3.03.09.12.78.06.19.03.31.04.62.02.93-.03.46-.46,1.75-.89,2.56-.69,1.3-1.54,2.52-2.49,3.65-2,2.39-4.25,4.56-6.56,6.65-2.01,1.82-3.95,3.43-6.33,4.73-2.17,1.19-4.43,2.18-6.67,3.09-1.76.71-3.49,1.46-5.37,1.83-2.6.52-5.57.35-7.79-1.24-1.47-1.05-2.17-2.75-2.33-4.69-.43-4.96.74-10.01,2.27-14.78.83-2.57,1.89-5.05,3.37-7.32s3.44-4.08,5.51-5.73,4.29-3.09,6.64-4.26c.91-.46,1.44-.71,2.5-.99.17-.04.34-.07.51-.12l.19-.03c-.36.04-.41.05-.14.03.04.08.96-.12-.09-.05.19.06.16.04-.08-.06.13.06.26.13.39.2.43.28.34.16.49.5,0,.01.14.74.15,1.05.01.34,0,.69-.01,1.03-.04.79-.04.69-.15,1.26-.52,2.64-1.69,5.16-3.07,7.45-1.56,2.59-3.49,4.93-5.56,7.13s-4.49,4.69-6.87,6.24c-3.74,2.45-9.08,3.55-13.33,2.7-2.17-.43-3.5-1.06-4.82-2.75.27.35-.33-.51-.41-.63-.25-.4-.46-.81-.67-1.23s-.07-.15-.03-.05c-.09-.22-.17-.45-.25-.67-.19-.54-.34-1.08-.46-1.64-.24-1.08-.25-1.23-.3-2.35s0-2.15.11-3.23c.08-.72.26-1.72.5-2.7.28-1.17.63-2.32,1.05-3.44,1.65-4.47,4.48-8.69,7.87-12.12,1.86-1.88,3.9-3.54,6.12-4.97,2.7-1.74.19-6.07-2.52-4.32-9.9,6.37-18.19,17.82-18.14,29.99.02,4.93,1.79,10.32,6.08,13.16,4.95,3.28,12.33,2.59,17.62.58,3.31-1.26,5.9-3.23,8.5-5.61,2.91-2.66,5.58-5.57,7.92-8.73,2.15-2.9,3.89-6.15,4.98-9.59.76-2.41,1.24-5.34.51-7.82-.88-2.95-3.74-4.7-6.73-4.18-2.64.46-5.22,1.98-7.46,3.39-2.88,1.81-5.64,3.94-7.99,6.4s-4.14,5.51-5.48,8.72c-2.36,5.64-3.88,12.23-3.78,18.37.05,3.12.8,6.2,2.93,8.56,2.38,2.63,6.12,3.78,9.59,3.79,2.84.01,5.52-.71,8.13-1.76,2.75-1.11,5.5-2.23,8.14-3.58,2.98-1.53,5.5-3.52,7.99-5.75,2.73-2.45,5.4-5.03,7.66-7.92,2.02-2.59,4.05-5.7,4.05-9.11,0-2.99-1.59-6.28-4.34-7.63-1.6-.78-3.83-.73-5.54-.4-2.02.39-3.71,1.64-5.31,2.86-2.85,2.18-5.35,4.67-7.66,7.41-1.94,2.3-3.81,4.66-5.19,7.35-1.65,3.2-3.37,6.91-3.28,10.58.1,3.86,1.7,7.34,3.44,10.71.61,1.18,1.36,2.35,2.39,3.22,1.47,1.24,3.17,1.7,5.02,2.07s3.7.55,5.61.18c1.22-.24,2.44-.39,3.66-.62,3.26-.61,6.19-2.06,8.23-4.73s3.55-6.03,2.69-9.28-3.71-5.05-6.99-5.31c-3.95-.32-6.77,3.12-8.13,6.42-1.52,3.67-1.85,7.65-1.02,11.53.71,3.27,2.72,6.23,5.31,8.32,1.29,1.05,2.7,1.96,4.32,2.42s3.34.28,4.98-.06c2.99-.62,6.15-1.92,8.46-3.96,1.01-.89.91-2.62,0-3.54-1.01-1.01-2.52-.9-3.54,0h0Z"/>
      <path class="cls-2" d="M270.08,136.75c-1.9-4.02-7.38-5.22-10.89-2.57s-5.25,7.34-6.03,11.5-1.3,9.31.75,13.36,6.98,5.7,11,3.27c4.75-2.86,5.72-8.93,5.48-14.05-.15-3.2-5.15-3.22-5,0s0,8.68-3.77,10.14c-3.16,1.23-4.12-3.74-4.13-5.95-.02-3.76.54-7.93,2.38-11.27.63-1.15,1.6-2.99,2.96-3.37s2.35.22,2.92,1.45,2.33,1.54,3.42.9c1.25-.73,1.47-2.19.9-3.42h0Z"/>
      <path class="cls-2" d="M242.84,124.69c-.79-1.84-2.14-3.21-4.13-3.69-2.1-.51-4.49-.06-6.03,1.55-1.44,1.5-2.2,3.86-2.97,5.75-.64,1.58-1.17,3.2-1.55,4.87-.74,3.27-1.38,7.26.11,10.41.7,1.48,1.9,2.68,3.48,3.21,2.01.67,3.98-.12,5.53-1.4s2.58-3.15,3.44-4.98c1.04-2.23,1.78-4.55,1.75-7.04-.03-3.22-5.03-3.22-5,0,.02,1.64-.44,3.2-1.14,4.67-.59,1.24-1.24,2.76-2.33,3.6-.12.1-.87.47-.67.39-.31.08-.33.08-.08.01.21.02.15,0-.18-.08.06-.01.11,0,.14.06.1.1.06.06-.13-.12-.2-.22-.21-.23-.03,0-.07-.11-.14-.21-.2-.33-.49-.79-.5-2.21-.41-3.43.2-2.77.95-5.71,2.08-8.51.29-.72.62-1.43.96-2.13.27-.56.47-1.29.99-1.61.35-.21.77-.16,1.23.02.24.15.27.15.07,0,.19.21.23.24.12.1.22.4.43.78.62,1.2.54,1.24,2.36,1.52,3.42.9,1.28-.75,1.43-2.18.9-3.42h0Z"/>
      <path class="cls-2" d="M294.51,247.28c14.24,8.94,26.94,20.14,38.49,32.3,12.38,13.04,23.49,27.26,33.53,42.17,9.89,14.69,18.78,30.06,26.53,45.98,1.79,3.69,3.52,7.41,5.18,11.16.39.89.78,1.78,1.17,2.67.36.84.99,1.88,1.09,2.8.14,1.3-2.17,1.86-3.15,2.24-6.87,2.7-13.88,5.04-21.01,6.93-16.77,4.45-34.07,6.32-51.39,6.72-2.6.06-5.2.09-7.8.09-3.22,0-3.22,5,0,5,18.67-.01,37.43-1.47,55.63-5.77,7.49-1.77,14.86-4.02,22.07-6.69,1.79-.66,3.57-1.34,5.34-2.07,2.16-.89,4.32-2.16,5.08-4.52.8-2.48-.52-4.88-1.48-7.1-.82-1.9-1.66-3.8-2.52-5.68-7.4-16.3-16.06-32.04-25.72-47.12-10.1-15.75-21.33-30.84-33.85-44.75-11.83-13.14-24.89-25.33-39.52-35.31-1.7-1.16-3.41-2.28-5.15-3.37-2.73-1.72-5.25,2.61-2.52,4.32h0Z"/>
      <path class="cls-2" d="M386.63,394.94c5.32,13.09,8.78,26.83,10.83,40.8s2.73,28.96,2.97,43.48c.15,8.99.13,17.97.12,26.96,0,3.22,4.99,3.22,5,0,.03-15.6.09-31.23-.8-46.81-.82-14.4-2.49-28.81-5.91-42.84-1.9-7.81-4.36-15.47-7.38-22.92-.51-1.25-1.66-2.13-3.08-1.75-1.19.33-2.26,1.82-1.75,3.08h0Z"/>
      <path class="cls-2" d="M327.03,404.98c6.04,14.78,11.69,29.74,16.51,44.97,4.23,13.38,7.85,26.99,10.27,40.82,1.21,6.96,2.09,13.98,2.53,21.04.2,3.2,5.2,3.22,5,0-.82-13.17-3.1-26.23-6.19-39.04-3.53-14.64-8.13-29.02-13.25-43.18-3.16-8.72-6.52-17.35-10.03-25.94-.51-1.25-1.66-2.13-3.08-1.75-1.18.33-2.26,1.82-1.75,3.08h0Z"/>
      <path class="cls-2" d="M338.61,513.28c-18.55,3.25-37.39,4.84-56.2,5.55-20.4.76-40.88.42-61.23-1.36-10.52-.92-21.01-2.25-31.39-4.22-1.33-.25-2.7.37-3.08,1.75-.34,1.22.41,2.82,1.75,3.08,19.47,3.69,39.32,5.33,59.11,5.91,20.4.6,40.86.02,61.19-1.83,10.44-.95,20.85-2.25,31.18-4.05,1.33-.23,2.08-1.86,1.75-3.08-.39-1.41-1.74-1.98-3.08-1.75h0Z"/>
      <path class="cls-2" d="M95.58,338.54c-10.43,10.31-19.75,21.61-28.49,33.37-.81,1.08-.18,2.79.9,3.42,1.27.75,2.61.19,3.42-.9,8.49-11.41,17.59-22.35,27.71-32.35,2.29-2.27-1.24-5.8-3.54-3.54h0Z"/>
      <path class="cls-2" d="M124.72,308.76c-5.8,5.76-11.44,11.68-17.2,17.47-2.27,2.28,1.26,5.82,3.54,3.54,5.77-5.79,11.4-11.72,17.2-17.47,2.29-2.27-1.25-5.8-3.54-3.54h0Z"/>
      <path class="cls-2" d="M58.17,395.14c-2.7,7.44-4.36,15.25-5.23,23.11s-.89,16.26,1.35,23.98c.89,3.08,5.72,1.77,4.82-1.33-2.12-7.31-2-15.15-1.17-22.65s2.51-14.78,5.05-21.78c.46-1.27-.52-2.74-1.75-3.08-1.39-.38-2.61.47-3.08,1.75h0Z"/>
      <path class="cls-2" d="M80.56,427.46c-4.54-7.24-8.7-14.71-12.56-22.33-3.3-6.53-6.48-13.19-8.9-20.11-.44-1.27-1.71-2.12-3.08-1.75-1.24.34-2.19,1.79-1.75,3.08,2.51,7.19,5.79,14.13,9.21,20.93,3.91,7.75,8.13,15.35,12.75,22.71,1.71,2.72,6.03.21,4.32-2.52h0Z"/>
      <path class="cls-2" d="M199.92,349.62c2.17,22.51,1.93,45.18,1.79,67.77-.07,11.17-.11,22.34.1,33.5.07,3.62.2,7.24.15,10.86-.01,1.05-.11,2.08-.17,3.13-.02.41.13-.61,0-.02-.04.19-.07.39-.11.58-.07.3-.21.59-.27.89-.04.17.35-.58.02-.09-.09.13-.18.28-.25.42-.25.5.34-.31.07-.08-.12.1-.22.25-.34.36-.23.23-.49.42-.73.64-.26.24.26-.2.25-.19-.11.08-.22.17-.33.25-.28.2-.56.39-.85.58-3.81,2.44-8.41,3.44-12.97,4.18-1.33.22-2.08,1.87-1.75,3.08.39,1.42,1.74,1.96,3.08,1.75,4.46-.73,8.98-1.82,12.98-3.99,1.77-.96,3.59-2.19,4.77-3.87,1-1.43,1.3-3.15,1.46-4.85.27-2.74.13-5.53.08-8.28-.42-22.62.06-45.23-.19-67.84-.14-12.94-.57-25.9-1.81-38.79-.13-1.34-1.06-2.5-2.5-2.5-1.25,0-2.63,1.15-2.5,2.5h0Z"/>
      <path class="cls-2" d="M136.52,453.82c4.73-3.32,10.78-3.81,16.39-3.36.45.04.91.08,1.36.13.2.02.41.05.61.07-.48-.06-.3-.05.03.01,1.47.25,2.93.53,4.39.84,3.76.8,7.49,1.78,11.15,2.95,2.3.73,5.2,2.12,7,3.69,2.14,1.85,3.27,5.24,4.25,7.88,2.58,6.97,3.96,14.02,4.12,21.44.07,3.4.61,7.97-1.62,10.87s-6.9,2.84-10.24,2.89-3.22,5.05,0,5c3.93-.06,8.39-.21,11.73-2.56,3.53-2.48,4.82-6.4,5.09-10.55.54-8.31-.49-16.88-3.02-24.81-1.17-3.69-2.5-7.49-4.51-10.82-1.81-3-4.61-4.82-7.7-6.35-3.32-1.65-7.03-2.55-10.61-3.46-3.37-.85-6.79-1.62-10.24-2.06-6.93-.87-14.85-.26-20.72,3.86-1.1.77-1.62,2.19-.9,3.42.64,1.09,2.31,1.68,3.42.9h0Z"/>
      <path class="cls-2" d="M158.27,473.99c6.2,5.52,10.66,12.13,12.13,20.38.46,2.6.62,5.39.8,8.12.09,1.36.12,2.73.2,4.09,0,.09,0,.18,0,.28-.02.23.17-.48-.02.05-.12.34-.29.61-.52.89-.67.82-1.58,1.51-2.43,2.13-3.86,2.82-8.73,4.98-13.58,3.85-3.13-.73-4.47,4.09-1.33,4.82,5.33,1.24,10.74-.2,15.36-2.98,2.11-1.27,4.34-2.82,5.9-4.75,1.34-1.67,1.67-3.43,1.58-5.49-.32-7.32-.9-14.69-4.04-21.42-2.43-5.22-6.26-9.7-10.53-13.51-2.39-2.14-5.94,1.39-3.54,3.54h0Z"/>
      <path class="cls-2" d="M138.7,486.98c3.57,5.39,7.98,10.58,10.26,16.7,1.06,2.86,1.64,5.85,1.49,8.91-.05,1.07-.33,2.14-1,3.18-.25.39-.5.67-.84.97-.51.44.43-.31-.22.16-.31.22-.62.45-.94.66-2.35,1.63-4.76,3.21-7.25,4.6-1.1.62-1.78.93-2.77,1.25-.12.04-.8.12-.14.05-.35.04-.71.04-1.06.07-.93.07-1.88.25-2.81.19-1.22-.08-2.25-.79-3.27-1.42-1.37-.86-2.7-1.8-3.97-2.8-2.59-2.06-5.06-4.38-7.36-6.76-1.35-1.4-2.08-2.15-2.8-3.58-.29-.57-.53-1.15-.72-1.76-.08-.25-.15-.5-.2-.76.13.69,0-.71,0-.86,0-.59-.05-1.03.3-1.5.45-.62,1.24-1.18,1.85-1.64,1.42-1.1,3.05-1.98,4.73-2.62,1.26-.48,2.13-1.68,1.75-3.08-.33-1.21-1.81-2.23-3.08-1.75-1.92.74-3.77,1.6-5.46,2.79-1.55,1.09-3.46,2.43-4.37,4.16-1.65,3.15-.49,7.06,1.09,9.97,1.7,3.14,4.82,5.66,7.41,8.05,2.79,2.57,5.75,5,9.04,6.93,1.7,1,3.44,1.68,5.44,1.66,1.62-.01,3.49-.09,5.06-.52,3.03-.81,5.81-2.84,8.4-4.52s5.33-3.19,6.8-5.93c1.78-3.29,1.57-7.19.96-10.77-1.46-8.6-7.35-15.49-12.03-22.54-1.77-2.67-6.1-.17-4.32,2.52h0Z"/>
      <path class="cls-2" d="M112.69,486.75c1.79,2,2.91,4.56,4.01,6.99s2.26,4.88,4.1,7.01c1.71,1.98,3.52,3.69,4.69,6.06,1.24,2.51,2.11,5.42,1.52,8.22-.28,1.32.39,2.7,1.75,3.08,1.24.34,2.8-.42,3.08-1.75.74-3.52.16-6.97-1.21-10.26-1.26-3.02-3.07-5.37-5.28-7.76-1.98-2.15-3.13-4.48-4.33-7.12-1.3-2.86-2.68-5.64-4.79-8s-5.68,1.14-3.54,3.54h0Z"/>
      <path class="cls-2" d="M135.26,449.16c-9.44-.82-19-2.02-28.04-4.96-5.92-1.93-11.35-4.09-16.59-7.57-3.99-2.64-7.49-5.94-10.46-9.68-.84-1.06-2.66-.88-3.54,0-1.04,1.04-.84,2.48,0,3.54,9.94,12.5,25.59,18.58,40.89,21.39,5.87,1.08,11.8,1.77,17.74,2.28,1.35.12,2.5-1.23,2.5-2.5,0-1.45-1.15-2.38-2.5-2.5h0Z"/>
      <path class="cls-2" d="M113.2,482.82c-.14.07-.29.14-.43.21-.37.18.46-.14-.08.03-.38.11-.74.25-1.12.35s-.74.16-1.12.23c-.48.09.44-.04-.05,0-.25.02-.49.05-.74.06-.85.05-1.71.04-2.56-.02-.45-.03-.91-.08-1.36-.13-.29-.04.1.01.13.02-.11-.02-.22-.03-.33-.05-.29-.05-.59-.1-.88-.15-4.6-.86-8.58-2.51-12.58-4.61-9.61-5.04-18.36-12.34-24.77-21.14-3.71-5.09-6.63-10.64-8.2-16.72-.8-3.11-5.63-1.79-4.82,1.33,3.05,11.8,10.75,22.09,19.78,30.06,8,7.06,17.8,13.42,28.36,15.72,4.39.95,9.18,1.22,13.3-.87,2.87-1.46.34-5.77-2.52-4.32h0Z"/>
      <path class="cls-2" d="M102.37,374.29c-3.39-.67-6.85-1.07-10.31-1.09-.95,0-1.95.11-2.76.63s-1.37,1.34-1.75,2.24c-.64,1.52-1.09,3.13-1.5,4.73-.32,1.27.41,2.77,1.75,3.08s2.73-.39,3.08-1.75.71-2.58,1.16-3.85c.02-.07.08-.37.15-.41-.12.08-.13.41-.03.08.08-.25.07-.12-.09.05.2-.23.06-.04-.08.05-.05.03-.41.23-.46.15.02.03.37,0,.42,0,.39,0,.78,0,1.17.02,1.38.04,2.76.14,4.13.29.17.02.34.04.51.06.04,0,.52.06.31.04s.27.04.31.04c.17.02.34.05.51.08.72.11,1.45.24,2.17.39,1.28.25,2.76-.36,3.08-1.75.28-1.24-.37-2.8-1.75-3.08h0Z"/>
      <path class="cls-2" d="M152.28,364.15c1.99-1.66,4.01-3.29,5.97-4.99.13-.11.12-.1-.06.04.26-.14.25-.16,0-.06.29-.08.29-.08,0-.01.26.02.3.02.12,0-.18-.02-.14,0,.12.03.18.04.36.07.53.11.31.06.62.13.93.19,1.29.27,2.58.53,3.87.8s2.76-.37,3.08-1.75c.28-1.25-.38-2.79-1.75-3.08s-2.85-.59-4.27-.88c-1.74-.36-3.45-.76-5.06.26-1.27.81-2.4,1.93-3.56,2.89l-3.47,2.9c-1.01.84-.93,2.68,0,3.54,1.07.98,2.46.9,3.54,0h0Z"/>
      <path class="cls-2" d="M179,366.81l1.17-3.5.3-.9c.06-.19.27-.56.25-.75.01.12-.26.45-.07.18-.19.26-.33.36-.59.52-.27.17-.01.03.1,0,.15-.03.3-.06.45-.09.57-.1,1.15-.19,1.73-.28.38-.06-.43.05-.05,0,.17-.02.34-.04.51-.06.27-.03.55-.06.82-.09,1.23-.12,2.47-.19,3.7-.22,1.31-.03,2.56-1.13,2.5-2.5s-1.1-2.53-2.5-2.5-2.75.12-4.11.26c-1.47.16-3.02.29-4.47.66-.99.25-1.91.86-2.42,1.76-.36.63-.56,1.38-.79,2.07l-1.37,4.11c-.42,1.24.48,2.79,1.75,3.08,1.38.31,2.63-.42,3.08-1.75h0Z"/>
      <path class="cls-2" d="M87.79,379.06c-5.75,2.24-11.02,5.34-15.76,9.3-1.01.84-.93,2.68,0,3.54,1.07.98,2.46.9,3.54,0,.26-.22.52-.43.79-.65.13-.11.27-.21.4-.32.08-.06.31-.24.1-.08.54-.41,1.09-.82,1.64-1.21,1.15-.81,2.33-1.57,3.53-2.28s2.37-1.34,3.59-1.94c1.38-.67,2.28-1.06,3.5-1.54s2.19-1.7,1.75-3.08c-.38-1.18-1.77-2.25-3.08-1.75h0Z"/>
      <path class="cls-2" d="M374.64,244.89c.52-4.18-1.29-8.73-3.03-12.43s-4-7.68-7.51-9.73c-2.78-1.63-5.3,2.69-2.52,4.32.14.08.27.17.41.25.26.17.33.27.05.02.28.25.57.5.84.77.29.3.57.61.84.93.02.03.48.59.17.19.14.18.28.37.42.56,1.17,1.63,2.15,3.39,3,5.2.45.96.63,1.39,1.02,2.46.35.95.65,1.92.9,2.9.12.46.22.92.31,1.39.04.22.08.44.11.67-.07-.44,0,0,.02.19.07.76.08,1.53-.01,2.29-.17,1.34,1.27,2.5,2.5,2.5,1.49,0,2.33-1.15,2.5-2.5h0Z"/>
      <path class="cls-2" d="M357.44,238.14c3.34-.43,6.78-.37,10.13-.15,2.12.14,3.47.28,5.44.69.81.17,1.61.37,2.39.64.17.06.34.12.51.18.56.19-.3-.18.16.06.33.17.66.33.98.53,2.74,1.7,5.25-2.62,2.52-4.32-3.31-2.06-7.67-2.46-11.46-2.75-3.53-.27-7.16-.34-10.68.11-1.34.17-2.5,1.03-2.5,2.5,0,1.22,1.15,2.67,2.5,2.5h0Z"/>
      <path class="cls-2" d="M267.26,135.6c-1.91.59-3.92,1.34-5.12,3-.5.69-.83,1.49-1.16,2.28-.35.84-.54,1.64-.59,2.57-.1,1.99.36,4.22,1.79,5.69,1.52,1.56,3.66,1.81,5.72,1.62,1.3-.12,2.56-1.07,2.5-2.5-.06-1.25-1.11-2.63-2.5-2.5-.38.03-.76.07-1.14.08-.16,0-.32,0-.47,0-.09,0-.19-.01-.28-.02l.29.03s-.36-.09-.42-.11c-.46-.13.46.29.06.02l-.13-.07c-.17-.11-.17-.11,0,.03.22.31,0-.03-.09-.1-.14-.16-.14-.15,0,.01.13.17.13.17,0,0-.04-.07-.08-.14-.12-.21-.08-.17-.06-.09.08.22-.11-.03-.21-.71-.23-.82-.02-.11-.04-.23-.06-.34l.05.32c.03-.1-.03-.41-.04-.52-.02-.33,0-.64,0-.97s-.13.51,0,.06c.05-.17.09-.33.15-.49.04-.1.08-.2.12-.31.21-.52-.14.31-.03.07s.23-.5.36-.75c.07-.13.14-.26.22-.38.05-.08.31-.43.04-.09s0,.03.06-.05c.14-.13.12-.11-.07.04-.19.14-.22.16-.07.06.3-.11.6-.32.89-.46.13-.06.27-.15.42-.19-.61.17-.05.02.08-.02.34-.13.68-.24,1.02-.35,1.25-.39,2.17-1.76,1.75-3.08s-1.74-2.16-3.08-1.75h0Z"/>
      <path class="cls-2" d="M240.89,123.47c-2.84-.88-5.73,1.02-7.01,3.49-.85,1.63-1.25,3.45-.9,5.27.29,1.52,1.33,3.04,2.71,3.77.8.43,1.74.69,2.65.61.75-.06,1.32-.23,2-.54.52-.24.95-.59,1.39-.95.47-.38.73-1.19.73-1.77,0-.61-.27-1.35-.73-1.77s-1.1-.76-1.77-.73c-.7.03-1.23.29-1.77.73l-.11.09.51-.39c-.24.19-.5.34-.78.47l.6-.25c-.24.1-.48.17-.74.2l.66-.09c-.2.02-.39.02-.59,0l.66.09c-.22-.04-.42-.1-.63-.18l.6.25c-.2-.09-.37-.2-.55-.33l.51.39c-.19-.15-.35-.31-.5-.49l.39.51c-.19-.25-.34-.53-.47-.82l.25.6c-.11-.27-.18-.55-.23-.84l.09.66c-.05-.37-.05-.74,0-1.12l-.09.66c.08-.59.25-1.15.48-1.7l-.25.6c.21-.47.46-.9.77-1.31l-.39.51c.25-.31.52-.59.83-.83l-.51.39c.26-.2.54-.37.85-.5l-.6.25c.26-.11.53-.18.81-.22l-.66.09c.22-.02.43-.02.65,0l-.66-.09c.16.02.32.06.48.11,1.25.39,2.78-.46,3.08-1.75.31-1.36-.41-2.66-1.75-3.08h0Z"/>
      <path class="cls-2" d="M261.17,136.63c-4.64,4.24-6.18,10.61-5.71,16.73.26,3.34,1.22,7.59,5.51,7.12,1.67-.18,3.3-.7,4.52-1.91,1.35-1.34,1.83-3.2,1.95-5.04.07-1.04.02-2.11-.55-3-.4-.62-1.01-1.04-1.72-1.23-.32-.09-.6-.08-.9-.1.03,0,.27,0,.27.06.02.16-.06,0-.15-.12-.15-.19-.14-.16-.24-.31-.19-.3-.26-.54-.36-.88-.24-.84-.31-1.69-.39-2.55-.09-1.11-.71-2.1-1.84-2.41-.98-.27-2.38.15-2.82,1.15-1.28,2.88-1.77,5.91-1.33,9.04.23,1.61.8,3.2,2.31,4.03,1.37.75,2.84.65,4.32.41,1.33-.22,2.08-1.87,1.75-3.08-.39-1.41-1.74-1.97-3.08-1.75-.17.03-.33.03-.07.01-.17,0-.33.01-.5.02-.32,0-.18-.11-.06,0,.03.03.25.18.28.19.01,0,.09.13.1.13,0,0-.13-.56-.13-.61-.06-.36-.08-.78-.1-1.16-.05-1.59.18-3.24.83-4.69l-4.66-1.26c.17,1.99.36,4.04,1.35,5.82.49.87,1.19,1.66,2.03,2.21.4.26.85.48,1.3.6.3.08.61.12.92.15.32.02.34.03.05.03l-1.49-1.15c-.09-.57-.13-.68-.11-.35,0,.16,0,.33,0,.49,0,.17-.02.52-.04.64-.07.45-.24.91-.38,1.12.09-.13-.34.27-.09.1-.02.01-.67.33-.35.21-.25.1-.51.14-.76.2-.23.05-.25-.04-.29.03-.3,0-.24.04.18.15l.16.11c.15.2.14.17-.02-.09l.05.12c-.08-.27-.16-.52-.22-.79-.01-.06-.14-.76-.09-.45-.17-1.11-.21-2.25-.2-3.37.01-2.19.27-4.08,1-6.19.66-1.93,1.74-3.4,3.32-4.85,1-.91.92-2.61,0-3.54-.99-.99-2.54-.91-3.54,0h0Z"/>
      <path class="cls-2" d="M230.52,131.92c.25,2.08.76,4.03,2.16,5.64,1.29,1.48,3.67,2.38,5.56,1.58l-2.82-3.67c-.58.75-1.15,1.51-1.73,2.26-.29.38-.58.75-.86,1.13.07-.09.34-.39.11-.15-.05.05-.18.15-.2.21.03-.08.47-.29.16-.14l.37-.17c.46-.04.58-.06.38-.06-.29,0,.61.1.32.03-.26-.06.51.25.27.11s.39.38.2.17c-.06-.06-.12-.13-.18-.18-.18-.17.25.42.15.18-.03-.08-.18-.38-.03,0s.02.04,0-.04c-.03-.1-.06-.19-.08-.29s-.04-.2-.06-.3c-.07-.31.04.53.03.21,0-.21-.03-.41-.03-.62s0-.42,0-.62c0-.11.04-.49-.03-.01-.05.34-.22.76-.49.99l-1.1.64.07-.02h-1.33l.08.02-1.1-.64c-.42-.84-.56-1.07-.41-.68.03.08.05.15.07.23.05.16.09.32.13.48.08.32.15.64.26.95.37,1.11.94,1.99,1.92,2.64,1.1.72,2.81.26,3.42-.9.66-1.25.27-2.66-.9-3.42-.05-.03.48.4.3.23,0,0-.11-.11-.11-.11.04-.02.3.49.23.29-.02-.04-.06-.1-.08-.14-.21-.31.18.56.07.18-.04-.13-.09-.26-.12-.4-.14-.49-.24-1-.42-1.48-.27-.73-.64-1.4-1.34-1.81-.91-.53-2.1-.44-2.92.2-.96.74-1.2,1.82-1.21,2.98-.01,1.75.29,3.6,1.58,4.89,1.56,1.56,4.08,1.67,5.61,0,.64-.7,1.17-1.51,1.75-2.26.52-.68,1.04-1.37,1.56-2.05.24-.31.34-.88.34-1.26,0-.56-.2-1.08-.54-1.51-.27-.35-.59-.6-1-.77-.46-.2-1.14-.33-1.63-.13-.12.05-.24.08-.36.13-.42.16.6,0,.17-.03-.33-.01-.33-.13.17.04-.1-.04-.26-.08-.37-.1.38.17.48.21.3.13-.06-.03-.12-.06-.17-.09-.12-.07-.22-.15-.34-.22.53.31.27.21.09.04-.1-.1-.18-.22-.28-.31l.22.28c-.06-.08-.11-.16-.16-.24-.08-.12-.15-.25-.21-.38l-.07-.13c-.11-.24-.08-.18.07.19,0-.12-.12-.31-.15-.43-.09-.27-.16-.54-.22-.81-.03-.15-.06-.3-.09-.45-.11-.63.05.49,0-.02-.08-.69-.22-1.26-.73-1.77-.43-.43-1.15-.76-1.77-.73s-1.32.24-1.77.73c-.42.45-.81,1.13-.73,1.77h0Z"/>
    </g>
  </g>
</svg>