
<svg version="1.0" xmlns="http://www.w3.org/2000/svg"
 width="512.000000pt" height="512.000000pt" viewBox="0 0 512.000000 512.000000"
 preserveAspectRatio="xMidYMid meet">

<g transform="translate(0.000000,512.000000) scale(0.100000,-0.100000)"
fill="currentColor" stroke="none">
<path d="M2217 4370 c-411 -89 -778 -345 -1013 -705 -156 -241 -270 -564 -276
-782 -6 -196 13 -455 48 -655 6 -34 4 -38 -14 -38 -24 0 -30 18 -60 160 -13
67 -17 135 -17 317 0 127 -3 226 -6 220 -15 -26 -29 -163 -29 -274 0 -121 18
-271 45 -378 23 -86 135 -348 221 -514 42 -79 74 -145 72 -147 -7 -6 -146 212
-186 291 -21 44 -61 138 -88 208 -27 71 -50 124 -52 118 -11 -34 70 -276 136
-408 43 -85 161 -259 223 -329 30 -34 69 -88 87 -120 88 -158 275 -358 434
-464 250 -168 490 -242 783 -241 492 0 968 266 1218 681 28 47 83 120 121 163
145 160 264 357 321 532 40 122 41 163 2 65 -81 -202 -181 -370 -287 -480 -57
-60 -59 -59 -13 10 257 382 333 608 333 994 0 385 -71 671 -235 941 -47 78
-161 235 -171 235 -7 0 26 -60 66 -120 66 -97 148 -263 184 -371 74 -221 125
-572 111 -769 -13 -196 -61 -400 -131 -559 -40 -90 -146 -261 -182 -292 -18
-16 -43 -29 -55 -29 -20 0 -22 -5 -22 -62 -1 -75 -46 -186 -119 -297 -102
-152 -342 -348 -546 -445 -491 -232 -991 -180 -1434 148 -156 115 -320 306
-372 433 -9 21 -76 162 -149 313 -160 331 -169 355 -154 416 9 36 8 56 -4 102
-32 118 -41 208 -40 407 0 158 5 225 22 319 27 149 85 327 156 471 236 486
690 826 1183 887 50 6 92 15 92 20 0 14 -64 48 -90 47 -14 0 -65 -9 -113 -19z"/>
<path d="M2680 4332 l-35 -17 50 -8 c197 -32 350 -82 512 -167 241 -126 456
-327 616 -576 105 -162 216 -423 218 -510 0 -22 4 -48 9 -59 6 -17 9 -14 16
20 34 163 -82 436 -316 745 -166 218 -421 410 -675 509 -196 77 -325 98 -395
63z"/>
<path d="M2374 4189 c-233 -21 -485 -118 -669 -258 -374 -284 -594 -675 -646
-1153 -42 -379 86 -909 297 -1225 116 -174 329 -364 522 -466 48 -25 175 -75
282 -112 107 -36 251 -93 319 -126 68 -32 127 -59 132 -59 21 0 6 21 -40 54
-45 33 -52 44 -76 116 -31 94 -87 184 -156 251 -61 60 -104 89 -237 163 -170
95 -267 203 -319 355 -14 41 -23 91 -23 130 0 75 9 71 34 -14 44 -146 106
-223 235 -291 136 -73 245 -150 311 -220 113 -122 157 -206 181 -347 12 -73
29 -104 29 -54 0 13 9 59 20 103 53 211 146 330 372 478 62 40 132 88 156 106
l43 32 -20 -51 c-48 -126 -114 -206 -246 -294 -121 -82 -187 -152 -236 -252
-21 -45 -39 -84 -39 -87 0 -3 26 2 58 12 31 10 109 31 172 45 178 41 353 132
493 257 35 31 47 48 42 60 -13 32 -32 25 -120 -43 -111 -85 -282 -172 -393
-199 -46 -12 -89 -19 -95 -17 -19 6 74 97 158 155 172 120 280 272 292 413 4
45 13 73 29 95 37 49 75 143 90 224 12 70 19 170 10 170 -2 0 -24 -11 -49 -25
-43 -25 -184 -61 -195 -51 -2 3 10 18 28 33 51 43 69 54 82 52 67 -11 140 75
252 298 20 40 49 88 66 107 21 23 27 37 19 42 -6 3 -50 9 -98 12 -72 4 -105 0
-196 -23 -272 -67 -427 -167 -555 -354 -60 -89 -80 -155 -87 -280 l-6 -106 48
70 c93 137 169 197 365 286 135 62 221 110 279 157 l35 27 -33 -48 c-50 -74
-149 -175 -213 -219 -32 -21 -105 -59 -163 -83 -122 -51 -176 -86 -236 -153
-83 -92 -106 -175 -108 -382 l-1 -45 45 92 c87 178 208 307 354 379 49 24 292
106 297 101 8 -8 -21 -113 -45 -162 -52 -104 -126 -167 -301 -255 -58 -29
-118 -62 -134 -73 l-29 -21 19 33 c38 65 137 162 272 264 140 107 187 149 147
133 -11 -4 -43 -16 -70 -26 -177 -62 -333 -188 -451 -366 -87 -130 -115 -214
-130 -389 -8 -104 -19 -76 -29 75 -10 155 -39 244 -116 359 -65 98 -152 183
-241 237 -53 33 -278 125 -287 118 -6 -6 31 -57 62 -87 17 -15 80 -61 141
-101 113 -75 208 -165 276 -262 l34 -49 -36 32 c-47 40 -136 89 -260 143 -176
76 -237 158 -276 372 l-9 47 51 -29 c28 -15 98 -42 156 -60 57 -18 130 -45
161 -61 128 -64 244 -191 323 -352 l43 -88 -4 83 c-6 113 -57 223 -149 314
-80 81 -163 122 -333 168 -142 39 -202 65 -274 120 -26 20 -49 36 -51 36 -5 0
-19 -298 -17 -365 1 -33 13 -92 26 -131 60 -178 175 -307 375 -419 101 -57
141 -86 210 -155 47 -47 97 -108 112 -137 l27 -51 -92 43 c-51 24 -148 60
-217 80 -265 79 -412 163 -586 339 -121 122 -189 218 -263 371 -83 171 -173
448 -207 634 -23 127 -21 367 5 512 55 317 200 604 421 833 254 264 524 401
861 436 384 39 822 -140 1149 -470 215 -217 355 -486 408 -783 20 -112 32
-144 32 -88 0 52 -38 228 -71 326 -129 384 -464 741 -861 916 -229 101 -442
138 -664 118z m976 -1720 c-19 -16 -57 -41 -85 -54 -27 -13 -102 -48 -166 -78
-107 -50 -207 -110 -284 -169 -26 -20 -28 -21 -15 -3 51 70 73 92 145 150 44
35 100 84 125 110 66 69 94 78 33 11 -29 -32 -53 -61 -53 -66 0 -4 30 8 66 28
62 32 237 101 259 101 6 0 -6 -13 -25 -30z"/>
<path d="M2400 4113 c-63 -22 -47 -113 19 -113 51 0 72 61 23 68 -24 4 -32
-23 -9 -31 6 -2 8 -8 4 -13 -13 -14 -42 11 -42 37 0 19 6 24 25 25 43 2 46 4
26 19 -21 16 -23 16 -46 8z"/>
<path d="M2540 4055 l0 -55 35 0 c19 0 35 5 35 10 0 6 -9 10 -20 10 -11 0 -20
5 -20 10 0 6 9 10 20 10 26 0 26 17 0 25 -24 8 -17 25 11 25 10 0 19 5 19 10
0 6 -18 10 -40 10 l-40 0 0 -55z"/>
<path d="M2706 4069 c-3 -16 -9 -42 -12 -59 -6 -32 12 -43 23 -13 5 14 8 13
14 -5 5 -12 15 -22 24 -22 18 0 19 12 3 28 -9 9 -7 13 5 18 11 4 17 17 17 35
0 16 -1 29 -3 29 -1 0 -16 4 -34 9 -30 9 -32 8 -37 -20z m54 -19 c0 -5 -7 -10
-15 -10 -8 0 -15 5 -15 10 0 6 7 10 15 10 8 0 15 -4 15 -10z"/>
<path d="M2162 4071 c-11 -6 -11 -18 1 -62 15 -58 27 -64 75 -33 27 18 30 64
4 87 -20 18 -59 22 -80 8z m66 -53 c2 -16 -1 -28 -7 -28 -6 0 -14 0 -18 0 -5
-1 -11 13 -14 30 -6 28 -4 31 15 28 15 -2 22 -11 24 -30z"/>
<path d="M2869 4024 c-18 -48 -22 -84 -10 -84 6 0 13 12 17 28 9 43 14 50 11
14 -4 -36 11 -53 61 -70 27 -9 38 -9 57 4 32 21 39 43 19 65 -25 28 -42 23
-65 -16 -12 -19 -25 -33 -29 -30 -5 3 -12 25 -16 50 -8 59 -30 78 -45 39z"/>
<path d="M1976 3997 c-18 -13 -18 -15 4 -58 27 -54 26 -52 39 -44 8 4 8 12 0
26 -10 20 -10 20 15 4 30 -20 59 -9 30 12 -10 7 -18 26 -19 41 0 21 -5 28 -25
30 -14 2 -33 -3 -44 -11z m44 -17 c0 -5 -7 -10 -16 -10 -8 0 -12 5 -9 10 3 6
10 10 16 10 5 0 9 -4 9 -10z"/>
<path d="M1850 3926 c0 -8 5 -18 10 -21 21 -13 9 -24 -16 -15 -32 13 -44 13
-44 0 0 -16 49 -90 60 -90 16 0 12 21 -7 43 -17 20 -17 20 0 14 74 -27 82 -19
40 42 -29 42 -43 51 -43 27z"/>
<path d="M3095 3903 c-26 -39 -32 -63 -16 -63 6 0 17 10 25 22 16 22 16 22 16
-8 0 -27 15 -54 30 -54 3 0 16 20 30 45 26 48 20 74 -10 35 l-18 -24 -11 42
c-7 23 -14 42 -16 42 -2 0 -16 -17 -30 -37z"/>
<path d="M3279 3797 c-41 -52 -42 -56 -17 -77 13 -11 26 -19 31 -20 14 0 7 28
-9 34 -8 3 -12 11 -9 16 5 8 11 7 20 0 8 -7 20 -8 26 -4 9 5 7 10 -5 20 -10 7
-13 15 -7 18 5 4 12 2 16 -4 7 -12 35 -14 35 -2 0 5 -13 18 -28 29 l-29 21
-24 -31z"/>
<path d="M1677 3799 c-14 -8 -14 -15 5 -71 20 -59 22 -61 32 -38 17 39 39 60
60 60 18 0 18 2 6 14 -25 24 -85 44 -103 35z m53 -39 c0 -5 -7 -10 -15 -10 -8
0 -15 5 -15 10 0 6 7 10 15 10 8 0 15 -4 15 -10z"/>
<path d="M2535 3763 c-10 -15 -53 -71 -96 -125 -146 -183 -198 -310 -207 -499
-3 -88 -1 -128 12 -171 15 -53 19 -58 84 -97 87 -52 174 -130 217 -194 l34
-50 10 39 c19 69 65 129 153 195 113 86 210 184 241 245 44 87 52 182 19 240
-10 19 -11 19 -17 -1 -19 -60 -40 -89 -92 -127 -93 -69 -215 -197 -250 -263
-20 -37 -36 -88 -42 -130 -19 -122 -22 -135 -30 -135 -20 0 -25 74 -27 405 -2
389 -15 536 -27 310 -4 -71 -10 -158 -13 -192 l-6 -63 -69 94 -69 94 17 44
c20 51 80 153 130 222 l36 49 24 -59 c42 -102 56 -166 62 -269 l6 -100 27 75
27 75 0 -93 c1 -103 -8 -133 -65 -219 -38 -57 -61 -115 -64 -159 -4 -53 0 -50
24 17 29 83 81 163 146 223 50 47 50 47 50 110 0 108 -42 219 -167 436 -31 52
-56 96 -58 98 -1 1 -10 -10 -20 -25z m-92 -637 c14 -34 28 -84 32 -111 l8 -50
-23 20 c-46 41 -86 136 -104 245 l-5 35 34 -38 c18 -21 45 -66 58 -101z m-17
-131 c42 -62 58 -96 61 -130 3 -25 3 -45 0 -45 -10 0 -101 154 -124 209 -12
31 -22 72 -22 91 l0 35 14 -38 c8 -21 40 -76 71 -122z m399 7 c-55 -54 -117
-117 -137 -142 -21 -24 -38 -38 -38 -31 0 36 116 216 153 237 6 4 1 -5 -12
-19 -14 -15 -22 -27 -19 -27 3 0 37 18 74 40 38 22 71 40 74 40 3 0 -40 -44
-95 -98z"/>
<path d="M1516 3638 c-21 -30 -20 -61 2 -81 25 -23 65 -21 86 2 22 24 18 75
-6 79 -12 2 -16 -1 -12 -11 3 -8 1 -18 -5 -22 -17 -10 -13 -28 5 -21 8 3 12 2
9 -4 -10 -16 -52 -12 -59 6 -10 26 -7 44 9 44 9 0 12 6 9 15 -8 21 -20 19 -38
-7z"/>
<path d="M3457 3604 c-39 -36 -43 -59 -7 -36 22 14 25 9 10 -18 -12 -23 7 -40
21 -19 7 10 9 7 7 -11 -4 -36 16 -40 23 -5 4 17 7 26 8 21 2 -13 41 25 41 39
0 17 -39 65 -53 65 -7 0 -29 -17 -50 -36z m73 -20 c0 -16 -16 -19 -25 -4 -8
13 4 32 16 25 5 -4 9 -13 9 -21z"/>
<path d="M1781 3488 c4 -24 8 -121 9 -217 0 -187 11 -281 39 -327 15 -25 22
-28 58 -26 27 2 73 -8 130 -27 70 -25 94 -39 120 -69 17 -20 30 -38 29 -40 -2
-1 -23 6 -47 17 -24 11 -73 23 -109 27 -78 8 -198 50 -286 99 -35 20 -64 34
-64 32 0 -21 40 -128 71 -190 74 -148 138 -220 232 -261 49 -22 72 -26 158
-26 86 0 108 -4 152 -25 105 -49 231 -180 277 -288 14 -31 27 -57 30 -57 3 0
18 27 33 59 30 62 117 172 204 257 66 65 175 121 324 168 184 57 239 107 370
336 23 41 69 101 101 133 32 32 58 60 58 62 0 2 -23 9 -51 15 -33 8 -93 11
-168 8 -175 -8 -297 -53 -449 -168 -137 -103 -211 -219 -235 -371 -12 -76 -46
-159 -64 -159 -3 0 -3 30 0 67 l7 68 -25 -30 -24 -30 0 25 c0 39 23 94 69 164
23 36 40 73 38 83 -3 15 -13 9 -55 -30 -29 -27 -62 -68 -73 -92 -18 -38 -20
-50 -10 -106 5 -35 18 -92 29 -126 l19 -61 -26 -36 c-14 -20 -28 -36 -31 -36
-4 0 -22 26 -40 57 -33 58 -61 146 -61 193 0 54 -21 99 -72 150 -54 55 -162
130 -223 156 -32 13 -35 13 -35 -3 0 -28 11 -38 66 -66 119 -60 194 -145 240
-273 28 -76 29 -85 9 -78 -8 4 -32 38 -52 78 -47 88 -148 192 -221 225 -29 14
-51 29 -49 35 9 23 -26 83 -82 141 -50 51 -91 110 -91 130 0 15 33 2 64 -26
l35 -30 7 38 7 38 10 -35 c5 -19 6 -49 4 -67 -5 -29 -3 -34 19 -39 40 -10 49
7 36 70 -20 97 -176 310 -340 463 -37 34 -70 63 -73 63 -4 0 -3 -19 2 -42z
m209 -301 c40 -79 48 -107 30 -107 -20 0 -107 163 -123 230 -6 23 -3 22 23
-10 16 -19 47 -70 70 -113z m-37 -76 c8 -9 0 -8 -21 5 -19 10 -39 25 -45 33
-8 9 0 8 21 -5 19 -10 39 -25 45 -33z m25 -93 c17 -11 32 -21 32 -23 0 -6 -94
36 -105 47 -15 16 35 -1 73 -24z m1412 -6 c-47 -36 -161 -144 -157 -149 2 -2
26 6 52 18 53 23 105 40 105 33 0 -2 -35 -21 -78 -43 -42 -21 -107 -59 -144
-84 l-67 -45 24 35 c51 76 139 164 211 212 81 55 111 67 54 23z m-189 -68
c-39 -36 -103 -107 -142 -157 -79 -101 -129 -157 -140 -157 -11 0 5 48 36 110
38 75 152 186 240 232 39 21 72 38 74 38 2 0 -29 -30 -68 -66z m-1277 -184
c18 0 60 -50 87 -103 l21 -39 -48 33 c-26 19 -76 62 -113 97 l-66 63 52 -26
c29 -14 59 -25 67 -25z m970 18 c-9 -17 -24 -54 -34 -82 -29 -83 -53 -132 -57
-120 -6 19 35 130 68 184 34 56 48 67 23 18z m-765 -82 c84 -81 160 -227 93
-180 -22 15 -51 52 -151 192 -62 87 -41 83 58 -12z m1076 3 c-44 -21 -101 -45
-126 -53 -130 -40 -254 -132 -329 -247 -32 -47 -40 -39 -14 14 32 63 93 134
147 171 36 25 115 59 219 96 90 32 168 58 173 58 6 0 -26 -17 -70 -39z m-884
-98 c16 -25 29 -52 29 -60 0 -9 -21 16 -46 54 -26 39 -56 81 -68 95 -11 14 -3
9 18 -10 21 -19 52 -55 67 -79z m-260 -17 c39 -19 69 -37 67 -39 -2 -2 -39 7
-81 20 -43 14 -85 25 -95 25 -9 1 -30 7 -47 15 -30 13 -29 13 28 14 47 1 70
-5 128 -35z m495 -259 c23 -48 32 -105 17 -105 -8 1 -68 142 -79 185 -9 33 33
-22 62 -80z"/>
<path d="M4048 2714 c4 -168 1 -231 -13 -324 -10 -63 -19 -140 -21 -170 -1
-30 -16 -104 -34 -164 -17 -60 -29 -111 -26 -113 8 -8 43 68 80 176 39 113 44
141 21 141 -18 0 -18 -4 0 96 21 123 29 325 16 431 -20 164 -28 141 -23 -73z"/>
<path d="M1175 2788 c-56 -30 -58 -63 -5 -84 48 -19 60 -38 60 -94 0 -51 15
-80 39 -80 11 0 48 13 83 28 34 16 122 48 193 72 140 47 141 55 5 48 -73 -4
-131 -18 -222 -53 -14 -6 -18 -2 -18 16 0 34 -35 86 -72 109 -42 25 -27 25 71
0 58 -15 103 -20 167 -18 l89 3 -130 33 c-132 33 -224 40 -260 20z"/>
<path d="M3682 2691 c-34 -10 -66 -22 -70 -26 -4 -4 48 -5 116 -2 74 4 122 2
122 -3 0 -6 -9 -10 -20 -10 -12 0 -38 -9 -58 -19 -29 -15 -53 -18 -107 -15
-59 3 -65 2 -40 -7 17 -5 51 -20 77 -31 46 -21 49 -21 87 -3 29 13 52 16 84
11 36 -6 46 -3 62 14 26 29 7 66 -48 90 -52 24 -122 24 -205 1z"/>
<path d="M1270 2473 l-75 -37 50 -6 c28 -3 72 -16 98 -29 59 -29 95 -25 186
20 l64 32 -79 28 c-109 39 -152 38 -244 -8z"/>
<path d="M1735 2463 c-48 -13 -125 -45 -125 -51 0 -4 13 -14 29 -24 16 -9 55
-52 87 -95 122 -167 164 -196 345 -237 189 -42 236 -63 315 -138 29 -27 72
-79 95 -114 22 -35 45 -61 50 -58 16 10 11 295 -7 355 -23 79 -70 155 -134
219 -106 106 -211 139 -470 145 -91 2 -174 2 -185 -2z m280 -59 c130 -31 258
-117 343 -230 55 -74 100 -173 109 -242 l6 -47 -59 55 c-32 30 -85 93 -117
140 -71 103 -86 120 -157 175 -72 55 -141 90 -231 115 -105 29 -126 24 -41 -9
40 -16 103 -47 140 -69 66 -39 167 -121 159 -128 -2 -3 -21 3 -41 11 -67 28
-69 11 -4 -27 74 -42 152 -98 146 -104 -9 -8 -235 48 -286 71 -67 31 -144 108
-209 212 -50 79 -52 83 -30 88 69 15 181 11 272 -11z"/>
<path d="M3455 2371 c-27 -52 -64 -114 -82 -138 -37 -48 -32 -54 18 -20 58 39
126 172 117 230 -2 16 -17 -4 -53 -72z"/>
<path d="M3811 2439 c-30 -18 -38 -19 -82 -8 -38 10 -62 10 -116 0 -98 -17
-105 -25 -42 -46 30 -10 88 -35 129 -56 42 -22 79 -39 83 -39 3 0 14 15 23 33
24 48 55 77 81 77 13 0 23 -4 23 -10 0 -5 -4 -10 -10 -10 -21 0 -65 -102 -140
-326 l-80 -239 5 80 c3 44 7 100 9 125 4 37 3 34 -6 -12 -6 -32 -14 -58 -18
-58 -3 0 -12 16 -19 35 -28 77 -169 185 -243 185 -44 0 -33 -17 33 -51 150
-75 241 -248 212 -406 l-10 -57 19 25 c50 61 151 311 206 509 29 105 48 152
84 202 19 27 19 27 -2 48 -27 27 -94 27 -139 -1z"/>
<path d="M1420 2304 c-19 -8 -42 -22 -52 -31 -16 -15 -21 -15 -55 0 -21 9 -53
19 -70 22 -44 9 -44 -2 13 -166 83 -242 192 -444 330 -610 78 -94 112 -123 57
-49 -93 125 -230 387 -308 590 -29 74 -56 143 -60 153 -10 24 7 22 98 -14 50
-19 86 -27 100 -23 12 3 62 32 110 63 l88 56 -58 12 c-78 16 -151 15 -193 -3z"/>
<path d="M3005 2176 c-77 -39 -169 -93 -203 -120 -65 -50 -76 -68 -26 -41 16
8 81 39 144 69 84 39 131 69 175 110 33 30 58 55 55 54 -3 -1 -68 -33 -145
-72z"/>
<path d="M1625 2106 c-68 -31 -120 -91 -133 -152 -10 -48 -1 -144 11 -114 3 8
13 37 23 65 18 48 71 112 127 151 22 15 28 27 25 47 l-3 27 -50 -24z"/>
<path d="M3447 2039 c41 -43 52 -75 59 -163 10 -111 -29 -233 -101 -321 -23
-28 -22 -25 7 45 28 64 32 87 32 160 0 76 -3 92 -31 145 l-31 60 1 -155 2
-156 -39 -79 c-30 -61 -59 -100 -126 -167 -48 -48 -85 -88 -82 -88 2 0 46 21
96 47 101 53 222 162 269 243 38 67 61 163 53 230 -11 92 -67 194 -121 222
-13 7 -9 -1 12 -23z"/>
<path d="M1412 2010 c-1 -14 3 -43 7 -65 l9 -40 0 35 c0 19 -4 49 -8 65 -7 27
-8 28 -8 5z"/>
<path d="M1641 1975 c-81 -133 -93 -285 -33 -407 54 -110 168 -217 327 -307
39 -22 39 -22 15 -1 -63 54 -185 179 -216 221 -19 26 -49 77 -66 115 -31 64
-33 76 -33 174 0 82 5 121 23 179 13 40 22 75 20 77 -2 2 -19 -21 -37 -51z"/>
<path d="M3862 1920 c-23 -76 -96 -221 -157 -310 -64 -95 -182 -237 -227 -275
-40 -34 -25 -31 33 6 59 38 192 176 243 253 72 109 132 276 124 345 -3 22 -5
19 -16 -19z"/>
<path d="M3522 1230 c-77 -90 -254 -227 -402 -312 -280 -161 -671 -202 -968
-102 -172 57 -365 175 -512 311 -46 43 -78 68 -72 57 20 -37 166 -168 253
-226 220 -147 446 -218 694 -218 335 0 681 148 936 400 80 78 131 140 117 140
-2 0 -22 -22 -46 -50z"/>
</g>
</svg>